<?xml version="1.0" standalone="no"?>
<!DOCTYPE svg PUBLIC "-//W3C//DTD SVG 20010904//EN"
 "http://www.w3.org/TR/2001/REC-SVG-20010904/DTD/svg10.dtd">
<svg version="1.0" xmlns="http://www.w3.org/2000/svg"
 width="265.000000pt" height="265.000000pt" viewBox="0 0 265.000000 265.000000"
 preserveAspectRatio="xMidYMid meet">

<g transform="translate(0.000000,265.000000) scale(0.100000,-0.100000)"
fill="#000000" stroke="none">
<path d="M305 2634 c-27 -7 -53 -13 -58 -14 -4 0 -6 -6 -5 -12 2 -8 -6 -12
-21 -10 -15 2 -21 0 -17 -7 4 -6 -1 -11 -12 -11 -27 0 -55 -33 -40 -48 8 -8 6
-10 -9 -6 -22 6 -52 -19 -84 -71 -22 -35 -24 -50 -7 -38 7 4 24 9 38 11 14 2
34 4 45 6 23 3 44 -14 38 -31 -3 -7 -1 -13 5 -13 5 0 12 6 15 13 3 8 24 14 53
15 31 2 51 8 60 20 12 16 13 15 14 -4 0 -21 2 -21 60 -9 32 7 61 10 63 8 12
-12 65 -7 87 8 28 19 160 36 160 21 0 -12 -35 -22 -78 -22 -18 0 -31 -4 -28
-9 3 -5 26 -4 53 1 27 6 53 10 60 11 7 0 10 4 8 8 -3 4 1 9 9 12 19 8 57 -3
50 -14 -3 -6 -12 -6 -22 0 -12 7 -21 3 -35 -15 -10 -13 -24 -24 -32 -24 -7 0
-20 -10 -29 -22 -9 -13 -14 -17 -11 -10 3 6 2 12 -3 12 -18 0 -22 -31 -6 -55
13 -19 21 -22 53 -18 33 5 39 2 44 -16 4 -17 1 -21 -20 -21 -24 0 -25 -2 -20
-40 5 -36 3 -40 -16 -40 -29 0 -57 19 -39 27 20 8 14 23 -10 23 -46 0 -65 -39
-20 -40 15 -1 15 -2 -1 -14 -18 -14 -57 -14 -99 0 -13 4 -18 2 -14 -4 13 -21
-60 -30 -95 -11 -12 6 -18 17 -15 25 4 9 -1 14 -15 14 -11 0 -18 4 -15 9 6 9
-16 21 -37 21 -7 0 -4 -5 6 -11 25 -15 21 -30 -7 -23 -27 6 -39 -6 -30 -30 5
-14 9 -14 22 -4 12 10 14 10 8 1 -5 -9 0 -13 14 -13 14 0 24 8 27 21 4 16 8
17 14 7 15 -22 10 -38 -12 -38 -11 0 -17 -4 -14 -10 4 -7 -3 -7 -20 0 -32 12
-35 12 -35 1 0 -5 8 -12 18 -14 13 -4 11 -5 -5 -6 -22 -1 -34 -31 -13 -31 19
0 10 -21 -12 -30 -20 -8 -19 -9 12 -8 19 0 49 4 65 8 l30 8 -30 2 c-25 2 -26
3 -7 7 13 3 28 0 35 -5 7 -5 36 -7 65 -5 45 5 51 8 40 21 -7 8 -12 17 -10 19
10 14 -2 9 -18 -7 -21 -21 -60 -27 -60 -10 0 6 -9 10 -19 10 -11 0 -23 5 -26
10 -4 7 13 9 50 6 32 -3 53 -1 50 4 -3 5 4 11 17 14 37 7 68 5 68 -3 0 -5 12
-6 28 -4 26 4 26 4 7 -12 -11 -8 -25 -13 -32 -10 -7 3 -20 8 -28 11 -8 3 -15
1 -15 -5 0 -6 9 -11 20 -11 11 0 20 -5 20 -11 0 -12 51 -3 60 10 3 5 16 12 30
16 24 7 24 7 5 -9 -16 -13 -17 -17 -6 -25 11 -7 9 -10 -8 -16 -13 -4 -25 -4
-28 -1 -4 3 2 6 12 6 10 0 16 3 12 6 -5 5 -39 1 -186 -22 -25 -4 -31 -8 -20
-14 11 -7 9 -9 -6 -9 -11 -1 -38 -3 -60 -6 l-40 -4 45 14 45 14 -50 -6 c-27
-3 -113 -15 -190 -27 -125 -19 -140 -23 -143 -42 -3 -18 2 -20 35 -17 40 3 36
-1 -9 -11 l-28 -6 0 -123 c0 -67 5 -129 10 -137 10 -17 88 -20 175 -8 28 4 15
0 -28 -10 -43 -9 -76 -20 -72 -24 4 -4 20 -5 35 -2 15 4 37 1 49 -6 17 -9 38
-8 96 5 40 9 82 15 92 13 10 -2 -13 -10 -52 -17 -89 -17 -123 -30 -80 -29 17
0 46 -3 66 -7 23 -4 65 -1 115 10 145 31 229 47 269 51 l40 5 -30 -14 c-16 -7
-44 -14 -62 -15 -18 -1 -42 -6 -55 -11 -21 -9 -21 -10 -3 -10 11 -1 29 -7 40
-15 11 -7 29 -16 40 -18 17 -5 15 -7 -10 -12 -30 -7 -30 -8 -30 -74 0 -37 -3
-69 -6 -72 -3 -3 0 -21 7 -40 12 -33 13 -28 13 68 1 75 4 102 14 102 22 0 34
-15 44 -56 8 -34 7 -43 -6 -51 -14 -10 -14 -12 3 -18 27 -12 35 11 20 61 -10
34 -10 44 -1 44 9 0 9 2 1 8 -6 4 -14 16 -18 28 -5 18 0 23 36 34 60 19 64 22
42 32 -12 5 2 6 36 3 42 -3 48 -2 25 5 -16 4 -64 18 -105 30 -41 12 -78 25
-83 29 -4 4 33 15 83 25 50 11 93 16 96 13 3 -3 -27 -11 -65 -18 -39 -7 -71
-15 -71 -19 0 -4 18 -12 39 -18 30 -7 57 -5 113 7 41 10 66 20 58 23 -13 6
-13 7 0 8 8 1 -12 10 -45 20 l-60 19 45 -1 c56 0 180 27 160 35 -8 3 -54 15
-102 27 -65 16 -92 18 -107 11 -27 -15 -51 -13 -26 1 18 11 50 17 185 32 l45
6 -45 -11 c-72 -16 -78 -20 -45 -30 17 -5 48 -7 70 -4 28 3 34 2 20 -4 -17 -7
-15 -10 17 -16 21 -4 55 -4 75 -1 124 21 128 22 110 31 -22 9 -89 11 -142 2
-37 -6 -37 -6 5 5 l45 11 -80 18 c-77 17 -78 17 -30 17 28 0 70 3 95 8 40 7
42 9 20 15 -16 5 -7 6 28 5 29 -1 55 1 58 5 2 5 12 5 20 2 13 -5 13 -7 2 -14
-8 -6 5 -9 37 -10 86 -2 148 7 140 22 -4 5 -1 9 4 9 6 0 11 -6 11 -14 0 -8
-19 -18 -47 -25 l-48 -10 49 3 c30 3 44 1 35 -5 -10 -6 -8 -9 9 -9 15 0 21 4
16 12 -4 6 -3 8 3 5 6 -4 30 -3 54 2 l44 8 -37 8 c-21 4 -38 11 -38 16 0 5 4
9 8 9 5 0 51 9 103 19 52 11 114 22 139 25 l45 5 -45 -13 c-28 -9 -37 -14 -22
-15 15 -1 22 -7 22 -20 0 -21 -22 -33 -44 -25 -8 3 -17 0 -22 -7 -5 -9 11 -11
71 -6 79 7 128 26 70 28 -70 1 -68 15 4 29 39 7 74 10 77 7 4 -4 -13 -9 -37
-13 -66 -11 -20 -22 76 -19 115 4 117 4 111 14 -7 10 17 21 42 21 12 -1 9 -7
-13 -25 l-30 -25 28 0 c17 0 27 -5 27 -15 0 -8 -8 -15 -17 -15 -10 0 -29 -3
-43 -6 -20 -4 -22 -3 -10 5 12 9 11 11 -8 11 -13 0 -20 4 -17 10 3 6 -1 10
-10 10 -9 0 -14 -3 -12 -7 3 -5 -15 -8 -39 -8 -29 0 -49 -6 -61 -19 -17 -17
-17 -18 17 -10 34 8 84 9 145 1 17 -2 36 -5 43 -5 20 -3 13 -20 -10 -25 l-23
-4 23 -2 c12 0 22 -5 22 -9 0 -5 -28 -5 -61 1 -42 6 -64 5 -68 -2 -4 -6 -25
-15 -46 -21 l-40 -10 40 6 c22 3 59 8 82 11 68 9 88 0 89 -41 0 -33 -2 -35
-47 -46 -45 -11 -76 -40 -43 -40 8 0 12 5 9 10 -3 6 0 10 8 10 8 0 29 3 47 6
l32 7 -5 -44 c-3 -24 -6 -45 -6 -47 -1 -2 -4 -1 -8 1 -5 3 -17 1 -28 -4 -19
-7 -19 -8 3 -8 18 -1 22 -7 22 -31 0 -17 9 -37 21 -49 l21 -19 -36 1 c-20 1
-42 -5 -49 -12 -10 -11 -5 -13 26 -8 48 7 47 -6 -3 -34 -61 -34 -53 -49 25
-47 36 1 68 -1 72 -5 5 -6 -82 -12 -127 -8 -8 0 -42 -8 -75 -19 -33 -11 -48
-18 -33 -16 15 2 25 -1 22 -5 -7 -12 13 -11 34 0 9 4 42 11 72 14 92 10 30 -8
-330 -99 -184 -47 -380 -98 -435 -114 -91 -26 -195 -53 -595 -156 -108 -28
-565 -153 -617 -169 -7 -3 -13 -9 -13 -14 0 -9 28 -6 65 8 87 34 114 39 119
25 3 -7 12 -11 20 -8 8 3 12 12 9 21 -4 9 0 14 8 12 8 -1 22 1 32 5 9 5 25 5
35 1 14 -5 10 -10 -21 -29 -32 -19 -35 -24 -19 -28 24 -7 81 -2 90 7 4 4 -1
13 -11 20 -18 13 -18 13 0 18 16 4 16 5 1 6 -26 2 -22 20 6 27 32 8 51 -3 37
-20 -8 -10 -1 -13 34 -14 25 0 43 4 39 9 -3 5 -10 7 -15 4 -5 -4 -9 -1 -9 4 0
6 -9 11 -19 11 -11 0 -23 5 -26 10 -3 6 -3 10 2 10 4 0 19 3 32 7 17 4 22 3
17 -5 -11 -18 -2 -15 24 8 13 11 32 20 44 20 12 0 41 7 65 16 24 8 46 12 49 9
4 -3 -4 -8 -16 -12 -12 -3 -22 -9 -22 -14 0 -5 -7 -6 -15 -3 -8 4 -15 1 -15
-5 0 -6 -21 -16 -46 -22 -38 -10 -43 -14 -29 -22 19 -10 112 4 143 22 16 10
16 10 0 11 -9 0 -20 5 -24 11 -4 8 1 9 17 4 13 -4 21 -4 17 0 -8 9 23 45 39
45 8 0 39 9 70 20 31 11 59 18 61 15 3 -3 10 -1 16 4 14 12 207 61 201 52 -2
-4 -31 -16 -64 -26 -63 -19 -72 -35 -19 -35 44 0 138 31 131 43 -4 6 1 8 11 4
10 -4 15 -3 11 3 -5 9 52 24 70 18 16 -5 145 34 140 42 -2 4 2 16 10 26 8 11
14 14 15 7 0 -8 13 -13 33 -13 41 0 62 13 51 31 -6 12 -5 12 8 1 10 -8 26 -10
43 -6 20 5 24 9 13 16 -9 7 -1 8 23 5 25 -4 45 0 64 13 16 11 33 16 37 14 5
-3 15 0 23 6 8 7 21 10 29 7 8 -3 20 1 27 9 7 9 23 14 36 11 13 -2 23 0 23 5
0 5 8 7 19 3 10 -3 40 4 66 15 27 11 53 19 59 17 6 -2 22 0 36 6 84 33 350 81
350 64 0 -3 -26 -13 -57 -22 -32 -9 -161 -48 -288 -87 -126 -38 -257 -78 -290
-88 -33 -10 -204 -65 -380 -122 -285 -94 -431 -144 -645 -223 -36 -13 -141
-52 -235 -85 -93 -34 -172 -64 -175 -67 -7 -7 73 8 85 17 19 14 138 50 146 44
5 -3 24 4 43 15 18 12 41 21 50 21 9 0 16 5 16 11 0 6 9 9 19 6 11 -3 28 1 39
9 11 7 23 10 27 6 5 -4 5 -1 1 6 -6 10 -1 11 18 6 19 -4 28 -2 32 11 5 13 9
14 15 4 6 -11 9 -10 14 2 4 11 14 14 31 11 18 -3 24 0 24 13 0 12 5 15 16 11
21 -8 83 13 111 38 19 16 27 17 45 8 13 -6 17 -11 11 -11 -7 -1 -13 -5 -13
-10 0 -9 87 -36 108 -32 6 1 12 -3 12 -8 0 -6 10 -9 23 -7 16 2 22 9 21 27 -1
13 3 27 10 31 17 11 46 9 46 -3 0 -6 -8 -8 -19 -4 -11 3 -22 1 -26 -5 -4 -6 4
-10 19 -10 13 0 26 -4 28 -9 6 -17 73 3 70 21 -3 20 25 31 32 12 8 -21 26 -17
26 6 0 23 15 27 23 6 8 -20 -33 -45 -105 -65 -33 -9 -60 -21 -61 -26 -1 -5 18
-15 43 -22 38 -11 45 -11 53 2 12 22 25 18 29 -7 5 -35 28 -34 28 1 0 40 19
40 26 1 4 -16 11 -30 16 -30 6 0 7 11 4 25 -5 21 -3 25 14 25 12 0 24 -9 29
-23 7 -17 4 -25 -13 -34 l-21 -12 23 -1 c12 0 22 -4 22 -10 0 -18 20 -11 20 8
1 12 5 9 16 -10 15 -29 23 -32 89 -30 l40 2 -35 -14 c-19 -7 -30 -15 -25 -18
6 -2 4 -3 -2 -2 -11 3 -104 -32 -178 -66 -11 -5 -55 -25 -98 -44 -42 -19 -80
-42 -84 -51 -4 -12 -8 -13 -13 -5 -5 8 -35 0 -100 -27 -54 -22 -86 -39 -74
-41 78 -12 82 -22 19 -46 -25 -10 -47 -21 -50 -26 -3 -5 26 -19 64 -31 62 -20
75 -21 111 -10 47 14 46 19 -12 41 -45 16 -62 40 -30 40 11 0 41 -9 67 -20 50
-21 95 -26 95 -10 0 6 8 10 18 10 11 1 7 6 -13 17 -16 8 -39 25 -49 36 -20 20
-20 20 12 14 18 -4 51 -15 74 -26 30 -14 48 -16 60 -10 10 5 18 12 18 14 0 2
-40 16 -90 31 -49 15 -90 31 -90 35 0 4 18 7 40 7 23 0 38 -3 35 -7 -7 -6 97
-42 103 -36 2 2 -2 13 -8 25 -10 19 -9 21 7 18 12 -2 18 -12 18 -28 0 -30 24
-37 66 -20 30 13 39 30 17 30 -17 1 -53 28 -46 35 3 3 25 -1 49 -9 48 -17 89
-21 89 -8 0 4 -38 20 -85 36 -47 15 -83 32 -79 37 3 5 9 7 14 4 4 -3 10 -1 12
4 1 4 28 10 58 13 l55 5 -40 -17 -40 -17 65 -21 c83 -29 104 -29 90 -2 -10 19
-9 20 31 14 52 -9 51 13 -2 32 -31 11 -32 13 -8 13 14 1 29 -2 33 -6 3 -4 13
-8 20 -9 7 -1 23 -5 34 -8 11 -4 23 -2 26 3 4 6 -31 22 -81 37 -90 28 -112 39
-100 50 4 4 49 -6 99 -21 104 -32 199 -40 240 -19 15 8 33 14 40 13 23 -1 -66
-38 -93 -39 -33 0 -79 -22 -79 -38 0 -6 3 -11 8 -11 18 3 32 -2 32 -11 0 -6
-9 -6 -24 0 -21 8 -27 5 -45 -23 -12 -18 -16 -36 -11 -41 12 -12 112 -37 119
-30 3 4 0 9 -6 11 -7 3 -13 11 -13 20 0 12 10 13 56 7 68 -8 67 8 -1 25 -25 6
-45 15 -45 20 0 5 21 3 47 -5 25 -8 60 -14 77 -14 22 1 8 8 -52 28 -46 15 -82
32 -80 37 4 13 37 8 122 -19 l70 -23 65 29 c35 15 66 27 68 24 2 -2 -33 -24
-78 -49 l-82 -45 41 -13 c23 -7 42 -16 42 -22 0 -5 -7 -6 -16 -3 -9 3 -28 9
-42 13 -15 3 -29 10 -32 14 -3 4 -16 1 -30 -6 -17 -10 -20 -14 -9 -15 9 0 44
-9 78 -20 57 -18 110 -18 81 0 -7 4 -11 12 -9 18 3 7 19 5 47 -5 24 -8 46 -12
49 -10 2 3 -26 15 -64 27 -78 26 -77 25 -69 39 4 6 17 6 37 -1 24 -8 33 -8 39
2 4 7 13 9 19 6 6 -4 9 -11 6 -16 -7 -11 41 -19 57 -9 7 5 32 9 56 9 24 0 56
7 72 15 22 11 29 12 33 2 3 -9 7 -9 17 0 10 9 3 14 -31 22 -24 6 -67 18 -96
26 -46 14 -56 14 -80 2 -15 -8 -39 -17 -53 -21 -14 -3 -5 4 20 15 l45 22 -60
18 c-33 10 -87 26 -119 35 l-60 17 58 21 c31 12 54 25 50 29 -4 4 2 7 14 7 34
0 26 -9 -25 -32 -45 -20 -46 -21 -23 -30 13 -5 51 -16 85 -24 59 -15 62 -15
128 10 79 30 91 21 14 -11 -34 -15 -44 -22 -29 -22 12 -1 22 -6 22 -11 0 -14
60 -9 61 5 0 5 4 0 9 -11 6 -17 15 -20 37 -17 15 3 38 6 51 6 12 1 22 6 22 11
0 5 7 3 15 -4 10 -8 19 -10 25 -4 6 6 -19 18 -66 33 -41 13 -73 26 -70 29 3 2
36 -5 73 -17 65 -21 115 -23 155 -6 10 4 16 10 14 14 -2 3 10 7 27 7 27 1 20
-4 -41 -34 -76 -37 -79 -49 -11 -54 19 -1 39 -9 45 -17 7 -9 18 -12 30 -7 19
7 19 8 0 22 -11 8 -29 14 -40 14 -12 0 -28 5 -36 10 -11 7 -5 13 30 28 25 11
54 22 64 26 25 9 9 25 -29 29 -17 2 -37 7 -47 11 -13 6 -295 84 -362 101 -57
14 -128 37 -124 40 2 2 28 -2 58 -10 30 -8 56 -15 58 -15 1 0 2 7 2 15 0 8 8
15 18 15 13 0 14 -2 3 -9 -19 -12 -7 -28 26 -34 16 -3 62 -15 103 -26 90 -25
119 -26 126 -6 4 8 10 13 15 10 4 -3 36 6 70 20 34 14 64 23 67 21 4 -5 -21
-17 -110 -53 -21 -8 -38 -18 -38 -22 0 -13 177 -53 201 -46 22 7 22 8 4 21
-17 12 -17 14 -2 14 25 0 24 78 0 86 -46 15 -47 17 -15 26 31 8 32 11 32 58 0
49 -1 50 -29 50 -17 0 -33 5 -37 11 -5 8 4 10 29 7 l35 -4 2 187 c1 200 1 199
-51 199 -10 0 -19 4 -19 9 0 5 -8 7 -18 4 -18 -4 -132 24 -132 33 0 2 35 3 78
2 59 -2 76 -6 74 -17 -2 -9 3 -11 14 -7 9 3 23 1 30 -5 9 -7 14 -8 14 -1 0 6
3 17 6 26 5 13 -1 16 -30 16 -25 0 -36 4 -36 15 0 17 25 20 35 5 14 -23 30 -8
33 30 1 22 1 40 0 40 -2 0 -61 -18 -133 -40 -146 -45 -167 -48 -158 -23 5 13
2 15 -15 11 -12 -4 -20 -2 -17 2 3 5 -1 10 -7 12 -8 3 0 12 17 21 26 14 27 16
9 17 -12 0 -25 7 -28 16 -9 23 -8 24 12 18 9 -3 6 2 -8 10 -16 10 -19 15 -10
16 13 0 13 2 1 9 -8 5 -11 16 -8 25 4 9 2 16 -3 16 -6 0 -10 8 -10 18 0 9 -6
28 -13 42 -13 26 -2 70 18 70 6 0 4 4 -3 8 -9 6 -11 21 -6 50 6 41 8 42 43 41
l36 -1 -30 -14 -30 -15 34 6 c18 3 57 5 85 6 l51 1 -60 13 c-33 7 -77 16 -97
19 -39 7 -55 36 -20 36 9 0 24 5 32 11 12 8 10 10 -11 6 -25 -4 -25 -3 -12 25
11 22 21 28 46 28 49 0 82 -11 65 -21 -10 -7 -9 -9 4 -9 10 0 22 -9 28 -20 10
-19 9 -20 -32 -14 -24 3 -48 7 -55 9 -7 2 -10 -2 -6 -10 3 -10 13 -13 28 -9
13 3 26 0 30 -6 4 -7 18 -9 37 -5 38 9 35 -15 -3 -27 -18 -5 -14 -7 16 -5 33
2 40 -1 39 -15 -1 -10 2 -18 7 -18 12 0 11 -37 -1 -61 -8 -15 -7 -19 5 -19 10
0 15 -10 15 -30 0 -19 -5 -30 -14 -30 -8 0 -17 -4 -20 -9 -4 -5 3 -7 14 -4 14
4 20 0 20 -11 0 -9 -3 -15 -7 -14 -5 0 -28 -8 -53 -20 l-45 -21 46 0 c26 -1
60 -8 75 -16 39 -20 16 -19 -107 5 -57 11 -105 17 -108 15 -2 -3 1 -5 8 -5 7
0 10 -4 7 -9 -3 -5 8 -14 24 -20 19 -6 30 -6 30 0 0 5 14 7 32 4 39 -7 49 -15
20 -15 -12 0 -22 -4 -22 -10 0 -13 37 -13 45 0 4 7 23 8 49 5 31 -5 45 -3 54
8 7 8 22 13 32 10 12 -3 20 0 20 6 0 7 5 9 11 6 7 -5 10 138 8 472 l-1 479
-72 -19 c-83 -23 -345 -29 -408 -10 -29 9 -40 9 -45 0 -12 -19 -50 -37 -76
-37 -13 0 -38 -5 -56 -11 -24 -8 -39 -8 -61 1 -37 15 -54 6 -40 -21 15 -27
-15 -38 -38 -14 -16 16 -16 17 6 5 13 -6 26 -9 29 -6 3 3 -7 10 -22 16 -24 9
-30 8 -38 -5 -6 -11 -20 -16 -40 -14 -18 1 -39 -1 -47 -4 -36 -13 -60 -14 -60
-4 0 7 -5 4 -10 -5 -13 -21 -68 -34 -83 -19 -8 8 1 11 33 12 41 1 42 2 19 10
-21 8 -25 15 -21 35 4 23 8 25 36 20 22 -4 27 -3 16 4 -8 5 -29 10 -47 10 -25
0 -31 -4 -27 -15 4 -9 0 -15 -10 -15 -9 0 -16 -7 -16 -15 0 -9 6 -12 18 -8 14
5 15 3 5 -7 -10 -10 -18 -11 -36 -3 -16 7 -38 8 -61 3 -20 -4 -39 -4 -42 1 -3
5 2 9 12 9 13 0 14 3 4 15 -7 8 -16 13 -20 10 -5 -3 -11 -1 -15 4 -3 6 -12 8
-20 4 -8 -3 -15 -1 -15 5 0 5 -11 13 -25 16 -14 4 -25 11 -25 17 0 6 7 9 15 5
13 -5 20 5 16 27 0 4 23 7 52 7 l52 -1 -35 -19 c-19 -11 -31 -19 -27 -20 15 0
92 43 100 56 8 15 64 11 80 -5 18 -18 28 -12 15 9 -7 11 -16 20 -20 20 -13 0
-48 34 -48 47 0 7 12 19 28 27 26 15 25 15 -40 16 l-67 0 -188 -192 c-103
-106 -294 -301 -423 -433 -264 -269 -306 -314 -303 -325 1 -5 -26 -15 -60 -23
-58 -13 -60 -15 -37 -25 l25 -11 -26 0 c-15 -1 -39 5 -54 13 l-27 14 44 7 c76
12 104 24 104 45 0 11 -5 20 -11 20 -10 0 -163 -33 -215 -46 -18 -5 -22 -4
-15 4 6 6 52 19 104 29 l95 19 -40 11 c-21 6 -61 16 -87 23 -26 7 -45 15 -43
17 3 3 21 0 40 -7 29 -9 51 -8 112 4 42 9 84 16 93 15 29 -1 -20 -16 -79 -24
l-55 -8 40 -14 c48 -17 103 -5 122 26 12 19 10 21 -20 30 -31 10 -31 10 8 5
45 -6 26 -22 249 215 l50 53 -54 -5 c-37 -4 -47 -3 -30 2 14 5 41 10 60 11
l35 3 -35 7 -35 7 42 2 c56 1 64 19 13 27 -27 4 -37 10 -29 15 7 4 21 3 30 -2
23 -12 49 -12 49 1 0 5 -7 7 -15 4 -8 -4 -17 1 -21 10 -4 11 -11 13 -22 7 -10
-5 -26 -5 -37 -1 -34 12 36 20 84 9 39 -9 45 -7 66 15 13 14 20 27 17 30 -3 3
2 6 11 6 9 0 20 6 24 14 9 16 124 139 251 267 77 78 83 88 66 97 -17 10 -17
11 -1 12 9 0 17 5 17 10 0 15 -48 12 -53 -2 -3 -10 -7 -10 -18 -1 -23 19 -915
16 -984 -3z m552 -31 c-3 -10 -5 -4 -5 12 0 17 2 24 5 18 2 -7 2 -21 0 -30z
m648 -34 c-8 -12 -52 -12 -60 0 -3 5 7 11 22 13 33 4 45 0 38 -13z m-617 -179
c0 -16 -3 -11 -9 15 -4 22 -8 51 -7 65 0 16 3 11 9 -15 4 -22 8 -51 7 -65z
m-478 80 c0 -5 -5 -10 -11 -10 -5 0 -7 5 -4 10 3 6 8 10 11 10 2 0 4 -4 4 -10z
m1662 -65 c-3 -29 -1 -35 14 -36 17 -1 17 -2 2 -6 -23 -6 -74 32 -57 42 6 4
15 1 20 -6 7 -11 9 -11 9 -1 0 7 -7 15 -15 18 -19 8 -9 24 14 24 14 0 16 -7
13 -35z m-122 5 c-35 -6 -30 -13 15 -23 13 -3 9 -5 -11 -6 -19 -1 -34 5 -37
13 -8 20 2 26 37 25 l31 -2 -35 -7z m60 -10 c0 -5 -2 -10 -4 -10 -3 0 -8 5
-11 10 -3 6 -1 10 4 10 6 0 11 -4 11 -10z m-577 -31 c-17 -17 -36 -1 -20 16 7
8 16 10 22 4 5 -6 5 -13 -2 -20z m-752 1 c-25 -21 -46 -27 -36 -9 6 9 41 27
55 28 3 0 -6 -9 -19 -19z m1115 5 c-14 -11 -16 -15 -5 -15 12 0 12 -2 -1 -10
-22 -14 -47 -12 -53 4 -4 11 -1 13 10 9 10 -4 14 -2 10 4 -8 13 8 21 38 22 20
0 20 0 1 -14z m-76 -10 c0 -11 -31 -11 -39 -1 -9 10 -6 12 14 8 14 -2 25 -6
25 -7z m157 2 c-3 -16 33 -33 41 -21 4 6 18 15 30 19 22 6 23 5 13 -14 -13
-23 -5 -26 39 -14 l25 7 -25 7 -25 7 28 1 c16 1 26 5 22 11 -3 6 -2 10 4 10 5
0 13 -5 16 -11 4 -6 17 -14 29 -19 l21 -9 -22 0 c-13 -1 -23 4 -23 9 0 6 -4
10 -10 10 -5 0 -10 -6 -10 -14 0 -29 -143 -29 -154 0 -3 8 -19 14 -36 14 -17
0 -29 4 -26 9 7 11 65 9 63 -2z m-325 -14 c-10 -4 -10 -8 -1 -19 15 -19 33
-18 25 1 -4 11 2 15 24 15 17 0 30 -4 30 -8 0 -30 -73 -45 -84 -16 -5 14 -8
14 -28 0 -28 -20 -38 -20 -38 -1 0 8 6 12 15 9 8 -3 20 -2 27 2 9 6 6 10 -12
15 -20 6 -17 7 15 7 22 0 34 -2 27 -5z m-198 -17 c-3 -9 -12 -12 -22 -9 -15 6
-9 11 25 22 1 1 0 -5 -3 -13z m111 5 c-16 -15 -65 -25 -65 -13 0 6 12 13 28
15 15 2 31 5 37 6 6 0 6 -2 0 -8z m252 2 c-9 -2 -15 -9 -12 -14 7 -11 -10 -11
-45 -2 -24 7 -23 8 10 14 41 7 74 9 47 2z m153 -8 c0 -10 10 -15 32 -15 17 0
29 -2 27 -4 -7 -8 -109 -15 -106 -8 2 4 7 15 10 25 8 21 37 23 37 2z m-95 -15
c-4 -6 -11 -7 -17 -4 -7 4 -8 2 -4 -4 4 -7 17 -12 29 -13 18 -1 16 -2 -7 -10
-17 -4 -35 -4 -40 0 -6 5 -20 11 -31 14 -14 3 -11 5 10 6 23 1 27 3 15 11 -11
7 -7 10 18 10 20 0 31 -4 27 -10z m-362 -17 c-7 -2 -21 -2 -30 0 -10 3 -4 5
12 5 17 0 24 -2 18 -5z m119 0 c-6 -2 -9 -10 -6 -15 5 -8 -7 -9 -37 -4 -32 4
-40 3 -29 -4 11 -7 3 -9 -30 -5 -30 4 -38 2 -25 -3 16 -7 11 -10 -27 -16 -49
-7 -70 -23 -49 -36 8 -4 -3 -10 -26 -13 -55 -10 -73 -8 -73 4 0 7 12 10 30 7
17 -3 30 -1 30 4 0 5 6 6 13 2 9 -5 9 -4 0 6 -7 7 -29 11 -57 9 -25 -3 -46 -1
-46 2 0 14 272 64 296 55 8 -3 12 -2 9 4 -3 6 4 10 17 9 13 0 17 -3 10 -6z
m134 -2 c-3 -5 -15 -7 -26 -4 -28 7 -25 13 6 13 14 0 23 -4 20 -9z m411 3 c-3
-3 -12 -4 -19 -1 -8 3 -5 6 6 6 11 1 17 -2 13 -5z m-730 -10 c-3 -3 -12 -4
-19 -1 -8 3 -5 6 6 6 11 1 17 -2 13 -5z m676 -1 c-7 -2 -21 -2 -30 0 -10 3 -4
5 12 5 17 0 24 -2 18 -5z m-720 -10 c-7 -2 -21 -2 -30 0 -10 3 -4 5 12 5 17 0
24 -2 18 -5z m414 -1 c-10 -2 -17 -7 -17 -12 0 -4 -7 -11 -16 -14 -8 -3 -13
-2 -10 3 3 4 -21 7 -54 7 -32 0 -54 -4 -48 -7 5 -3 -26 -12 -70 -19 -44 -7
-86 -9 -93 -5 -8 5 -10 4 -5 -3 8 -13 -59 -11 -71 2 -5 5 2 5 15 1 14 -4 29
-2 38 6 9 7 43 13 82 13 37 0 58 2 47 5 -35 7 75 27 149 27 38 -1 62 -2 53 -4z
m213 -2 c-14 -4 -36 -8 -50 -8 l-25 0 25 8 c14 4 36 8 50 8 l25 0 -25 -8z
m-953 -6 c-3 -3 -12 -4 -19 -1 -8 3 -5 6 6 6 11 1 17 -2 13 -5z m-60 -10 c-3
-3 -12 -4 -19 -1 -8 3 -5 6 6 6 11 1 17 -2 13 -5z m258 -4 c-13 -6 -15 -9 -5
-9 13 -1 13 -2 0 -11 -13 -8 -13 -10 0 -10 10 0 11 -3 3 -11 -15 -15 -34 -3
-26 16 3 10 -1 15 -13 16 -14 1 -13 3 6 9 34 11 60 11 35 0z m620 -15 c-65
-31 -83 -31 -25 0 25 13 52 24 60 24 8 0 -7 -11 -35 -24z m-670 -15 c-3 -5
-11 -10 -16 -10 -6 0 -7 5 -4 10 3 6 11 10 16 10 6 0 7 -4 4 -10z m505 3 c0
-5 -16 -18 -35 -31 -44 -28 -46 -15 -2 15 37 25 37 25 37 16z m-805 -13 c17
-6 14 -9 -17 -15 -37 -7 -55 -35 -23 -35 8 0 15 -6 15 -14 0 -12 -5 -12 -30 1
-23 11 -34 12 -44 4 -7 -6 -16 -8 -19 -4 -9 8 -38 -17 -31 -28 3 -5 20 -10 37
-10 l32 -2 -35 -7 c-26 -6 -29 -8 -11 -9 13 0 22 -3 19 -6 -3 -3 -25 -3 -49 1
-30 5 -38 9 -25 14 16 5 16 7 3 19 -9 7 -37 16 -64 21 -26 4 -40 8 -30 9 12 1
16 5 11 14 -6 9 -5 9 7 0 8 -7 33 -15 55 -19 31 -4 45 -2 58 11 11 12 27 16
48 13 28 -5 29 -4 13 9 -17 12 -17 13 -2 13 9 0 17 4 17 9 0 4 12 6 28 4 21
-4 24 -2 12 6 -17 12 -4 13 25 1z m90 0 c-11 -5 -27 -9 -35 -9 -9 0 -8 4 5 9
11 5 27 9 35 9 9 0 8 -4 -5 -9z m-182 -7 c-7 -2 -19 -2 -25 0 -7 3 -2 5 12 5
14 0 19 -2 13 -5z m483 -20 c-1 -2 -25 -5 -131 -17 -16 -2 -20 -1 -7 1 14 3
22 10 19 18 -4 9 2 11 28 5 23 -5 40 -3 51 5 13 9 21 9 30 1 7 -6 11 -12 10
-13z m-256 13 c0 -3 -4 -8 -10 -11 -5 -3 -10 -1 -10 4 0 6 5 11 10 11 6 0 10
-2 10 -4z m-296 -23 c-5 -5 -11 -12 -15 -16 -3 -4 -12 -1 -19 8 -11 13 -9 15
15 15 16 0 24 -3 19 -7z m-154 -23 c0 -5 -7 -7 -15 -4 -8 4 -15 8 -15 10 0 2
7 4 15 4 8 0 15 -4 15 -10z m-84 -7 c-15 -4 -16 -7 -5 -14 11 -7 11 -9 -2 -9
-9 0 -22 7 -29 15 -11 13 -8 15 21 14 20 -1 26 -3 15 -6z m333 -14 c-8 -5 -25
-9 -39 -9 -33 0 -10 15 26 17 19 1 23 -1 13 -8z m94 -6 c-7 -2 -21 -2 -30 0
-10 3 -4 5 12 5 17 0 24 -2 18 -5z m-56 -9 c-3 -3 -12 -4 -19 -1 -8 3 -5 6 6
6 11 1 17 -2 13 -5z m-464 -21 c-7 -2 -19 -2 -25 0 -7 3 -2 5 12 5 14 0 19 -2
13 -5z m674 -19 c-3 -3 -12 -4 -19 -1 -8 3 -5 6 6 6 11 1 17 -2 13 -5z m-258
-8 c-2 -2 -26 -6 -54 -10 -34 -4 -43 -3 -30 3 19 9 93 15 84 7z m359 -3 c-10
-2 -26 -2 -35 0 -10 3 -2 5 17 5 19 0 27 -2 18 -5z m822 -8 c0 -9 -9 -15 -22
-14 -20 1 -20 2 -4 6 15 4 16 7 5 14 -11 7 -11 9 4 9 9 0 17 -7 17 -15z m100
5 c-8 -5 -33 -9 -55 -8 l-40 1 40 7 c65 12 73 12 55 0z m-1557 -17 c-7 -2 -19
-2 -25 0 -7 3 -2 5 12 5 14 0 19 -2 13 -5z m146 3 c-2 -2 -24 -6 -49 -9 -30
-4 -38 -3 -25 3 19 8 83 14 74 6z m1265 -14 c3 -5 -8 -6 -25 -4 -16 2 -29 6
-29 8 0 8 49 4 54 -4z m-1409 -12 c-16 -4 -43 -8 -60 -8 l-30 0 30 8 c17 4 44
8 60 8 l30 0 -30 -8z m1028 3 c-7 -2 -19 -2 -25 0 -7 3 -2 5 12 5 14 0 19 -2
13 -5z m294 1 c-3 -3 -12 -4 -19 -1 -8 3 -5 6 6 6 11 1 17 -2 13 -5z m188 -4
c-3 -5 -15 -10 -26 -10 -10 0 -19 5 -19 10 0 6 12 10 26 10 14 0 23 -4 19 -10z
m-330 -10 c-3 -5 -16 -10 -28 -9 -20 1 -20 2 3 9 14 4 26 8 28 9 2 1 0 -3 -3
-9z m98 3 c-7 -2 -19 -2 -25 0 -7 3 -2 5 12 5 14 0 19 -2 13 -5z m-1546 -9
c-3 -3 -12 -4 -19 -1 -8 3 -5 6 6 6 11 1 17 -2 13 -5z m138 -4 c-16 -4 -41 -8
-55 -8 l-25 0 25 8 c14 4 39 8 55 8 l30 0 -30 -8z m1414 -7 c21 -3 31 -2 28 4
-4 6 4 8 21 5 l27 -6 -25 -7 c-25 -7 -24 -7 4 -8 16 -1 27 -3 24 -6 -9 -10
-177 18 -171 28 3 5 17 6 32 2 14 -3 41 -9 60 -12z m118 11 c-3 -3 -12 -4 -19
-1 -8 3 -5 6 6 6 11 1 17 -2 13 -5z m500 0 c-3 -3 -12 -4 -19 -1 -8 3 -5 6 6
6 11 1 17 -2 13 -5z m-2234 -11 c-7 -2 -21 -2 -30 0 -10 3 -4 5 12 5 17 0 24
-2 18 -5z m1868 -2 c-19 -12 -136 -34 -153 -29 -11 4 114 34 152 37 13 1 13
-1 1 -8z m-1933 -8 c-10 -2 -26 -2 -35 0 -10 3 -2 5 17 5 19 0 27 -2 18 -5z
m142 -2 c-38 -12 -126 -24 -119 -17 8 8 86 24 119 24 l25 0 -25 -7z m1330 -12
c0 -11 -16 -11 -61 -2 -32 6 -33 7 -9 13 30 7 70 1 70 -11z m43 14 c-7 -2 -19
-2 -25 0 -7 3 -2 5 12 5 14 0 19 -2 13 -5z m805 -13 c11 -19 10 -20 -23 -20
-28 0 -35 4 -35 20 0 14 7 20 23 20 12 0 28 -9 35 -20z m-953 -8 c-21 -17
-110 -31 -150 -23 l-40 9 45 1 c55 2 134 12 139 17 2 2 7 4 10 4 3 0 1 -4 -4
-8z m518 -9 c-7 -2 -21 -2 -30 0 -10 3 -4 5 12 5 17 0 24 -2 18 -5z m-707 -34
c-32 -9 -42 -6 -32 9 3 5 18 7 33 4 l28 -5 -29 -8z m691 15 c-3 -3 -12 -4 -19
-1 -8 3 -5 6 6 6 11 1 17 -2 13 -5z m-1420 -110 c-3 -3 -12 -4 -19 -1 -8 3 -5
6 6 6 11 1 17 -2 13 -5z m360 -20 c-3 -3 -12 -4 -19 -1 -8 3 -5 6 6 6 11 1 17
-2 13 -5z m-87 -18 c-35 -8 -50 -15 -40 -19 8 -4 -1 -5 -20 -2 -19 3 -39 10
-45 16 -7 7 -2 9 15 5 14 -3 41 -2 60 3 19 5 46 9 60 9 14 0 0 -6 -30 -12z
m-485 -41 c-27 -7 -62 -14 -77 -14 -38 -1 -35 -18 3 -26 23 -5 28 -10 18 -16
-7 -4 -16 -4 -19 1 -3 4 -27 15 -55 23 -49 15 -50 16 -15 17 19 1 58 8 85 15
28 7 64 13 80 13 23 0 18 -3 -20 -13z m-188 -11 c-3 -3 -12 -4 -19 -1 -8 3 -5
6 6 6 11 1 17 -2 13 -5z m2466 -62 c4 -19 2 -23 -16 -20 -18 2 -23 11 -25 48
l-3 44 19 -24 c10 -14 21 -35 25 -48z m-2473 39 c-19 -11 -117 -26 -108 -17 3
4 28 11 55 16 66 11 70 11 53 1z m497 -47 c-3 -3 -12 -4 -19 -1 -8 3 -5 6 6 6
11 1 17 -2 13 -5z m-100 -20 c-3 -3 -12 -4 -19 -1 -8 3 -5 6 6 6 11 1 17 -2
13 -5z m2073 -14 c-19 -13 -30 -13 -30 0 0 6 10 10 23 10 18 0 19 -2 7 -10z
m-1893 -16 c-3 -3 -12 -4 -19 -1 -8 3 -5 6 6 6 11 1 17 -2 13 -5z m-50 -10
c-3 -3 -12 -4 -19 -1 -8 3 -5 6 6 6 11 1 17 -2 13 -5z m1648 -174 c-3 -5 -18
-9 -33 -9 l-27 1 30 8 c17 4 31 8 33 9 2 0 0 -3 -3 -9z m253 -37 c-10 -2 -28
-2 -40 0 -13 2 -5 4 17 4 22 1 32 -1 23 -4z m-153 -33 c17 -7 14 -9 -13 -9
-20 -1 -31 3 -27 9 7 12 13 12 40 0z m6 -22 c62 16 61 7 -2 -11 -44 -13 -54
-13 -65 -2 -20 20 -17 27 5 14 14 -9 29 -9 62 -1z m-131 -13 c0 -8 -4 -15 -10
-15 -5 0 -10 7 -10 15 0 8 5 15 10 15 6 0 10 -7 10 -15z m-30 -4 c0 -6 -4 -12
-8 -15 -5 -3 -9 1 -9 9 0 8 4 15 9 15 4 0 8 -4 8 -9z m-49 -29 c-6 -11 -7 -23
-3 -27 4 -4 -3 -3 -15 4 -25 13 -41 34 -20 25 8 -3 20 2 27 11 17 20 24 12 11
-13z m135 19 c-6 -10 -86 -31 -113 -30 -10 0 9 9 42 19 73 22 78 22 71 11z
m136 -16 c4 -19 1 -25 -13 -25 -22 0 -27 35 -6 43 6 3 13 6 13 6 1 1 4 -10 6
-24z m145 19 c-3 -3 -12 -4 -19 -1 -8 3 -5 6 6 6 11 1 17 -2 13 -5z m-197 -31
c0 -19 -13 -9 -16 12 -1 8 2 13 7 9 5 -3 9 -12 9 -21z m-290 -3 c0 -5 -4 -10
-10 -10 -5 0 -10 5 -10 10 0 6 5 10 10 10 6 0 10 -4 10 -10z m160 -10 c0 -5
-4 -10 -10 -10 -5 0 -10 5 -10 10 0 6 5 10 10 10 6 0 10 -4 10 -10z m30 -25
c0 -21 -17 -35 -41 -35 -5 0 -9 9 -9 20 0 25 17 26 23 3 3 -13 5 -11 7 7 1 14
2 29 1 33 -1 5 3 6 9 2 5 -3 10 -17 10 -30z m-175 16 c-9 -8 -132 -45 -370
-110 -55 -16 -107 -31 -115 -34 -67 -27 -186 -55 -194 -47 -11 11 -10 12 24
15 44 4 180 48 174 56 -3 5 -2 14 2 20 4 8 9 7 15 -2 7 -11 9 -10 9 4 0 10 8
17 21 17 11 0 18 -4 14 -9 -3 -5 -1 -12 4 -15 5 -4 13 -1 16 5 4 5 13 8 20 5
7 -2 16 -2 20 2 7 7 12 8 41 11 8 0 12 6 9 11 -4 6 11 10 39 10 44 0 82 22 71
41 -4 5 1 6 9 3 9 -3 16 -10 16 -14 0 -5 9 -6 20 -3 11 3 18 9 15 13 -8 12 26
21 39 11 8 -7 27 -5 56 4 55 17 56 17 45 6z m105 -1 c0 -5 -5 -10 -11 -10 -5
0 -7 5 -4 10 3 6 8 10 11 10 2 0 4 -4 4 -10z m148 1 c11 -7 11 -9 -1 -14 -16
-6 -27 0 -27 15 0 10 11 10 28 -1z m232 -11 c0 -13 -5 -18 -15 -14 -8 4 -15
12 -15 20 0 8 7 14 15 14 8 0 15 -9 15 -20z m-370 -24 c0 -8 -7 -16 -15 -20
-10 -4 -15 1 -15 14 0 11 7 20 15 20 8 0 15 -6 15 -14z m210 4 c-20 -13 -33
-13 -25 0 3 6 14 10 23 10 15 0 15 -2 2 -10z m47 -47 c-3 -10 -5 -2 -5 17 0
19 2 27 5 18 2 -10 2 -26 0 -35z m-97 27 c0 -5 -9 -10 -21 -10 -11 0 -17 5
-14 10 3 6 13 10 21 10 8 0 14 -4 14 -10z m58 -24 c-2 -28 -5 -32 -22 -27 -20
5 -20 5 -2 9 14 3 16 6 6 12 -14 9 -7 40 10 40 6 0 10 -15 8 -34z m157 14 c0
-8 -8 -16 -17 -18 -13 -2 -18 3 -18 18 0 15 5 20 18 18 9 -2 17 -10 17 -18z
m-485 -15 c0 -7 -7 -15 -15 -19 -15 -5 -22 24 -9 37 9 9 24 -2 24 -18z m-343
9 c-3 -3 -12 -4 -19 -1 -8 3 -5 6 6 6 11 1 17 -2 13 -5z m210 -16 c-3 -8 -6
-5 -6 6 -1 11 2 17 5 13 3 -3 4 -12 1 -19z m30 -15 c-3 -10 -5 -4 -5 12 0 17
2 24 5 18 2 -7 2 -21 0 -30z m-50 -6 c3 -20 -19 -47 -39 -47 -15 0 -8 29 10
40 16 11 16 11 0 6 -11 -3 -18 0 -18 9 0 7 8 15 18 17 22 5 25 3 29 -25z m90
1 c-3 -7 -5 -2 -5 12 0 14 2 19 5 13 2 -7 2 -19 0 -25z m333 22 c0 -5 -9 -10
-21 -10 -11 0 -17 5 -14 10 3 6 13 10 21 10 8 0 14 -4 14 -10z m-122 -35 c2
-19 -2 -35 -8 -35 -5 0 -10 16 -10 35 0 19 4 35 8 35 4 0 9 -16 10 -35z m-38
15 c0 -5 -7 -10 -16 -10 -8 0 -12 5 -9 10 3 6 10 10 16 10 5 0 9 -4 9 -10z
m380 -10 c0 -23 -25 -27 -33 -6 -5 13 5 23 26 25 4 1 7 -8 7 -19z m-323 -12
c-3 -8 -6 -5 -6 6 -1 11 2 17 5 13 3 -3 4 -12 1 -19z m101 -16 c3 -28 0 -33
-15 -30 -12 2 -19 14 -21 36 -3 28 0 33 15 30 12 -2 19 -14 21 -36z m-524 -4
c7 -5 4 -8 -6 -8 -12 0 -18 7 -17 23 0 15 2 17 6 7 3 -8 11 -18 17 -22z m136
28 c0 -3 -4 -8 -10 -11 -5 -3 -10 -1 -10 4 0 6 5 11 10 11 6 0 10 -2 10 -4z
m-825 -16 c-11 -5 -27 -9 -35 -9 -9 0 -8 4 5 9 11 5 27 9 35 9 9 0 8 -4 -5 -9z
m949 1 c3 -5 -1 -12 -10 -15 -20 -8 -29 -1 -19 13 8 13 22 14 29 2z m106 -6
c0 -8 -7 -15 -15 -15 -8 0 -15 7 -15 15 0 8 7 15 15 15 8 0 15 -7 15 -15z
m215 5 c-3 -5 -1 -10 4 -10 6 0 11 -7 11 -15 0 -8 -6 -15 -14 -15 -8 0 -13 10
-13 25 0 14 4 25 9 25 5 0 6 -4 3 -10z m55 -25 c0 -33 -15 -33 -16 0 -1 14 2
25 7 25 5 0 9 -11 9 -25z m-1395 5 c-11 -5 -27 -9 -35 -9 -9 0 -8 4 5 9 11 5
27 9 35 9 9 0 8 -4 -5 -9z m685 0 c-13 -8 -13 -10 2 -10 25 0 11 -29 -21 -42
-50 -20 -82 -27 -76 -17 4 5 -1 9 -9 9 -10 0 -16 9 -16 25 0 15 6 25 14 25 22
0 30 -20 9 -21 -17 -1 -17 -2 0 -6 9 -2 17 -9 17 -14 0 -5 7 -9 15 -9 9 0 12
6 9 18 -5 14 -4 14 5 2 13 -19 24 -8 24 25 0 19 5 25 21 25 17 0 18 -2 6 -10z
m-50 -10 c0 -5 -4 -10 -10 -10 -5 0 -10 5 -10 10 0 6 5 10 10 10 6 0 10 -4 10
-10z m393 -19 c4 -17 14 -31 24 -34 10 -2 2 -2 -17 0 -26 3 -31 1 -20 -7 13
-9 13 -11 0 -20 -12 -8 -16 -2 -20 33 -4 37 3 56 21 57 4 0 9 -13 12 -29z
m-1098 9 c3 -5 -1 -10 -10 -10 -9 0 -13 5 -10 10 3 6 8 10 10 10 2 0 7 -4 10
-10z m1199 -7 c4 -9 1 -20 -6 -25 -20 -12 -25 -10 -30 17 -4 19 -1 25 12 25
10 0 21 -8 24 -17z m-167 -15 c-3 -8 -6 -5 -6 6 -1 11 2 17 5 13 3 -3 4 -12 1
-19z m208 12 c3 -5 -1 -10 -9 -10 -9 0 -16 5 -16 10 0 6 4 10 9 10 6 0 13 -4
16 -10z m-635 -9 c0 -5 -11 -11 -24 -13 -17 -4 -23 -1 -19 9 6 14 43 18 43 4z
m325 -1 c-3 -5 -1 -10 4 -10 6 0 11 -18 11 -39 0 -22 3 -41 8 -44 4 -2 1 -2
-6 0 -8 1 -22 3 -32 3 -24 0 -33 57 -11 70 14 8 13 9 -4 10 -17 0 -17 2 -5 10
20 13 43 13 35 0z m82 4 c-3 -3 -12 -4 -19 -1 -8 3 -5 6 6 6 11 1 17 -2 13 -5z
m560 0 c-3 -3 -12 -4 -19 -1 -8 3 -5 6 6 6 11 1 17 -2 13 -5z m-219 -16 c-7
-19 -38 -22 -38 -4 0 10 9 16 21 16 12 0 19 -5 17 -12z m-1068 -19 c0 -15 -5
-20 -22 -17 -27 4 -35 25 -11 31 31 8 33 7 33 -14z m250 11 c0 -5 -2 -10 -4
-10 -3 0 -8 5 -11 10 -3 6 -1 10 4 10 6 0 11 -4 11 -10z m710 -4 c0 -8 -4 -17
-9 -21 -12 -7 -24 12 -16 25 9 15 25 12 25 -4z m47 -18 c-3 -7 -5 -2 -5 12 0
14 2 19 5 13 2 -7 2 -19 0 -25z m-952 12 c-27 -12 -43 -12 -25 0 8 5 22 9 30
9 10 0 8 -3 -5 -9z m142 -12 c-3 -8 -6 -5 -6 6 -1 11 2 17 5 13 3 -3 4 -12 1
-19z m121 0 c-2 -18 -15 -27 -54 -40 -78 -26 -108 -27 -112 -3 l-4 20 16 -20
c15 -20 16 -20 22 4 7 23 8 23 21 6 13 -18 13 -18 13 1 0 16 2 17 10 4 8 -12
10 -10 10 10 1 24 1 24 15 6 9 -13 15 -15 15 -7 0 14 28 40 43 41 5 0 7 -10 5
-22z m372 -8 c0 -16 -4 -30 -10 -30 -5 0 -10 14 -10 30 0 17 5 30 10 30 6 0
10 -13 10 -30z m447 15 c0 -8 -4 -15 -9 -15 -4 0 -8 7 -8 15 0 8 4 15 8 15 5
0 9 -7 9 -15z m43 5 c0 -5 -4 -10 -10 -10 -5 0 -10 5 -10 10 0 6 5 10 10 10 6
0 10 -4 10 -10z m-1024 -27 c-10 -10 -19 5 -10 18 6 11 8 11 12 0 2 -7 1 -15
-2 -18z m334 17 c0 -5 -8 -10 -17 -10 -15 0 -16 2 -3 10 19 12 20 12 20 0z
m427 4 c-3 -3 -12 -4 -19 -1 -8 3 -5 6 6 6 11 1 17 -2 13 -5z m185 -19 c3 -14
1 -25 -3 -25 -5 0 -9 11 -9 25 0 14 2 25 4 25 2 0 6 -11 8 -25z m-1227 -5 c-3
-5 -11 -10 -16 -10 -6 0 -7 5 -4 10 3 6 11 10 16 10 6 0 7 -4 4 -10z m245 -1
c0 -6 -10 -13 -22 -17 -21 -5 -21 -6 -2 -13 17 -7 17 -8 1 -8 -23 -1 -34 28
-16 40 19 12 39 11 39 -2z m445 1 c3 -5 -1 -10 -10 -10 -9 0 -13 5 -10 10 3 6
8 10 10 10 2 0 7 -4 10 -10z m265 -10 c0 -5 -12 -10 -27 -10 -22 0 -25 2 -13
10 20 13 40 13 40 0z m-1003 -6 c-3 -3 -12 -4 -19 -1 -8 3 -5 6 6 6 11 1 17
-2 13 -5z m563 -4 c0 -5 -7 -10 -15 -10 -8 0 -15 5 -15 10 0 6 7 10 15 10 8 0
15 -4 15 -10z m107 4 c-3 -3 -12 -4 -19 -1 -8 3 -5 6 6 6 11 1 17 -2 13 -5z
m793 -9 c-7 -8 -17 -15 -23 -15 -6 0 -2 7 9 15 25 19 30 19 14 0z m-1524 -10
c-22 -16 -57 -21 -40 -6 7 8 29 15 54 20 3 0 -4 -6 -14 -14z m734 -25 c0 -17
-7 -30 -16 -34 -22 -8 -24 -6 -31 37 -5 33 -4 34 21 30 21 -4 26 -11 26 -33z
m57 3 c-3 -10 -5 -4 -5 12 0 17 2 24 5 18 2 -7 2 -21 0 -30z m-547 18 c0 -5
-11 -11 -25 -13 -17 -4 -25 -1 -25 8 0 8 11 14 25 14 14 0 25 -4 25 -9z m306
-6 c-17 -13 -18 -15 -3 -15 9 0 17 -7 17 -15 0 -8 5 -15 12 -15 6 0 9 -3 5 -6
-3 -3 -19 -3 -36 1 -25 5 -29 10 -26 33 4 35 1 32 28 32 21 -1 22 -1 3 -15z
m-376 -10 c0 -8 -7 -15 -15 -15 -26 0 -18 20 13 29 1 1 2 -6 2 -14z m460 -9
c0 -14 -5 -28 -11 -32 -8 -4 -7 -9 2 -15 10 -6 10 -9 2 -9 -15 0 -33 32 -33
59 0 14 6 21 20 21 15 0 20 -7 20 -24z m17 -8 c-3 -7 -5 -2 -5 12 0 14 2 19 5
13 2 -7 2 -19 0 -25z m333 22 c0 -5 -2 -10 -4 -10 -3 0 -8 5 -11 10 -3 6 -1
10 4 10 6 0 11 -4 11 -10z m57 4 c-3 -3 -12 -4 -19 -1 -8 3 -5 6 6 6 11 1 17
-2 13 -5z m403 -4 l25 -8 -25 0 c-14 0 -34 3 -45 8 l-20 9 20 -1 c11 0 31 -4
45 -8z m-1535 -10 c-3 -5 -12 -10 -18 -10 -7 0 -6 4 3 10 19 12 23 12 15 0z
m386 -10 c10 0 19 5 19 10 0 6 7 10 16 10 30 0 -4 -28 -55 -45 -50 -16 -81
-12 -81 10 0 17 43 32 48 16 6 -17 22 -13 23 7 0 10 3 12 6 5 2 -7 13 -13 24
-13z m199 5 c0 -8 -7 -15 -15 -15 -13 0 -14 3 -3 15 16 18 18 18 18 0z m400 5
c0 -5 -5 -10 -11 -10 -5 0 -7 5 -4 10 3 6 8 10 11 10 2 0 4 -4 4 -10z m-770
-9 c0 -12 -20 -25 -27 -18 -7 7 6 27 18 27 5 0 9 -4 9 -9z m-50 -21 c0 -5 -7
-10 -15 -10 -8 0 -15 5 -15 10 0 6 7 10 15 10 8 0 15 -4 15 -10z m330 6 c0 -3
-4 -8 -10 -11 -5 -3 -10 -1 -10 4 0 6 5 11 10 11 6 0 10 -2 10 -4z m413 -16
c4 -14 0 -20 -11 -20 -15 0 -15 -2 -2 -11 11 -8 12 -10 1 -7 -18 5 -24 58 -6
58 7 0 15 -9 18 -20z m71 11 c3 -5 -3 -11 -14 -14 -13 -3 -20 0 -20 9 0 15 26
19 34 5z m99 2 c-7 -2 -19 -2 -25 0 -7 3 -2 5 12 5 14 0 19 -2 13 -5z m-618
-12 c-16 -14 -55 -23 -55 -13 0 12 17 20 45 21 11 1 15 -3 10 -8z m85 -21 c0
-16 -4 -30 -10 -30 -5 0 -10 14 -10 30 0 17 5 30 10 30 6 0 10 -13 10 -30z
m41 -13 c-8 -8 -11 -3 -11 19 1 25 2 27 11 11 8 -14 8 -22 0 -30z m594 21 c7
-7 1 -8 -15 -3 -40 12 -59 26 -25 19 17 -4 35 -11 40 -16z m193 -23 c10 -9
-20 -5 -76 11 -85 24 -86 35 -2 13 40 -10 75 -21 78 -24z m137 25 c-53 -25
-67 -25 -30 0 17 11 39 20 50 19 14 0 7 -6 -20 -19z m-862 -1 c7 0 3 -4 -8 -9
-29 -13 -35 -12 -35 6 0 11 5 14 16 10 9 -3 21 -6 27 -7z m187 -22 c0 -13 -43
-4 -47 10 -2 6 4 13 14 15 17 4 33 -8 33 -25z m-340 -7 c0 -16 -2 -30 -4 -30
-2 0 -6 14 -8 30 -3 17 -1 30 4 30 4 0 8 -13 8 -30z m-120 16 c0 -3 -4 -8 -10
-11 -5 -3 -10 -1 -10 4 0 6 5 11 10 11 6 0 10 -2 10 -4z m88 -23 c-2 -20 -9
-29 -25 -31 -18 -3 -23 1 -23 21 0 29 7 37 32 37 15 0 19 -6 16 -27z m519 13
c-3 -8 -1 -17 6 -20 8 -3 6 -5 -3 -5 -23 -1 -43 15 -36 28 11 17 39 14 33 -3z
m260 8 c-3 -3 -12 -4 -19 -1 -8 3 -5 6 6 6 11 1 17 -2 13 -5z m-1227 -8 c0 -2
-7 -6 -15 -10 -8 -3 -15 -1 -15 4 0 6 7 10 15 10 8 0 15 -2 15 -4z m320 -6 c0
-5 -9 -10 -21 -10 -11 0 -17 5 -14 10 3 6 13 10 21 10 8 0 14 -4 14 -10z m315
0 c-3 -5 -16 -10 -28 -9 -21 0 -21 1 -2 9 28 12 37 12 30 0z m791 3 c-4 -5 23
-18 61 -30 68 -22 70 -31 3 -14 -131 35 -127 34 -100 42 34 10 45 10 36 2z
m171 1 c-3 -3 -12 -4 -19 -1 -8 3 -5 6 6 6 11 1 17 -2 13 -5z m-884 -22 c-4
-19 15 -14 20 6 4 16 5 16 6 -1 1 -25 -42 -40 -51 -18 -11 26 -9 33 10 29 9
-2 16 -10 15 -16z m-456 2 c-3 -3 -12 -4 -19 -1 -8 3 -5 6 6 6 11 1 17 -2 13
-5z m103 -4 c0 -5 -2 -10 -4 -10 -3 0 -8 5 -11 10 -3 6 -1 10 4 10 6 0 11 -4
11 -10z m-150 -9 c0 -5 -7 -11 -15 -15 -15 -5 -20 5 -8 17 9 10 23 9 23 -2z
m110 -1 c12 -8 11 -10 -7 -10 -13 0 -23 5 -23 10 0 13 11 13 30 0z m220 6 c0
-3 -4 -8 -10 -11 -5 -3 -10 -1 -10 4 0 6 5 11 10 11 6 0 10 -2 10 -4z m105
-21 c0 -13 -8 -21 -22 -23 -17 -3 -23 2 -23 16 0 10 3 22 7 26 13 13 38 1 38
-19z m175 1 c0 -15 -29 -30 -39 -20 -3 4 0 9 7 11 6 3 10 9 6 14 -3 5 2 9 10
9 9 0 16 -6 16 -14z m465 -10 c-69 -32 -99 -41 -91 -27 4 6 13 11 20 11 8 0
33 9 57 20 24 11 49 19 54 19 6 0 -12 -11 -40 -23z m-1125 4 c0 -5 -7 -10 -15
-10 -8 0 -15 5 -15 10 0 6 7 10 15 10 8 0 15 -4 15 -10z m420 -15 c0 -14 -4
-25 -9 -25 -4 0 -6 11 -3 25 2 14 6 25 8 25 2 0 4 -11 4 -25z m-125 5 c-3 -5
-18 -9 -33 -9 l-27 1 30 8 c17 4 31 8 33 9 2 0 0 -3 -3 -9z m85 0 c0 -5 -4
-10 -10 -10 -5 0 -10 5 -10 10 0 6 5 10 10 10 6 0 10 -4 10 -10z m-170 -20 c0
-5 -5 -10 -11 -10 -5 0 -7 5 -4 10 3 6 8 10 11 10 2 0 4 -4 4 -10z m355 -29
c-6 -5 -25 10 -25 20 0 5 6 4 14 -3 8 -7 12 -15 11 -17z m-265 4 c0 -15 -48
-40 -58 -30 -3 3 -1 5 5 5 6 0 9 9 6 20 -4 16 0 20 21 20 17 0 26 -5 26 -15z
m180 5 c8 -5 11 -10 5 -10 -5 0 -17 5 -25 10 -8 5 -10 10 -5 10 6 0 17 -5 25
-10z m470 -24 c-14 -7 -36 -16 -50 -20 -14 -3 -7 3 15 14 45 22 74 27 35 6z
m-190 -6 c18 -12 2 -12 -25 0 -13 6 -15 9 -5 9 8 0 22 -4 30 -9z m264 -15 c-4
-8 -15 -15 -25 -15 -17 0 -18 2 -7 15 17 19 39 19 32 0z m301 5 c-3 -5 -10
-10 -16 -10 -5 0 -9 5 -9 10 0 6 7 10 16 10 8 0 12 -4 9 -10z m-935 -10 c0 -5
-2 -10 -4 -10 -3 0 -8 5 -11 10 -3 6 -1 10 4 10 6 0 11 -4 11 -10z m417 4 c-3
-3 -12 -4 -19 -1 -8 3 -5 6 6 6 11 1 17 -2 13 -5z m588 -4 c3 -6 -1 -7 -9 -4
-18 7 -21 14 -7 14 6 0 13 -4 16 -10z m-763 -20 c85 -23 95 -31 40 -27 -22 1
-38 4 -35 7 2 2 -17 12 -44 21 -66 24 -48 23 39 -1z m443 10 c-3 -5 -11 -10
-16 -10 -6 0 -7 5 -4 10 3 6 11 10 16 10 6 0 7 -4 4 -10z m-335 -16 c0 -2 -7
-4 -15 -4 -8 0 -15 4 -15 10 0 5 7 7 15 4 8 -4 15 -8 15 -10z m430 11 c0 -8
-61 -36 -72 -33 -6 2 4 12 23 21 35 17 49 21 49 12z m-197 -21 c20 -4 40 -11
43 -16 3 -5 -6 -6 -23 -2 -15 4 -43 8 -60 8 -18 0 -28 3 -21 7 7 5 7 8 -3 12
-8 2 -5 3 6 1 11 -2 37 -7 58 -10z m-403 -18 c0 -3 -4 -8 -10 -11 -5 -3 -10
-1 -10 4 0 6 5 11 10 11 6 0 10 -2 10 -4z m505 -36 c-3 -5 -12 -10 -18 -10 -7
0 -6 4 3 10 19 12 23 12 15 0z m-748 -6 c-3 -3 -12 -4 -19 -1 -8 3 -5 6 6 6
11 1 17 -2 13 -5z m-27 -44 c0 -5 -15 -10 -32 -10 -25 0 -29 3 -18 10 20 13
50 13 50 0z m40 -15 c0 -8 -4 -15 -9 -15 -13 0 -22 16 -14 24 11 11 23 6 23
-9z m-276 -16 c-6 -11 -24 -2 -24 11 0 5 7 7 15 4 8 -4 12 -10 9 -15z m46 11
c-8 -5 -10 -10 -5 -10 12 0 -16 -20 -29 -20 -5 0 -1 9 9 20 10 11 23 20 29 20
6 0 4 -5 -4 -10z m841 -13 c-6 -8 -8 -17 -4 -20 3 -4 2 -7 -4 -7 -19 0 -22 13
-5 26 22 17 27 17 13 1z m-91 -1 c0 -3 -4 -8 -10 -11 -5 -3 -10 -1 -10 4 0 6
5 11 10 11 6 0 10 -2 10 -4z m175 -6 c-8 -13 -35 -13 -55 0 -11 7 -5 10 23 10
23 0 36 -4 32 -10z m-492 -37 c-13 -20 -16 -20 -33 -6 -24 21 -18 30 18 29 28
-1 28 -2 15 -23z m-655 -19 c12 -4 22 -10 22 -14 0 -5 -43 -30 -53 -30 -1 0
-3 11 -3 25 -2 27 0 28 34 19z m77 -84 c3 -5 -1 -10 -9 -10 -9 0 -16 5 -16 10
0 6 4 10 9 10 6 0 13 -4 16 -10z"/>
<path d="M1845 2320 c-3 -5 1 -10 10 -10 9 0 13 5 10 10 -3 6 -8 10 -10 10 -2
0 -7 -4 -10 -10z"/>
<path d="M1338 2263 c6 -2 18 -2 25 0 6 3 1 5 -13 5 -14 0 -19 -2 -12 -5z"/>
<path d="M1288 2253 c6 -2 18 -2 25 0 6 3 1 5 -13 5 -14 0 -19 -2 -12 -5z"/>
<path d="M1603 2273 c9 -2 23 -2 30 0 6 3 -1 5 -18 5 -16 0 -22 -2 -12 -5z"/>
<path d="M1448 2243 c7 -3 16 -2 19 1 4 3 -2 6 -13 5 -11 0 -14 -3 -6 -6z"/>
<path d="M2060 2630 c-19 -4 -21 -7 -9 -12 9 -3 22 -2 30 2 19 13 8 18 -21 10z"/>
<path d="M1723 2433 c-18 -6 -16 -33 1 -33 8 0 17 8 20 17 4 10 10 13 14 8 9
-13 42 -18 42 -7 0 18 -48 27 -77 15z"/>
<path d="M388 2383 c7 -3 16 -2 19 1 4 3 -2 6 -13 5 -11 0 -14 -3 -6 -6z"/>
<path d="M265 2330 c-3 -5 -1 -10 4 -10 6 0 11 5 11 10 0 6 -2 10 -4 10 -3 0
-8 -4 -11 -10z"/>
<path d="M155 2199 c-4 -6 -5 -13 -2 -16 7 -7 27 6 27 18 0 12 -17 12 -25 -2z"/>
<path d="M396 2196 c3 -9 11 -16 16 -16 13 0 5 23 -10 28 -7 2 -10 -2 -6 -12z"/>
<path d="M224 2175 c-16 -12 -17 -14 -3 -15 9 0 20 -7 23 -16 8 -20 25 -9 21
14 -2 9 -4 20 -4 25 -1 11 -15 8 -37 -8z"/>
<path d="M33 2153 c-24 -5 -40 -41 -30 -67 3 -8 18 -16 34 -19 27 -4 27 -4 -4
-6 -26 -1 -33 -5 -33 -21 0 -16 7 -20 35 -20 41 0 48 19 8 21 l-28 1 30 8 c17
4 44 8 60 8 l30 0 -30 -7 c-19 -4 -26 -9 -18 -14 17 -11 135 13 149 30 6 7 19
13 28 13 15 0 15 2 0 24 -12 20 -28 26 -72 32 -31 4 -61 12 -65 18 -6 7 -7 4
-3 -6 4 -14 -3 -19 -34 -24 -30 -5 -38 -10 -30 -19 6 -7 22 -10 38 -7 24 5 26
3 13 -11 -14 -18 -23 -15 -58 16 -13 11 -26 17 -30 14 -3 -4 -1 -7 6 -7 7 0 9
-4 6 -10 -10 -17 -25 -11 -25 9 0 12 11 23 30 30 26 9 43 23 23 20 -5 -1 -18
-4 -30 -6z m154 -29 c-3 -3 -12 -4 -19 -1 -8 3 -5 6 6 6 11 1 17 -2 13 -5z
m-37 -8 c0 -11 -19 -15 -25 -6 -3 5 1 10 9 10 9 0 16 -2 16 -4z m85 -17 c-4
-5 -10 -7 -15 -4 -9 6 -59 -21 -71 -38 -3 -5 -9 -1 -12 7 -5 13 1 18 25 23 27
5 29 7 13 13 -14 5 -6 8 23 8 24 0 40 -3 37 -9z m-5 -35 c0 -2 -9 -4 -21 -4
-11 0 -18 4 -14 10 5 8 35 3 35 -6z"/>
<path d="M1523 1947 c-69 -17 -51 -31 29 -23 39 3 83 10 97 13 l26 7 -30 7
c-41 9 -72 8 -122 -4z"/>
<path d="M1888 1923 c7 -3 16 -2 19 1 4 3 -2 6 -13 5 -11 0 -14 -3 -6 -6z"/>
<path d="M1808 1913 c7 -3 16 -2 19 1 4 3 -2 6 -13 5 -11 0 -14 -3 -6 -6z"/>
<path d="M1075 1896 l-40 -13 45 -7 c25 -4 67 -12 93 -18 47 -10 132 -4 141
11 5 8 -78 26 -154 35 -25 2 -63 -1 -85 -8z m135 -16 c-8 -5 -26 -9 -40 -9
l-25 1 25 8 c14 4 32 8 40 9 13 1 13 0 0 -9z"/>
<path d="M1524 1895 c4 -12 1 -15 -12 -11 -9 3 -33 2 -52 -3 l-35 -7 36 -7
c20 -4 44 -4 54 -1 10 4 21 1 26 -7 8 -12 11 -11 20 5 10 16 20 17 78 13 l66
-6 -70 14 c-38 8 -81 17 -94 20 -19 5 -22 3 -17 -10z"/>
<path d="M1776 1875 c-11 -8 -16 -15 -11 -15 5 0 -1 -7 -13 -16 -12 -8 -20
-20 -17 -25 10 -15 72 -11 79 6 3 9 20 15 43 16 37 1 37 1 -13 13 -33 7 -49
15 -47 24 6 15 3 15 -21 -3z"/>
<path d="M1340 1861 c-34 -19 -90 -31 -114 -25 -15 3 -26 2 -26 -4 0 -5 -20
-13 -45 -16 -48 -8 -65 -20 -38 -30 21 -8 132 4 139 15 3 5 20 10 37 10 l32 1
-30 8 c-24 6 -18 8 30 8 33 0 78 4 100 9 l40 9 -47 12 c-53 14 -57 14 -78 3z"/>
<path d="M1858 1863 c7 -3 16 -2 19 1 4 3 -2 6 -13 5 -11 0 -14 -3 -6 -6z"/>
<path d="M1620 1850 c-20 -6 -21 -8 -5 -8 11 0 31 4 45 8 20 6 21 8 5 8 -11 0
-31 -4 -45 -8z"/>
<path d="M1470 1840 c0 -5 7 -10 16 -10 8 0 12 5 9 10 -3 6 -10 10 -16 10 -5
0 -9 -4 -9 -10z"/>
<path d="M1508 1829 c-2 -4 -18 -10 -37 -14 -23 -5 -31 -4 -27 4 8 12 -9 13
-39 2 -16 -7 -14 -9 14 -14 18 -4 45 -4 59 0 24 6 25 4 14 -10 -12 -14 -11
-15 12 -4 17 8 21 14 13 20 -7 5 1 7 19 5 22 -3 30 0 27 8 -4 12 -51 14 -55 3z"/>
<path d="M1600 1820 c8 -5 22 -10 30 -10 13 0 13 1 0 10 -8 5 -22 10 -30 10
-13 0 -13 -1 0 -10z"/>
<path d="M1310 1800 c-8 -5 -26 -10 -40 -10 -25 -1 -25 -1 -2 -10 12 -5 22
-16 22 -24 0 -8 3 -16 8 -18 4 -1 18 -27 32 -57 18 -40 22 -55 12 -59 -19 -6
-14 -22 8 -22 11 0 20 5 20 10 0 6 8 10 18 11 13 0 12 2 -5 9 -27 11 -30 35
-5 50 14 10 13 11 -10 7 -23 -3 -29 1 -37 26 -6 16 -9 33 -6 37 2 4 33 13 67
20 59 12 61 13 33 21 -38 11 -103 1 -83 -13 10 -7 8 -8 -5 -4 -10 3 -24 6 -30
7 -7 0 4 7 23 14 23 9 28 14 15 14 -11 0 -27 -4 -35 -9z"/>
<path d="M1708 1798 l34 -11 -29 -13 -28 -12 30 -1 c17 0 55 6 85 13 l55 13
-45 6 c-25 3 -65 8 -90 11 -44 6 -44 5 -12 -6z"/>
<path d="M1010 1793 c0 -5 6 -15 13 -22 10 -10 7 -10 -16 -2 -38 15 -46 13
-23 -4 23 -18 17 -19 -20 -5 -23 9 -101 4 -91 -6 14 -14 108 -21 150 -11 37 8
50 8 60 -3 10 -10 6 -12 -21 -6 -19 3 -31 2 -27 -3 3 -5 -1 -12 -7 -15 -7 -3
7 -4 32 -2 25 2 37 2 28 -1 -10 -2 -18 -9 -18 -14 0 -6 8 -8 18 -5 9 3 51 13
92 23 54 12 67 18 48 21 -16 2 -28 8 -28 13 0 5 -12 6 -26 3 -19 -5 -25 -4
-20 5 9 14 -6 14 -37 0 -19 -8 -30 -8 -43 1 -13 8 -14 10 -3 7 9 -3 22 -2 29
3 8 5 1 10 -21 15 -19 3 -42 9 -51 11 -10 3 -18 1 -18 -3z m153 -70 c-7 -2
-19 -2 -25 0 -7 3 -2 5 12 5 14 0 19 -2 13 -5z"/>
<path d="M1595 1789 c-19 -9 -19 -9 2 -5 15 2 23 -2 26 -15 3 -11 0 -19 -6
-19 -9 0 -9 -2 -1 -8 7 -4 14 -16 17 -27 3 -11 5 1 4 27 -1 27 2 50 8 52 5 3
1 4 -10 5 -11 0 -29 -5 -40 -10z"/>
<path d="M1980 1780 c0 -5 10 -10 23 -10 18 0 19 2 7 10 -19 13 -30 13 -30 0z"/>
<path d="M1225 1770 c11 -5 29 -8 40 -8 16 0 15 2 -5 8 -34 11 -60 11 -35 0z"/>
<path d="M1538 1773 c6 -2 18 -2 25 0 6 3 1 5 -13 5 -14 0 -19 -2 -12 -5z"/>
<path d="M1900 1772 c0 -5 -23 -15 -50 -22 -52 -12 -76 -30 -41 -30 11 0 22 4
25 9 3 5 17 11 31 13 18 4 25 1 25 -11 0 -26 -13 -38 -50 -50 l-35 -11 38 6
c32 4 37 2 37 -15 0 -11 -8 -25 -17 -30 -10 -6 -12 -11 -5 -11 6 0 12 -8 12
-19 0 -24 31 -52 37 -33 3 6 14 13 26 13 13 1 7 4 -13 8 -45 8 -56 41 -13 41
15 0 35 5 43 10 10 6 3 8 -22 3 -36 -5 -38 -4 -38 21 0 14 4 26 8 26 5 0 7 13
4 29 -4 27 0 31 29 40 19 5 26 10 17 10 -9 1 -23 4 -32 7 -9 3 -16 2 -16 -4z"/>
<path d="M2298 1773 c7 -3 16 -2 19 1 4 3 -2 6 -13 5 -11 0 -14 -3 -6 -6z"/>
<path d="M1500 1748 c8 -23 7 -28 -5 -28 -8 0 -15 9 -15 20 0 14 -6 20 -22 19
-17 -1 -19 -2 -5 -6 14 -4 17 -17 19 -76 1 -56 2 -61 5 -24 3 39 8 47 24 47
10 0 19 5 19 10 0 6 8 10 18 11 13 0 14 2 2 6 -8 3 -23 15 -33 27 -17 21 -17
21 -7 -6z"/>
<path d="M2339 1762 c11 -8 10 -11 -5 -14 -10 -2 13 -4 53 -3 80 0 77 9 -7 19
-36 5 -50 4 -41 -2z"/>
<path d="M1656 1744 c-3 -9 -6 -24 -6 -35 0 -11 -7 -19 -17 -20 -14 0 -13 -2
5 -9 33 -14 29 -42 -5 -38 -20 2 -28 8 -27 21 1 9 -5 17 -12 17 -11 0 -12 -5
-5 -18 15 -28 37 -44 58 -40 13 2 19 -4 21 -24 2 -16 8 -28 13 -28 5 0 7 10 4
23 -11 49 -13 97 -4 97 6 0 3 7 -5 16 -19 19 -20 26 -4 42 8 8 8 12 1 12 -6 0
-14 -7 -17 -16z"/>
<path d="M1370 1741 l-25 -7 25 -7 c13 -3 27 -3 30 2 3 4 12 11 20 14 22 8
-19 7 -50 -2z"/>
<path d="M913 1724 c25 -8 21 -21 -8 -28 -17 -4 -25 -14 -26 -29 l0 -22 -9 23
c-8 17 -15 21 -36 18 -38 -7 -40 -14 -8 -22 52 -12 74 -43 32 -45 -17 -1 -19
-2 -5 -6 20 -5 23 -39 5 -46 -10 -4 -10 -6 0 -6 8 -1 12 -18 13 -48 0 -53 17
-109 18 -64 1 13 9 29 18 36 15 11 15 17 -1 84 -9 39 -15 75 -12 80 3 5 30 13
59 17 45 6 49 8 27 15 -15 5 -4 6 29 3 61 -7 64 9 4 21 -21 5 -42 10 -48 11
-5 2 -23 6 -40 8 -16 3 -22 3 -12 0z m-14 -204 l-1 -25 -8 25 c-4 14 -8 32 -9
40 -1 13 0 13 9 0 5 -8 9 -26 9 -40z"/>
<path d="M1267 1712 c14 -9 21 -38 23 -102 1 -25 4 -38 7 -30 3 8 11 18 17 22
8 5 7 8 -1 8 -9 0 -13 15 -13 43 0 42 -13 67 -34 67 -6 0 -6 -4 1 -8z"/>
<path d="M2440 1710 c-13 -9 -13 -10 0 -10 8 0 22 5 30 10 13 9 13 10 0 10 -8
0 -22 -5 -30 -10z"/>
<path d="M1205 1700 c-16 -7 -12 -9 18 -9 23 -1 36 3 32 9 -7 12 -23 12 -50 0z"/>
<path d="M1780 1692 c0 -11 -5 -24 -11 -28 -8 -5 -7 -9 1 -14 17 -11 4 -44
-15 -37 -9 4 -12 1 -8 -9 3 -9 12 -12 25 -8 11 3 18 2 15 -3 -3 -5 -1 -24 3
-43 7 -25 8 -8 5 59 -2 51 -6 96 -9 99 -3 3 -6 -4 -6 -16z"/>
<path d="M2345 1690 c-4 -6 9 -10 32 -9 30 0 34 2 18 9 -27 12 -43 12 -50 0z"/>
<path d="M1138 1683 c6 -2 18 -2 25 0 6 3 1 5 -13 5 -14 0 -19 -2 -12 -5z"/>
<path d="M1521 1678 c-1 -10 -8 -18 -16 -18 -8 0 -15 -8 -15 -18 0 -15 6 -17
36 -14 25 3 32 7 23 13 -12 8 -11 11 1 19 13 8 13 10 -2 10 -9 0 -19 6 -21 13
-3 7 -6 5 -6 -5z"/>
<path d="M1080 1670 c-24 -15 -7 -18 20 -3 14 7 18 13 10 13 -8 0 -22 -4 -30
-10z"/>
<path d="M10 1651 c10 -7 11 -11 3 -11 -7 0 -13 -11 -13 -25 0 -24 18 -33 34
-17 8 8 14 9 51 11 38 2 30 16 -16 30 -23 7 -48 15 -58 18 -14 4 -14 3 -1 -6z"/>
<path d="M935 1640 c-30 -8 -30 -8 8 -9 20 0 37 4 37 9 0 11 -2 11 -45 0z"/>
<path d="M1185 1640 c-3 -5 3 -10 15 -10 12 0 18 5 15 10 -3 6 -10 10 -15 10
-5 0 -12 -4 -15 -10z"/>
<path d="M1698 1643 c7 -3 16 -2 19 1 4 3 -2 6 -13 5 -11 0 -14 -3 -6 -6z"/>
<path d="M1058 1622 c-3 -11 -2 -25 2 -32 5 -8 9 -5 12 8 3 11 2 25 -2 32 -5
8 -9 5 -12 -8z"/>
<path d="M2425 1634 c-5 -2 -30 -8 -55 -15 -41 -11 -43 -13 -20 -20 39 -11 50
-10 50 5 0 7 9 16 20 19 13 3 20 0 20 -10 0 -8 5 -11 10 -8 25 16 6 38 -25 29z"/>
<path d="M496 1622 c-6 -11 -51 -22 -111 -29 -22 -2 -44 -9 -50 -15 -7 -7 -3
-8 13 -3 13 4 35 0 54 -9 17 -9 45 -16 62 -17 26 0 28 -2 11 -9 -18 -8 -18 -9
-2 -9 11 -1 15 -6 11 -12 -3 -6 -6 -36 -5 -66 1 -47 -2 -54 -17 -51 -12 2 -17
13 -18 35 0 18 -3 36 -7 39 -4 4 -4 18 -1 30 5 18 2 24 -10 24 -9 0 -16 -5
-16 -11 0 -5 -4 -8 -9 -5 -4 3 0 -20 11 -52 10 -31 16 -62 14 -69 -3 -7 -2
-13 3 -13 5 0 12 -16 15 -35 4 -20 11 -33 16 -30 6 3 5 16 0 31 -12 30 -12 37
-2 31 4 -3 23 4 42 14 20 11 28 19 17 19 -15 0 -17 10 -17 73 0 70 1 74 26 86
15 6 35 9 45 6 11 -4 19 -4 19 -1 0 3 -15 10 -32 16 -33 10 -33 10 7 5 l40 -4
-30 13 c-49 22 -73 27 -79 18z"/>
<path d="M135 1610 c-3 -4 -22 -11 -42 -14 -78 -14 -93 -18 -93 -27 0 -5 8 -9
17 -9 15 0 14 -2 -3 -16 -17 -14 -17 -15 -1 -10 10 3 25 0 32 -8 12 -12 10
-15 -15 -20 -47 -9 -36 -27 13 -21 31 4 37 3 22 -4 -11 -5 -30 -10 -42 -10
-13 -1 -23 -5 -23 -11 0 -10 44 -5 94 11 15 5 32 6 37 3 5 -3 9 0 9 5 0 6 -8
11 -17 11 -10 0 -25 5 -33 10 -11 7 -5 8 19 3 25 -4 32 -3 27 5 -4 7 -17 12
-30 12 -12 0 -31 7 -42 15 -19 14 -19 14 1 16 19 2 28 3 50 9 11 3 36 6 78 8
31 2 38 22 7 22 -11 0 -20 4 -20 9 0 12 -39 21 -45 11z"/>
<path d="M1541 1604 c0 -11 3 -14 6 -6 3 7 2 16 -1 19 -3 4 -6 -2 -5 -13z"/>
<path d="M970 1590 c-12 -8 -11 -10 8 -10 12 0 22 5 22 10 0 13 -11 13 -30 0z"/>
<path d="M248 1563 c-7 -10 -29 -19 -48 -21 -57 -4 -63 -9 -41 -31 16 -16 28
-19 57 -14 27 4 35 3 30 -5 -4 -7 -2 -12 3 -12 15 0 14 -27 -1 -33 -8 -3 -5
-6 5 -6 10 -1 15 -5 12 -11 -3 -5 -2 -10 3 -10 6 0 15 -14 21 -30 6 -19 6 -28
1 -25 -6 4 -17 -1 -26 -9 -14 -15 -14 -16 3 -17 23 -2 21 -2 68 16 l40 15 -34
-2 c-33 -3 -34 -2 -57 66 -13 38 -22 71 -20 74 2 2 26 10 53 17 26 7 40 14 31
14 -9 1 -23 7 -30 15 -25 24 -55 28 -70 9z"/>
<path d="M1188 1573 c7 -3 16 -2 19 1 4 3 -2 6 -13 5 -11 0 -14 -3 -6 -6z"/>
<path d="M1050 1556 c0 -8 -17 -19 -37 -25 l-38 -10 39 5 c33 5 38 3 32 -11
-3 -9 -2 -13 4 -10 6 3 10 12 10 20 0 7 6 16 13 18 9 4 9 6 -1 6 -7 1 -10 6
-7 11 3 6 1 10 -4 10 -6 0 -11 -6 -11 -14z"/>
<path d="M558 1553 c7 -3 16 -2 19 1 4 3 -2 6 -13 5 -11 0 -14 -3 -6 -6z"/>
<path d="M1118 1553 c7 -3 16 -2 19 1 4 3 -2 6 -13 5 -11 0 -14 -3 -6 -6z"/>
<path d="M747 1543 c-9 -2 -15 -9 -12 -14 10 -15 32 -10 32 6 0 8 -1 14 -1 14
-1 -1 -9 -3 -19 -6z"/>
<path d="M1960 1541 c0 -5 9 -7 20 -4 11 3 20 7 20 9 0 2 -9 4 -20 4 -11 0
-20 -4 -20 -9z"/>
<path d="M2560 1524 c-62 -20 -82 -23 -115 -15 -81 20 -88 20 -104 4 -15 -15
-13 -16 16 -10 21 4 33 2 37 -6 3 -8 7 -9 13 -1 4 6 19 8 33 4 21 -5 17 -8
-30 -19 -70 -17 -95 -30 -58 -31 15 0 75 15 133 34 58 19 119 37 135 41 17 4
30 11 30 16 0 12 -1 11 -90 -17z"/>
<path d="M1328 1533 c7 -3 16 -2 19 1 4 3 -2 6 -13 5 -11 0 -14 -3 -6 -6z"/>
<path d="M1565 1510 c3 -5 11 -10 16 -10 6 0 7 5 4 10 -3 6 -11 10 -16 10 -6
0 -7 -4 -4 -10z"/>
<path d="M2598 1503 c7 -3 16 -2 19 1 4 3 -2 6 -13 5 -11 0 -14 -3 -6 -6z"/>
<path d="M288 1493 c7 -3 16 -2 19 1 4 3 -2 6 -13 5 -11 0 -14 -3 -6 -6z"/>
<path d="M532 1491 c-11 -7 -11 -9 0 -13 7 -3 19 1 26 8 10 11 10 14 0 14 -7
0 -19 -4 -26 -9z"/>
<path d="M1876 1493 c-4 -5 -26 -13 -49 -20 l-42 -11 50 1 c44 2 75 14 75 31
0 9 -25 7 -34 -1z"/>
<path d="M160 1438 c0 -31 -4 -38 -19 -38 -33 0 -34 -20 -2 -26 17 -4 31 -13
31 -21 0 -11 3 -11 14 -1 9 8 10 15 3 19 -5 4 -7 14 -4 23 4 9 2 16 -3 16 -6
0 -10 11 -10 25 0 18 5 25 19 25 11 0 22 4 26 10 3 5 -7 8 -25 7 -28 -2 -30
-5 -30 -39z"/>
<path d="M1710 1456 c-6 -6 -30 -17 -53 -23 l-42 -13 43 5 c28 4 41 2 37 -5
-3 -5 -1 -10 4 -10 6 0 11 5 11 11 0 5 5 7 11 3 8 -4 9 1 4 17 -4 17 -3 20 3
10 7 -9 15 -11 27 -4 15 9 14 11 -8 15 -14 3 -31 0 -37 -6z"/>
<path d="M108 1453 c6 -2 18 -2 25 0 6 3 1 5 -13 5 -14 0 -19 -2 -12 -5z"/>
<path d="M68 1443 c7 -3 16 -2 19 1 4 3 -2 6 -13 5 -11 0 -14 -3 -6 -6z"/>
<path d="M1440 1440 c0 -5 6 -10 14 -10 8 0 18 5 21 10 3 6 -3 10 -14 10 -12
0 -21 -4 -21 -10z"/>
<path d="M0 1422 c0 -11 6 -32 14 -48 27 -57 28 -70 4 -82 -23 -11 -23 -11 3
-11 15 -1 40 6 55 14 26 13 27 15 7 15 -15 0 -28 11 -39 32 -26 50 -34 86 -21
92 7 2 4 5 -5 5 -11 1 -18 -6 -18 -17z"/>
<path d="M305 1430 c3 -5 10 -10 16 -10 5 0 9 5 9 10 0 6 -7 10 -16 10 -8 0
-12 -4 -9 -10z"/>
<path d="M1775 1420 c-27 -10 -43 -19 -35 -20 8 -1 33 -3 55 -6 47 -5 68 6 59
29 -7 20 -14 20 -79 -3z"/>
<path d="M1871 1418 c12 -22 23 -23 38 -4 9 11 6 14 -18 18 -26 4 -29 2 -20
-14z"/>
<path d="M1540 1414 c0 -8 -8 -14 -17 -14 -10 0 -25 -5 -33 -10 -11 -7 -5 -9
23 -8 20 1 37 5 37 10 0 4 12 8 26 8 31 0 24 16 -11 22 -17 4 -25 1 -25 -8z"/>
<path d="M1623 1386 c-38 -14 -59 -32 -25 -21 17 5 27 2 36 -10 10 -14 17 -15
32 -7 22 12 104 26 104 18 0 -3 -21 -11 -47 -18 -43 -11 -45 -13 -23 -19 20
-6 21 -7 5 -8 -11 -1 -35 3 -53 8 -17 5 -32 6 -32 1 0 -7 -75 -30 -101 -30 -9
0 -9 4 1 15 6 8 9 19 5 25 -3 5 2 10 12 11 13 1 11 3 -7 9 -35 11 -52 12 -45
0 3 -5 -13 -14 -35 -20 -47 -13 -54 -22 -8 -13 22 4 29 3 24 -5 -4 -7 13 -17
50 -28 56 -16 58 -16 183 15 69 17 137 34 151 38 19 5 -1 12 -80 29 -58 13
-107 23 -110 22 -3 0 -19 -6 -37 -12z"/>
<path d="M1366 1376 c4 -10 -7 -17 -38 -25 l-43 -10 37 2 c21 2 39 -1 40 -5 2
-5 12 -2 23 6 16 12 17 16 6 30 -17 20 -32 21 -25 2z"/>
<path d="M388 1373 c7 -3 16 -2 19 1 4 3 -2 6 -13 5 -11 0 -14 -3 -6 -6z"/>
<path d="M1410 1370 c0 -6 11 -9 25 -7 37 5 42 17 7 17 -18 0 -32 -5 -32 -10z"/>
<path d="M2548 1373 c6 -2 18 -2 25 0 6 3 1 5 -13 5 -14 0 -19 -2 -12 -5z"/>
<path d="M1212 1339 c2 -9 -17 -19 -57 -29 -60 -15 -60 -15 -21 -18 21 -2 42
2 46 8 4 6 14 8 22 5 9 -4 19 -2 23 4 3 6 15 11 26 11 10 0 19 5 19 10 0 6 -6
10 -14 10 -8 0 -22 3 -31 6 -10 4 -15 2 -13 -7z"/>
<path d="M1550 1340 c-8 -5 -12 -11 -9 -15 9 -8 69 7 63 16 -7 12 -35 11 -54
-1z"/>
<path d="M208 1333 c7 -3 16 -2 19 1 4 3 -2 6 -13 5 -11 0 -14 -3 -6 -6z"/>
<path d="M168 1323 c7 -3 16 -2 19 1 4 3 -2 6 -13 5 -11 0 -14 -3 -6 -6z"/>
<path d="M995 1320 c-3 -5 -1 -10 4 -10 6 0 11 5 11 10 0 6 -2 10 -4 10 -3 0
-8 -4 -11 -10z"/>
<path d="M118 1313 c6 -2 18 -2 25 0 6 3 1 5 -13 5 -14 0 -19 -2 -12 -5z"/>
<path d="M1318 1315 c-11 -12 -153 -46 -171 -41 -11 3 -17 0 -14 -7 2 -7 16
-12 31 -13 29 -1 50 -14 23 -14 -9 0 -17 -5 -17 -11 0 -9 57 -4 69 7 8 7 -12
24 -32 25 -27 1 31 19 83 25 l35 4 -32 -15 c-45 -21 -41 -29 10 -21 54 9 107
28 107 38 0 14 -33 23 -38 10 -2 -7 -13 -12 -25 -12 -20 0 -20 0 -1 15 19 14
19 14 -2 15 -11 0 -23 -2 -26 -5z"/>
<path d="M925 1300 c-3 -5 -2 -10 4 -10 5 0 13 5 16 10 3 6 2 10 -4 10 -5 0
-13 -4 -16 -10z"/>
<path d="M841 1291 c-8 -5 -9 -11 -3 -15 5 -3 15 1 22 9 14 16 3 20 -19 6z"/>
<path d="M1010 1291 c13 -9 13 -10 0 -15 -8 -2 -28 -9 -45 -15 l-30 -11 33 5
c17 2 32 0 32 -5 0 -6 10 -6 26 0 14 6 37 10 52 9 24 -1 22 -3 -13 -15 -36
-13 -37 -14 -8 -9 20 3 32 0 30 -6 -1 -6 13 -12 31 -14 17 -1 32 1 32 6 0 5
-6 9 -14 9 -8 0 -17 11 -20 25 -6 25 -13 27 -86 39 -24 4 -30 3 -20 -3z"/>
<path d="M1435 1292 c17 -8 11 -12 -34 -26 -30 -9 -62 -16 -70 -17 -9 0 -2 -5
14 -10 31 -10 195 16 195 31 0 4 -17 10 -37 14 -21 3 -49 8 -63 11 -21 5 -22
4 -5 -3z"/>
<path d="M840 1246 c0 -9 -20 -19 -52 -26 -29 -7 -60 -16 -68 -21 -20 -12 69
1 93 13 11 5 17 5 17 -2 0 -14 16 -13 32 3 7 7 22 17 33 21 19 8 19 9 -5 16
-39 12 -50 11 -50 -4z"/>
<path d="M636 1241 c-11 -4 -15 -10 -10 -13 5 -4 18 0 29 8 20 15 12 17 -19 5z"/>
<path d="M1200 1215 c-65 -22 -65 -22 -30 -27 38 -6 160 21 160 35 0 5 -7 7
-15 4 -8 -4 -17 -2 -20 3 -8 13 -18 12 -95 -15z"/>
<path d="M937 1216 c-9 -7 -35 -16 -57 -20 -22 -3 -40 -11 -40 -16 0 -13 10
-13 60 5 46 16 68 19 56 8 -4 -5 -11 -9 -14 -9 -25 -5 -52 -17 -52 -23 0 -18
16 -17 97 6 47 13 87 22 90 20 2 -3 -31 -15 -73 -28 -71 -21 -75 -24 -48 -31
26 -7 153 20 191 41 7 3 -23 16 -67 27 -43 11 -77 17 -74 13 2 -4 -3 -10 -12
-13 -24 -9 -28 -7 -15 7 21 26 -11 36 -42 13z m90 -72 c-3 -3 -12 -4 -19 -1
-8 3 -5 6 6 6 11 1 17 -2 13 -5z"/>
<path d="M638 1190 c-2 -6 -30 -18 -63 -26 -65 -17 -105 -41 -48 -29 18 3 52
8 77 9 50 3 90 31 65 47 -18 12 -27 11 -31 -1z"/>
<path d="M736 1162 c-3 -5 -30 -14 -61 -21 -53 -12 -81 -38 -30 -29 14 3 25 1
25 -3 0 -13 72 -11 102 3 24 12 25 14 11 35 -15 23 -37 30 -47 15z m-11 -32
c-11 -5 -27 -9 -35 -9 -9 0 -8 4 5 9 11 5 27 9 35 9 9 0 8 -4 -5 -9z"/>
<path d="M801 1144 c6 -8 26 -14 43 -14 40 -1 19 -13 -49 -29 -65 -15 -92 -31
-48 -28 18 1 33 6 33 11 0 4 11 6 25 4 15 -3 22 -1 18 5 -4 6 4 7 21 3 19 -5
26 -3 21 4 -4 7 2 9 19 4 19 -4 26 -2 26 9 0 10 -20 20 -60 30 -51 12 -59 13
-49 1z"/>
<path d="M416 1135 c4 -8 1 -15 -4 -15 -18 0 -65 -20 -60 -26 3 -2 17 0 31 5
18 7 27 7 31 -2 3 -9 7 -8 15 3 10 13 11 13 11 0 1 -12 3 -11 11 3 5 9 18 17
27 17 14 1 15 2 2 9 -8 5 -27 11 -42 15 -22 5 -26 3 -22 -9z"/>
<path d="M515 1111 c17 -7 13 -11 -28 -21 -26 -7 -50 -16 -53 -21 -8 -13 12
-11 53 6 20 8 38 13 41 11 9 -9 -10 -26 -29 -26 -11 0 -17 -4 -14 -10 8 -12
49 -13 73 -1 9 5 31 14 47 21 28 11 28 13 10 21 -28 11 -37 11 -30 -1 3 -6 -4
-10 -17 -10 -18 0 -20 2 -8 10 19 12 11 19 -31 25 -25 4 -29 3 -14 -4z"/>
<path d="M928 1113 c7 -3 16 -2 19 1 4 3 -2 6 -13 5 -11 0 -14 -3 -6 -6z"/>
<path d="M180 1083 c0 -5 9 -19 20 -31 16 -17 28 -21 48 -16 38 9 38 11 -5 24
-21 7 -44 17 -50 23 -8 5 -13 6 -13 0z"/>
<path d="M85 1070 c-3 -5 -1 -10 4 -10 6 0 11 5 11 10 0 6 -2 10 -4 10 -3 0
-8 -4 -11 -10z"/>
<path d="M263 1069 c12 -7 27 -7 45 0 25 9 24 9 -18 10 -36 0 -41 -2 -27 -10z"/>
<path d="M650 1071 c0 -6 -19 -16 -42 -22 -24 -7 -47 -17 -53 -22 -6 -6 -1 -7
15 -2 14 4 39 9 55 10 17 2 32 4 35 5 10 4 25 7 45 9 16 1 17 3 5 10 -28 16
-60 23 -60 12z"/>
<path d="M95 1038 c-94 -30 -107 -37 -65 -36 19 0 42 -3 51 -6 10 -4 20 -3 24
3 3 6 -2 11 -12 11 -14 0 -15 2 -4 9 7 5 28 5 47 1 19 -4 34 -4 34 0 0 5 10 6
22 2 l21 -5 -21 21 c-25 25 -19 25 -97 0z"/>
<path d="M315 1050 c3 -5 14 -10 23 -10 15 0 15 2 2 10 -20 13 -33 13 -25 0z"/>
<path d="M235 1018 l-50 -19 45 5 c39 4 43 3 27 -9 -16 -12 -16 -13 9 -19 14
-4 32 -2 38 3 7 6 16 7 21 3 4 -4 4 4 0 18 -6 20 -5 23 6 13 7 -7 24 -13 39
-12 22 1 21 3 -15 20 -48 22 -55 22 -120 -3z"/>
<path d="M428 1029 c12 -7 22 -16 22 -21 0 -4 15 -8 33 -8 27 1 29 2 14 11 -9
5 -22 7 -29 3 -7 -4 -8 -3 -4 4 4 7 1 12 -8 12 -8 0 -23 2 -33 5 -11 3 -9 1 5
-6z"/>
<path d="M762 1011 c-80 -26 -83 -28 -58 -39 22 -10 35 -8 79 8 28 11 60 20
70 20 9 0 17 5 17 10 0 6 -5 10 -11 10 -5 0 -7 5 -4 10 9 14 2 12 -93 -19z"/>
<path d="M835 959 c-258 -83 -463 -148 -692 -219 -73 -22 -135 -46 -139 -52
-5 -8 0 -9 17 -4 13 3 47 11 74 17 28 6 90 25 140 42 50 17 268 91 485 163
217 73 388 132 380 133 -8 0 -127 -36 -265 -80z"/>
<path d="M396 995 c-2 -7 -21 -16 -41 -19 -20 -4 -35 -10 -32 -12 8 -8 127 18
122 26 -9 14 -44 18 -49 5z"/>
<path d="M112 984 c-11 -12 -8 -14 25 -10 21 2 30 1 21 -1 -30 -7 -20 -23 15
-23 58 0 64 16 11 34 -57 19 -56 19 -72 0z"/>
<path d="M6 964 c-9 -24 32 -56 65 -50 15 2 35 8 44 14 15 8 14 10 -10 16 -21
5 -31 3 -37 -8 -7 -13 -12 -13 -22 -3 -9 8 -10 14 -4 18 6 4 2 11 -10 18 -16
8 -21 7 -26 -5z"/>
<path d="M240 951 c0 -5 -9 -13 -21 -16 -37 -12 -14 -14 30 -3 29 7 38 13 29
19 -17 12 -38 11 -38 0z"/>
<path d="M140 920 c0 -4 -12 -11 -26 -14 -15 -4 -24 -9 -22 -11 2 -3 24 1 49
8 37 11 41 14 22 19 -13 3 -23 3 -23 -2z"/>
<path d="M10 891 c10 -7 11 -11 3 -11 -7 0 -13 -4 -13 -9 0 -4 11 -6 25 -3 23
4 36 22 16 22 -5 0 -18 3 -28 6 -15 5 -15 4 -3 -5z"/>
<path d="M870 893 c-22 -6 -70 -80 -64 -98 9 -22 31 -18 39 8 l8 22 4 -22 c5
-26 23 -31 23 -8 0 17 17 20 22 4 2 -7 12 -7 31 2 18 8 23 15 16 20 -6 4 -8
12 -4 19 5 8 12 7 26 -6 13 -12 23 -14 30 -7 6 6 -9 16 -46 28 -30 11 -55 25
-55 32 0 13 -4 14 -30 6z m40 -43 c0 -5 -7 -10 -16 -10 -8 0 -13 -4 -10 -9 4
-5 -4 -7 -15 -4 -20 6 -20 7 7 19 16 7 30 13 32 13 1 1 2 -3 2 -9z"/>
<path d="M800 868 c-14 -6 -38 -18 -55 -25 -16 -8 -71 -28 -121 -44 -50 -16
-103 -38 -117 -49 -18 -15 -27 -17 -30 -8 -4 9 -8 9 -14 3 -4 -5 -15 -11 -23
-13 -43 -8 -200 -66 -200 -73 0 -5 -8 -9 -18 -9 -33 0 -216 -66 -220 -80 -3
-9 2 -11 17 -7 18 4 20 3 10 -9 -10 -12 -9 -13 6 -8 14 6 16 4 10 -6 -6 -10
-4 -12 9 -7 9 4 15 3 12 -2 -6 -9 16 -21 37 -21 7 0 6 4 -3 10 -9 6 -10 10 -3
10 6 0 14 -4 18 -10 7 -11 -28 -34 -77 -50 -44 -13 -51 -40 -15 -58 98 -50
179 -70 161 -40 -4 7 -2 8 5 4 13 -9 78 11 87 26 4 6 2 8 -3 5 -6 -4 -16 0
-23 8 -13 16 -31 20 -29 8 3 -19 -2 -33 -11 -33 -5 0 -10 11 -10 24 0 29 -20
39 -36 18 -9 -13 -12 -13 -17 2 -4 9 -2 16 4 16 6 0 7 5 4 10 -13 22 24 20 75
-4 30 -14 57 -23 62 -20 4 3 17 -4 29 -15 l21 -19 -74 -23 c-86 -27 -117 -45
-128 -73 -9 -21 -9 -21 -9 -1 -1 15 -17 27 -62 47 -50 22 -58 24 -45 9 15 -16
15 -19 1 -24 -8 -4 -15 -11 -15 -17 0 -6 4 -9 9 -5 6 3 15 -4 22 -16 10 -19 9
-21 -5 -16 -14 6 -16 3 -10 -16 4 -12 11 -24 15 -25 5 -2 9 -12 9 -21 0 -28
35 -66 79 -85 45 -21 67 -52 28 -41 -29 9 42 -41 85 -59 26 -11 37 -11 80 6
28 10 53 17 56 14 2 -3 -8 -10 -24 -16 -60 -22 -60 -22 -34 -30 14 -5 62 -8
108 -9 64 -1 82 2 82 13 0 7 11 16 25 18 19 4 25 1 25 -13 0 -11 5 -19 10 -19
6 0 10 11 10 24 0 19 -10 28 -54 46 -44 18 -58 19 -76 10 -12 -6 -24 -9 -27
-6 -3 3 4 9 17 14 20 7 21 10 7 15 -10 4 -17 14 -17 23 0 17 -1 17 85 -1 24
-5 27 -4 13 5 -9 6 -15 16 -12 24 5 13 -72 50 -87 41 -4 -3 -10 4 -14 15 -3
11 -14 21 -23 22 -51 5 -57 7 -132 40 -24 11 -55 24 -67 29 -23 9 -30 24 -15
33 5 3 29 -1 54 -9 45 -13 53 -17 115 -49 38 -20 43 -20 43 -1 0 10 10 15 29
15 15 0 42 5 60 11 l32 11 -23 12 c-38 20 -89 36 -83 26 10 -17 -17 -22 -33
-6 -11 11 -12 16 -4 16 7 0 10 5 7 10 -11 18 23 22 57 6 96 -45 131 -49 186
-20 32 16 12 28 -53 30 -27 1 -79 4 -114 8 -57 5 -67 3 -87 -15 -17 -16 -22
-17 -27 -6 -3 8 5 25 19 38 l25 23 -23 13 c-15 8 -18 12 -8 13 12 0 15 11 13
48 l-3 47 19 -40 c11 -22 20 -48 20 -58 1 -20 3 -20 86 12 l50 19 -28 11 c-37
14 -37 14 -37 -10 0 -15 -4 -19 -16 -15 -9 3 -18 6 -20 6 -2 0 -4 11 -4 25 0
17 -8 29 -25 37 -30 14 -33 32 -4 23 16 -5 20 -3 17 6 -7 19 -30 15 -126 -21
-47 -18 -79 -36 -76 -42 4 -6 -1 -8 -15 -3 -12 4 -21 2 -21 -4 0 -6 -6 -11
-14 -11 -8 0 -21 -9 -29 -21 -11 -15 -16 -17 -20 -7 -3 8 -9 4 -15 -12 -10
-22 -11 -23 -11 -4 -1 34 50 72 140 103 l84 28 -53 23 c-28 12 -52 26 -52 31
0 11 3 11 36 -1 21 -8 29 -8 36 2 6 10 8 9 8 -3 0 -9 12 -21 26 -28 22 -10 43
-5 150 30 68 23 127 46 131 52 4 6 -2 8 -15 5 -13 -4 -23 0 -26 8 -8 21 -26
17 -26 -6 0 -11 -7 -20 -15 -20 -18 0 -20 36 -2 43 10 4 10 6 0 6 -7 1 -13 6
-13 12 0 10 53 4 75 -9 5 -3 16 -7 25 -8 8 -1 26 -5 40 -8 15 -4 9 2 -15 14
-22 11 -33 20 -25 20 8 0 28 -7 44 -15 26 -14 35 -13 97 7 50 16 66 25 58 32
-8 8 -13 7 -16 -1 -8 -21 -33 -15 -33 8 0 17 -5 20 -24 17 -18 -4 -22 -1 -19
11 3 12 14 16 42 13 33 -3 40 0 65 32 29 38 27 41 -14 24z m-165 -108 c-4 -7
2 -9 19 -4 20 5 26 2 26 -11 0 -12 -5 -15 -16 -11 -9 3 -27 9 -41 12 -18 5
-21 9 -11 15 18 12 30 11 23 -1z m80 -28 c-8 -9 -25 20 -18 31 3 5 10 2 15 -7
6 -10 7 -20 3 -24z m-255 -68 c0 -8 -4 -14 -10 -14 -5 0 -10 9 -10 21 0 11 5
17 10 14 6 -3 10 -13 10 -21z m-30 8 c0 -5 -13 -7 -30 -4 -16 2 -30 6 -30 8 0
2 14 4 30 4 17 0 30 -4 30 -8z m-20 -32 c0 -5 -7 -10 -15 -10 -8 0 -15 5 -15
10 0 6 7 10 15 10 8 0 15 -4 15 -10z m-223 -42 c-3 -8 -6 -5 -6 6 -1 11 2 17
5 13 3 -3 4 -12 1 -19z m-27 -23 c0 -28 -24 -34 -34 -9 -8 20 1 34 20 34 8 0
14 -10 14 -25z m-50 -22 c0 -12 -2 -12 -15 1 -8 8 -15 17 -15 20 0 3 7 3 15 0
8 -4 15 -13 15 -21z m187 -55 c-3 -7 -5 -2 -5 12 0 14 2 19 5 13 2 -7 2 -19 0
-25z m30 -10 c-3 -8 -6 -5 -6 6 -1 11 2 17 5 13 3 -3 4 -12 1 -19z m-110 -4
c-3 -3 -12 -4 -19 -1 -8 3 -5 6 6 6 11 1 17 -2 13 -5z m83 -14 c0 -5 -5 -10
-11 -10 -5 0 -7 5 -4 10 3 6 8 10 11 10 2 0 4 -4 4 -10z m-232 -49 c-15 -5
-21 7 -13 26 7 17 8 17 15 -2 4 -11 3 -22 -2 -24z m277 0 c-6 -5 -25 10 -25
20 0 5 6 4 14 -3 8 -7 12 -15 11 -17z m-68 -78 c0 -7 -5 -12 -11 -10 -15 5
-18 24 -3 24 8 0 14 -6 14 -14z m-192 -53 c-9 -30 -20 -24 -19 10 2 44 4 47
15 27 6 -9 7 -26 4 -37z m252 28 c-3 -8 -6 -5 -6 6 -1 11 2 17 5 13 3 -3 4
-12 1 -19z m-247 -78 c0 -5 -4 -10 -10 -10 -5 0 -10 5 -10 10 0 6 5 10 10 10
6 0 10 -4 10 -10z m173 -25 c8 -8 17 -12 19 -9 9 8 98 -30 98 -42 0 -32 -89
-13 -91 19 0 9 -2 9 -5 0 -4 -8 -17 -6 -46 7 -23 10 -47 16 -55 13 -13 -5 -18
9 -6 20 12 13 71 7 86 -8z m-166 -1 c-3 -3 -12 -4 -19 -1 -8 3 -5 6 6 6 11 1
17 -2 13 -5z m100 -66 c-3 -8 -6 -5 -6 6 -1 11 2 17 5 13 3 -3 4 -12 1 -19z
m-32 -8 c3 -5 1 -10 -4 -10 -6 0 -11 5 -11 10 0 6 2 10 4 10 3 0 8 -4 11 -10z
m90 -60 c3 -5 1 -10 -4 -10 -6 0 -11 5 -11 10 0 6 2 10 4 10 3 0 8 -4 11 -10z"/>
<path d="M149 841 c9 -6 1 -13 -30 -24 -24 -8 -36 -16 -27 -16 9 -1 19 -7 21
-13 4 -10 8 -10 15 1 5 7 23 14 39 15 16 2 35 6 42 10 17 11 -17 35 -49 36
-18 0 -21 -3 -11 -9z"/>
<path d="M1047 834 c-3 -3 -34 -17 -69 -29 -35 -13 -62 -28 -61 -33 1 -6 -13
-13 -32 -16 -19 -4 -35 -10 -35 -14 0 -5 -23 -25 -50 -46 -28 -21 -48 -41 -46
-44 3 -3 12 1 20 7 11 10 17 8 25 -6 6 -10 11 -12 11 -5 0 19 17 14 23 -8 6
-25 24 -26 30 -2 4 16 5 16 6 0 1 -20 20 -25 22 -5 1 6 1 29 0 50 -2 20 2 37
7 37 15 0 25 -37 18 -65 -5 -19 -3 -23 9 -19 8 4 15 14 15 23 0 14 2 14 11 1
8 -12 10 -9 6 12 -2 15 1 29 7 31 6 2 -6 9 -26 16 -50 17 -48 26 6 27 37 1 46
-3 51 -20 6 -19 8 -18 14 9 9 41 35 39 39 -2 4 -43 39 -47 45 -5 4 26 5 26 12
5 6 -19 10 -20 28 -10 41 23 44 30 28 49 -16 19 -37 25 -26 8 3 -5 1 -10 -4
-10 -6 0 -11 6 -11 13 0 8 -12 20 -27 27 -26 12 -27 13 -8 21 18 7 17 8 -6 8
-14 1 -28 -2 -32 -5z m-71 -69 c-11 -8 -22 -12 -25 -9 -6 6 19 24 34 24 6 -1
1 -7 -9 -15z m-103 -80 c3 -16 0 -24 -7 -22 -14 4 -21 47 -8 47 5 0 12 -11 15
-25z"/>
<path d="M20 812 c0 -5 7 -15 15 -22 8 -7 15 -8 15 -2 0 5 -7 15 -15 22 -8 7
-15 8 -15 2z"/>
<path d="M0 763 c0 -19 3 -24 9 -15 4 8 11 13 15 13 33 -5 38 1 12 14 -37 19
-36 20 -36 -12z"/>
<path d="M1260 758 c-14 -5 -43 -31 -65 -57 -22 -25 -31 -38 -19 -28 11 9 24
17 27 17 12 0 7 -28 -5 -33 -8 -3 -6 -6 5 -6 17 -1 22 -12 11 -24 -4 -3 -24 1
-46 10 -32 13 -42 13 -48 3 -5 -8 -9 -9 -14 -1 -4 6 -2 11 4 11 6 0 8 5 5 10
-3 6 2 10 12 10 10 0 31 14 46 30 16 17 26 30 22 30 -9 0 -49 -22 -55 -30 -3
-4 -47 -22 -98 -40 -95 -34 -121 -50 -80 -50 13 0 30 -5 38 -10 19 -12 6 -12
-43 -1 -33 8 -42 6 -67 -16 -29 -24 -43 -20 -17 6 10 10 7 11 -14 6 -16 -4
-30 -2 -33 4 -9 13 -26 15 -26 2 0 -5 9 -11 20 -14 13 -3 20 -13 19 -29 -2
-23 -2 -23 -6 0 -2 12 -8 22 -12 22 -4 0 -48 -16 -97 -36 -49 -19 -97 -37
-108 -39 -30 -7 -200 -78 -211 -88 -6 -6 3 -8 26 -4 20 3 41 2 45 -3 14 -12
84 -20 84 -9 0 5 -6 9 -12 9 -9 0 -8 3 2 10 9 6 17 5 21 -2 4 -7 13 -13 21
-14 7 -1 32 -7 55 -13 34 -9 48 -9 69 2 l27 14 -32 11 c-18 7 -31 7 -31 1 0
-5 -8 -9 -17 -8 -11 0 -13 3 -5 6 21 8 14 18 -23 32 -37 13 -49 37 -14 28 14
-4 19 -2 15 8 -4 11 13 25 30 25 10 0 3 -29 -8 -32 -8 -3 -4 -9 10 -17 14 -7
22 -8 22 -1 0 25 54 2 58 -25 2 -19 33 -17 69 5 19 11 57 25 84 31 46 10 57
24 34 41 -5 4 0 8 13 8 35 0 28 36 -10 50 -25 10 -29 14 -15 17 10 3 36 -2 57
-11 22 -9 46 -13 54 -10 9 3 23 -1 31 -10 14 -14 21 -13 73 12 31 15 58 30 60
34 2 4 10 4 19 1 11 -4 14 -2 11 8 -3 8 -1 22 4 32 5 10 5 25 -2 37 -18 34 13
24 32 -10 24 -43 58 -41 59 3 0 29 1 30 9 10 11 -27 13 -27 57 -11 31 11 45
28 23 28 -19 0 -120 42 -120 50 0 5 8 11 18 13 14 4 14 5 -3 5 -11 0 -31 -4
-45 -10z m47 -54 c-3 -3 -12 -4 -19 -1 -8 3 -5 6 6 6 11 1 17 -2 13 -5z m60
-20 c-3 -3 -12 -4 -19 -1 -8 3 -5 6 6 6 11 1 17 -2 13 -5z m-57 -20 c0 -8 -5
-12 -10 -9 -6 4 -8 11 -5 16 9 14 15 11 15 -7z m-250 -29 c0 -8 -6 -15 -14
-15 -17 0 -28 14 -19 24 12 12 33 6 33 -9z m-256 -91 c3 -8 2 -12 -4 -9 -6 3
-10 10 -10 16 0 14 7 11 14 -7z m-60 -23 c3 -5 -1 -11 -9 -15 -9 -3 -15 0 -15
9 0 16 16 20 24 6z m-43 -14 c-1 -12 -15 -9 -19 4 -3 6 1 10 8 8 6 -3 11 -8
11 -12z m179 0 c0 -12 -59 -47 -80 -47 -6 0 -8 10 -6 23 3 12 5 24 5 27 1 3 5
-1 10 -8 7 -12 13 -11 37 2 36 19 34 19 34 3z m-310 -47 c0 -5 -9 -10 -21 -10
-11 0 -17 5 -14 10 3 6 13 10 21 10 8 0 14 -4 14 -10z"/>
<path d="M745 719 c-33 -10 -68 -23 -78 -29 -10 -6 -22 -8 -27 -5 -5 3 -11 1
-14 -4 -4 -5 -42 -21 -86 -36 -47 -16 -80 -32 -80 -40 0 -7 -8 -16 -17 -18
-14 -4 -13 -5 4 -6 14 -1 23 -9 25 -22 2 -12 14 -26 27 -31 23 -8 23 -7 17 32
-5 31 -3 40 9 40 19 0 35 -31 35 -69 0 -33 -3 -33 105 5 45 16 47 18 27 27
-13 6 -22 19 -22 33 0 12 -3 29 -6 38 -4 11 -1 16 10 16 12 0 16 -9 16 -34 0
-19 5 -38 10 -41 6 -4 10 5 10 19 0 14 5 26 11 26 7 0 10 -12 7 -30 -3 -16 -1
-30 3 -30 14 0 74 29 60 30 -7 0 -11 6 -8 14 4 10 -5 18 -25 25 -17 6 -33 9
-35 7 -6 -6 -43 26 -43 37 0 4 5 5 10 2 6 -3 10 -1 10 4 0 6 5 11 11 11 5 0 8
-4 5 -9 -3 -5 1 -12 11 -15 19 -8 56 22 46 37 -4 6 0 8 8 5 8 -3 25 3 38 13
20 17 21 19 5 18 -11 -1 -46 -9 -79 -20z m-95 -102 c0 -31 -9 -38 -31 -26 -22
11 -25 35 -6 42 26 11 37 6 37 -16z m-103 7 c-3 -3 -12 -4 -19 -1 -8 3 -5 6 6
6 11 1 17 -2 13 -5z m40 -81 c-3 -10 -5 -4 -5 12 0 17 2 24 5 18 2 -7 2 -21 0
-30z m57 21 c20 -8 11 -24 -15 -24 -10 0 -19 7 -19 15 0 16 9 19 34 9z"/>
<path d="M990 678 c0 -18 2 -19 18 -7 9 7 18 14 20 15 1 1 -6 4 -18 7 -15 4
-20 0 -20 -15z"/>
<path d="M90 654 c-36 -13 -71 -27 -79 -29 -8 -3 -12 -8 -9 -10 2 -3 27 1 54
9 27 8 61 17 75 20 15 3 29 13 33 21 7 19 4 19 -74 -11z"/>
<path d="M2565 620 c-73 -34 -68 -39 6 -6 30 12 60 21 67 19 6 -3 12 0 12 6 0
17 -20 13 -85 -19z"/>
<path d="M1656 570 c-19 -6 -19 -7 -1 -13 20 -8 29 -4 24 11 -2 5 -13 6 -23 2z"/>
<path d="M2394 564 c-10 -8 -13 -12 -5 -8 7 3 17 1 21 -6 7 -11 11 -10 24 2
14 15 14 17 0 22 -20 8 -17 8 -40 -10z"/>
<path d="M982 534 c4 -22 26 -28 48 -15 18 12 13 17 -24 27 -24 6 -27 4 -24
-12z"/>
<path d="M1525 503 c-49 -19 -92 -37 -95 -40 -3 -3 3 -3 13 0 11 4 16 3 12 -3
-3 -6 -14 -10 -24 -10 -9 0 -26 -7 -37 -15 -25 -19 -35 -19 -27 2 4 11 3 14
-5 9 -15 -9 -16 -43 -2 -51 19 -12 10 -35 -12 -35 -23 -1 -23 -1 -3 -17 11 -9
14 -14 5 -11 -8 3 -41 14 -72 23 -31 10 -55 23 -51 28 3 5 -5 3 -18 -3 l-23
-13 24 -10 c84 -33 187 -67 202 -67 10 0 18 4 18 10 0 5 7 7 15 4 8 -4 15 -1
15 4 0 6 -9 14 -20 17 -33 10 -25 36 9 29 16 -4 32 -1 35 5 4 6 19 11 34 12
24 0 22 2 -13 15 -22 8 -48 13 -58 10 -11 -3 -16 -2 -13 1 3 3 -2 12 -12 19
-33 24 -6 22 97 -8 94 -28 105 -29 113 -14 5 9 17 16 26 16 10 1 3 9 -18 21
l-35 20 58 -6 c77 -9 73 8 -8 30 -71 19 -82 32 -35 37 27 3 29 4 13 14 -15 9
-37 4 -108 -23z m43 -34 c31 -12 28 -21 -5 -16 -63 11 -85 19 -71 28 13 8 28
6 76 -12z m-49 -20 c17 -6 31 -15 31 -20 0 -8 -66 14 -79 26 -8 8 15 5 48 -6z
m86 -33 c18 -13 18 -14 -8 -9 -15 3 -27 9 -27 14 0 13 13 11 35 -5z m-125 -46
c0 -5 -4 -10 -9 -10 -6 0 -13 5 -16 10 -3 6 1 10 9 10 9 0 16 -4 16 -10z"/>
<path d="M2347 529 c-9 -5 -21 -8 -26 -4 -14 8 -61 -16 -54 -28 3 -6 1 -7 -4
-4 -6 4 -37 -7 -69 -23 l-59 -29 38 0 c48 -1 49 -16 0 -17 -25 0 -42 -8 -55
-24 -15 -19 -21 -21 -28 -11 -6 11 -22 8 -79 -14 -40 -15 -70 -29 -68 -31 2
-3 16 0 31 6 40 15 23 -6 -22 -28 -20 -10 -44 -17 -54 -15 -9 2 -22 -4 -30
-14 -15 -21 -86 -56 -98 -48 -4 3 -11 0 -13 -5 -3 -6 -4 -5 -3 2 1 7 15 14 29
16 15 2 27 8 27 13 0 5 7 9 15 9 8 0 15 6 15 14 0 11 -11 9 -49 -9 -27 -13
-59 -22 -72 -19 -19 3 -20 3 -6 -4 15 -6 3 -15 -58 -41 -42 -19 -74 -38 -73
-43 4 -12 24 -9 21 2 -4 13 34 22 56 15 11 -3 22 -1 26 5 3 5 11 10 18 10 15
0 -14 -20 -76 -53 -32 -17 -44 -28 -36 -33 7 -4 15 -2 17 4 6 19 29 14 35 -8
7 -28 27 -25 27 5 0 18 4 23 15 19 11 -5 13 -2 9 10 -9 24 17 29 58 11 43 -17
77 -12 144 20 42 20 45 24 23 27 -17 2 -25 10 -28 28 -1 14 -8 28 -13 31 -18
11 1 30 20 20 9 -4 33 -11 52 -14 35 -6 35 -6 7 7 -15 7 -25 15 -21 18 7 7 81
-17 99 -32 13 -11 45 -3 45 10 0 5 -9 11 -19 15 -13 4 -17 12 -14 25 3 11 10
20 15 20 6 0 5 7 -2 15 -11 13 -11 18 0 28 8 8 11 8 7 1 -5 -8 7 -14 31 -18
20 -4 44 -9 53 -12 9 -2 19 1 22 9 4 10 -3 12 -24 9 -37 -5 -41 25 -4 34 38
10 58 -1 45 -25 -16 -30 -12 -43 13 -39 12 2 22 8 22 13 0 6 4 16 8 23 5 7 5
21 2 32 -4 11 -2 20 4 20 6 0 11 -5 11 -11 0 -6 6 -9 14 -6 8 3 29 2 45 -3 25
-7 31 -6 31 6 0 8 -4 12 -10 9 -13 -8 -133 26 -123 35 16 14 71 20 77 7 2 -7
5 -4 5 6 1 11 18 25 46 38 25 11 45 22 45 24 0 8 -14 5 -33 -6z m-323 -211
c-3 -4 -16 -8 -30 -8 -14 0 -22 4 -19 10 3 5 17 9 30 8 13 -1 21 -6 19 -10z
m-184 -92 c0 -31 -10 -37 -49 -30 -39 8 -39 17 2 36 45 21 47 21 47 -6z m-100
5 c0 -6 -4 -12 -8 -15 -5 -3 -9 1 -9 9 0 8 4 15 9 15 4 0 8 -4 8 -9z"/>
<path d="M2430 516 c0 -2 9 -6 20 -9 11 -3 18 -1 14 4 -5 9 -34 13 -34 5z"/>
<path d="M2604 505 c-14 -11 -15 -14 -4 -14 8 0 24 6 34 14 15 11 16 15 5 15
-8 0 -24 -7 -35 -15z"/>
<path d="M0 491 c0 -18 3 -19 31 -9 23 8 27 13 17 19 -24 15 -48 10 -48 -10z"/>
<path d="M2513 463 c-24 -13 -55 -26 -70 -29 -16 -3 -33 -10 -38 -17 -6 -7
-16 -13 -24 -15 -7 -2 -30 -12 -50 -23 -20 -11 -28 -18 -19 -15 10 3 24 -2 33
-10 16 -17 51 -11 40 6 -4 6 -11 8 -16 5 -5 -4 -14 -3 -21 1 -8 5 -3 10 15 15
35 9 79 -10 73 -33 -2 -10 2 -22 10 -29 11 -9 14 -6 14 19 0 21 -7 35 -20 42
-25 14 -26 30 -1 30 11 0 21 4 23 10 2 5 27 20 57 33 30 13 50 26 45 29 -5 2
-28 -6 -51 -19z"/>
<path d="M2580 466 c0 -7 -18 -21 -40 -31 -22 -10 -38 -20 -36 -22 2 -2 30 9
62 25 48 24 54 30 36 34 -14 4 -22 2 -22 -6z"/>
<path d="M1820 460 c-64 -20 -159 -70 -174 -91 -9 -13 -16 -18 -16 -12 0 6
-19 2 -46 -10 -41 -19 -43 -23 -25 -31 14 -6 24 -4 37 8 19 20 32 13 15 -8 -9
-11 -8 -15 4 -20 8 -3 15 -15 15 -26 0 -23 -5 -23 -89 10 -40 15 -43 18 -25
28 10 6 16 12 12 12 -7 0 -167 -75 -188 -90 -22 -14 -191 -90 -201 -90 -5 0
-9 -5 -9 -11 0 -5 -4 -8 -10 -4 -5 3 -17 -6 -27 -21 -14 -21 -18 -23 -22 -11
-5 15 -12 14 -55 -6 l-50 -23 57 -18 c34 -11 57 -24 57 -32 0 -16 16 -19 25
-4 3 5 19 7 35 3 23 -4 30 -2 30 11 0 9 7 17 15 17 8 1 20 3 25 4 6 1 13 3 18
4 4 1 0 6 -8 11 -8 5 -23 7 -32 4 -10 -3 -18 -1 -18 5 0 5 -9 13 -21 16 -32
11 -16 30 22 27 25 -2 40 3 53 17 11 12 14 21 8 21 -22 0 -12 18 13 22 14 3
25 4 25 2 0 -2 -14 -19 -31 -39 -18 -20 -28 -39 -25 -43 4 -4 12 1 17 11 12
21 29 22 29 3 0 -8 4 -18 10 -21 6 -3 7 1 4 9 -7 19 4 20 43 5 21 -8 30 -7 38
3 5 8 26 23 45 35 l34 22 -47 11 c-50 13 -55 36 -5 26 23 -5 34 -1 48 17 18
21 18 22 -3 34 -21 11 -21 12 -3 19 12 5 50 -3 100 -20 92 -30 86 -29 121 -16
23 9 24 12 13 30 -11 18 -10 23 5 31 9 6 15 14 12 20 -15 24 61 -1 77 -25 5
-7 8 -6 8 4 0 15 -33 33 -83 44 -15 4 -25 11 -22 16 8 13 52 13 60 0 3 -5 17
-10 30 -10 13 0 27 -4 30 -10 10 -16 25 -12 25 6 0 16 9 16 60 3 8 -2 15 3 16
11 0 8 2 21 2 28 2 14 38 16 47 2 8 -12 25 -13 25 -1 0 4 -20 14 -45 21 -62
17 -71 35 -15 26 24 -4 49 -10 55 -15 15 -11 71 -13 60 -2 -12 11 -122 43
-148 42 -9 0 -15 4 -12 10 4 5 5 9 3 8 -2 0 -14 -4 -28 -9z m-39 -61 c-17 -23
-20 -33 -11 -39 7 -5 2 -7 -14 -7 -15 0 -29 3 -32 8 -3 5 -14 9 -25 9 -10 0
-19 5 -19 10 0 13 16 13 42 -1 25 -13 35 -5 18 16 -11 13 -9 15 14 15 15 0 29
7 33 15 3 9 8 13 11 10 3 -3 -5 -19 -17 -36z m66 -45 c-4 -4 -7 -2 -7 4 0 7
-9 12 -19 12 -22 0 -35 15 -26 30 3 6 17 -1 33 -15 14 -13 23 -27 19 -31z
m-497 -207 c0 -33 -6 -36 -46 -24 -39 12 -43 24 -11 37 40 16 57 12 57 -13z"/>
<path d="M868 439 c-11 -6 -15 -16 -11 -27 6 -15 5 -16 -13 -2 -10 8 -15 10
-11 5 4 -5 -46 -28 -119 -53 -70 -24 -134 -51 -142 -60 -13 -16 -13 -16 -8 2
5 14 3 17 -11 11 -10 -4 -37 -14 -61 -22 -24 -8 -41 -17 -39 -19 2 -2 21 -11
43 -19 21 -9 28 -13 14 -10 -59 14 -98 17 -103 8 -4 -6 19 -16 51 -23 31 -8
59 -17 62 -20 6 -8 87 -40 99 -40 5 0 7 8 4 19 -4 17 -2 18 35 8 30 -8 47 -7
71 2 17 8 31 17 31 21 0 13 -128 52 -141 44 -7 -4 -9 -3 -5 4 3 5 1 12 -6 14
-6 2 -9 12 -5 21 5 14 9 15 36 1 23 -12 35 -13 51 -4 18 9 21 9 18 -5 -2 -11
9 -21 31 -31 l34 -14 44 45 c53 55 58 41 6 -16 l-38 -42 35 8 c19 4 44 11 55
15 18 7 19 9 3 15 -10 4 -18 13 -18 21 0 17 1 17 37 3 29 -11 102 -3 87 10 -5
4 -42 20 -83 36 -66 25 -72 29 -56 41 10 7 22 11 26 8 5 -3 9 1 9 8 0 10 2 10
8 1 5 -8 13 -9 22 -3 8 6 11 10 5 10 -5 0 -3 5 5 10 13 8 12 10 -2 10 -10 0
-18 5 -18 10 0 12 -10 12 -32 -1z m-128 -93 c0 -9 -7 -12 -21 -9 -16 4 -17 8
-7 14 19 13 28 11 28 -5z m65 -26 c-3 -5 -11 -10 -16 -10 -6 0 -7 5 -4 10 3 6
11 10 16 10 6 0 7 -4 4 -10z"/>
<path d="M2090 424 l-25 -15 25 7 c14 3 29 10 35 15 15 14 -7 10 -35 -7z"/>
<path d="M1306 421 c-19 -7 -19 -8 2 -13 15 -4 22 -2 22 8 0 8 -1 14 -2 13 -2
0 -12 -4 -22 -8z"/>
<path d="M790 410 c-8 -5 -10 -10 -5 -10 6 0 17 5 25 10 8 5 11 10 5 10 -5 0
-17 -5 -25 -10z"/>
<path d="M1240 392 c0 -4 15 -13 33 -20 50 -18 56 -14 12 8 -45 23 -45 23 -45
12z"/>
<path d="M1530 350 c-14 -11 -22 -20 -18 -20 14 0 58 23 58 32 0 13 -13 9 -40
-12z"/>
<path d="M2580 356 l-25 -14 28 -13 c33 -15 35 -29 5 -29 -18 0 -20 -2 -8 -9
8 -6 18 -7 24 -4 5 3 6 1 2 -6 -4 -6 -12 -8 -18 -5 -7 4 -8 2 -4 -5 4 -6 2
-18 -4 -26 -19 -23 6 -19 40 7 23 16 27 25 19 35 -8 9 -8 13 0 13 19 0 12 18
-10 25 -20 7 -21 32 0 28 6 -2 11 2 11 7 0 14 -30 12 -60 -4z"/>
<path d="M2275 350 c-3 -5 -3 -10 2 -10 22 -1 -26 -20 -49 -20 -16 0 -28 -5
-28 -11 0 -5 5 -7 12 -3 15 9 2 -14 -25 -43 -16 -18 -23 -20 -43 -11 -13 6
-21 14 -19 19 15 23 -61 -21 -78 -46 -12 -16 -24 -31 -28 -33 -3 -1 -15 -10
-25 -18 -18 -14 -18 -15 3 -5 35 17 43 13 43 -24 0 -19 -2 -35 -3 -35 -11 0
-122 41 -131 49 -7 6 -24 2 -46 -9 -28 -15 -31 -19 -14 -20 11 0 34 -6 50 -14
16 -8 40 -17 54 -20 21 -5 20 -4 -5 9 -39 18 -21 19 39 1 66 -20 76 -14 76 46
0 60 22 62 31 2 7 -45 11 -43 14 8 2 29 -2 37 -17 42 -11 2 -17 9 -13 15 3 6
11 9 16 5 6 -3 20 -7 32 -9 12 -1 33 -5 47 -7 14 -3 19 -3 13 -1 -7 3 -13 8
-13 13 0 10 40 1 58 -13 7 -5 15 -7 18 -4 10 10 -6 27 -27 27 -10 0 -19 6 -19
14 0 19 23 33 28 18 6 -19 22 -14 22 8 0 13 5 18 16 13 9 -3 13 -12 9 -21 -3
-8 0 -19 7 -24 10 -6 10 -8 1 -8 -7 0 -13 -5 -13 -10 0 -7 6 -7 20 0 11 6 20
19 20 30 0 16 5 19 33 15 20 -3 13 1 -20 12 -29 10 -53 21 -53 25 0 11 37 10
58 -1 9 -4 35 -11 57 -14 l40 -6 -42 15 c-24 9 -43 20 -43 26 0 6 -7 7 -16 4
-19 -7 -47 12 -38 25 3 5 3 9 0 9 -3 0 -8 -4 -11 -10z m-138 -106 c13 -4 21
-10 18 -14 -6 -10 -55 0 -55 11 0 10 7 11 37 3z"/>
<path d="M1113 340 c-13 -5 -23 -13 -23 -18 0 -5 -28 -20 -62 -33 -60 -22 -62
-23 -33 -30 17 -4 47 -14 68 -23 20 -9 37 -13 37 -9 0 4 5 2 12 -5 16 -16 50
-15 67 1 11 10 13 8 8 -10 -6 -26 6 -29 41 -10 22 12 18 15 -58 41 -74 26 -99
41 -88 52 3 2 31 -5 64 -16 68 -22 110 -25 141 -7 22 12 19 14 -45 39 -92 35
-104 38 -129 28z"/>
<path d="M1905 330 c-19 -8 -19 -9 3 -9 12 -1 22 4 22 9 0 6 -1 10 -2 9 -2 0
-12 -4 -23 -9z"/>
<path d="M2080 320 c0 -11 5 -20 10 -20 6 0 10 6 10 14 0 8 6 17 13 19 6 3 2
6 -10 6 -17 1 -23 -5 -23 -19z"/>
<path d="M2138 323 c7 -3 16 -2 19 1 4 3 -2 6 -13 5 -11 0 -14 -3 -6 -6z"/>
<path d="M2494 305 c-10 -8 -14 -14 -9 -14 6 0 19 6 29 14 11 8 15 15 10 15
-6 0 -19 -7 -30 -15z"/>
<path d="M2150 290 c-9 -6 -10 -10 -3 -10 6 0 15 5 18 10 8 12 4 12 -15 0z"/>
<path d="M2430 261 c-34 -18 -34 -19 -10 -22 18 -3 26 -11 28 -29 4 -28 22
-52 22 -29 0 10 3 11 8 2 5 -8 14 -4 30 14 14 16 17 23 7 19 -8 -3 -15 -1 -15
4 0 6 -7 10 -15 10 -8 0 -15 5 -15 11 0 8 16 9 48 6 41 -5 43 -5 15 4 -18 5
-35 14 -38 19 -9 14 -25 12 -65 -9z"/>
<path d="M1323 263 c-7 -2 -13 -12 -12 -21 0 -11 2 -12 6 -4 2 6 11 12 18 12
8 0 17 5 20 10 6 10 -11 12 -32 3z"/>
<path d="M1990 266 c0 -2 7 -6 15 -10 8 -3 15 -1 15 4 0 6 -7 10 -15 10 -8 0
-15 -2 -15 -4z"/>
<path d="M920 244 c-19 -8 -48 -27 -64 -42 -28 -26 -29 -25 -10 23 4 10 0 15
-10 15 -9 0 -15 -5 -13 -11 1 -6 -24 -20 -57 -31 -41 -14 -54 -23 -45 -29 24
-15 52 -10 76 13 17 16 22 18 18 6 -4 -9 -13 -19 -21 -22 -23 -9 -16 -23 16
-35 38 -13 40 -34 3 -25 -16 4 -39 11 -52 16 -13 5 -26 7 -28 5 -5 -6 171 -76
176 -71 3 2 -4 11 -15 20 -18 14 -15 14 31 10 38 -5 58 -1 85 13 27 15 31 21
19 26 -8 3 -28 1 -43 -5 -36 -13 -41 -13 -26 5 14 16 5 35 -16 35 -28 0 -77
31 -66 42 7 7 29 3 69 -12 67 -25 113 -33 113 -20 0 6 12 10 28 10 l27 -1 -27
-15 c-32 -17 -34 -20 -12 -28 8 -3 12 -2 9 4 -3 6 4 10 17 10 24 0 56 16 48
23 -14 13 -91 46 -135 57 -27 8 -52 17 -55 21 -3 4 -21 1 -40 -7z m37 -30 c-3
-3 -12 -4 -19 -1 -8 3 -5 6 6 6 11 1 17 -2 13 -5z"/>
<path d="M1275 240 c-3 -5 1 -10 9 -10 9 0 16 5 16 10 0 6 -4 10 -9 10 -6 0
-13 -4 -16 -10z"/>
<path d="M1930 242 c0 -18 19 -24 37 -13 10 6 13 11 6 11 -6 0 -18 3 -27 6 -9
3 -16 1 -16 -4z"/>
<path d="M2615 230 c-3 -5 -1 -10 4 -10 6 0 11 5 11 10 0 6 -2 10 -4 10 -3 0
-8 -4 -11 -10z"/>
<path d="M1476 221 c10 -11 72 -27 63 -17 -4 4 -21 11 -39 16 -20 6 -30 6 -24
1z"/>
<path d="M1985 212 c-28 -13 -36 -20 -26 -26 9 -6 17 -3 23 8 5 9 18 16 28 16
11 0 20 5 20 10 0 12 3 13 -45 -8z"/>
<path d="M2311 206 c-18 -10 -20 -15 -10 -19 10 -4 10 -6 -3 -6 -9 -1 -24 -10
-32 -22 -16 -24 -38 -17 -29 9 3 9 3 14 -1 10 -11 -9 -13 -78 -4 -78 5 0 8
-13 8 -30 0 -16 -4 -30 -9 -30 -17 0 -126 44 -132 53 -4 5 -19 3 -34 -6 -21
-10 -24 -16 -15 -22 9 -5 15 -4 18 4 3 9 12 3 27 -15 19 -24 25 -26 38 -16 12
10 16 9 21 -4 5 -12 10 -13 19 -6 7 6 22 9 34 6 30 -8 64 12 56 33 -5 14 -1
15 25 10 17 -4 34 -2 37 3 3 6 1 10 -6 10 -8 0 -6 7 5 19 16 17 15 19 -14 24
-32 7 -42 27 -13 27 9 0 40 -7 69 -17 43 -13 56 -14 68 -4 21 17 11 31 -22 32
-15 0 -43 6 -62 13 -32 12 -33 13 -15 24 28 16 5 14 -24 -2z m79 -48 c10 -6 7
-7 -10 -2 -14 3 -32 11 -40 16 -10 6 -7 7 10 2 14 -3 32 -11 40 -16z m50 -2
c0 -2 -7 -7 -16 -10 -8 -3 -12 -2 -9 4 6 10 25 14 25 6z m-140 -35 c0 -14 -18
-23 -31 -15 -8 4 -7 9 2 15 18 11 29 11 29 0z"/>
<path d="M2623 210 c-122 -49 -172 -73 -168 -80 6 -10 -25 -24 -45 -21 -12 2
-13 0 -2 -10 6 -7 12 -32 12 -56 0 -24 5 -43 10 -43 6 0 10 11 10 25 0 14 5
25 11 25 7 0 9 -10 7 -25 -4 -21 -1 -25 18 -25 13 0 24 4 24 10 0 5 16 18 36
28 33 17 35 20 16 24 -13 4 -20 1 -19 -5 1 -6 -7 -13 -17 -15 -15 -3 -18 0
-13 17 3 13 0 21 -8 21 -7 0 -19 8 -26 17 -12 15 -12 16 8 11 12 -3 24 -1 27
6 3 7 9 6 18 -4 9 -10 28 -14 62 -12 41 3 48 1 43 -12 -4 -9 -2 -16 3 -16 6 0
11 3 11 8 2 9 6 142 5 141 -1 0 -11 -4 -23 -9z m-43 -37 c0 -14 -49 -68 -50
-55 0 6 -7 12 -15 12 -25 0 -17 15 18 33 37 18 47 20 47 10z m42 -23 c4 -28 3
-30 -29 -30 l-34 0 23 30 c12 17 25 30 29 30 4 0 9 -13 11 -30z m-162 -80 c0
-5 -2 -10 -4 -10 -3 0 -8 5 -11 10 -3 6 -1 10 4 10 6 0 11 -4 11 -10z"/>
<path d="M2420 200 c-9 -6 -10 -10 -3 -10 6 0 15 5 18 10 8 12 4 12 -15 0z"/>
<path d="M1487 162 c-21 -10 -35 -21 -30 -26 4 -5 -3 -5 -17 -2 -19 6 -21 5
-10 -3 12 -8 9 -12 -17 -17 -39 -8 -61 -30 -46 -45 14 -14 65 -7 71 10 3 8 0
11 -7 7 -6 -4 -16 -4 -22 0 -6 3 7 15 31 25 32 14 46 16 62 8 18 -10 16 -13
-27 -40 -48 -30 -93 -37 -112 -18 -14 14 -56 -9 -72 -39 -9 -17 -5 -19 37 -20
42 0 45 1 24 12 -12 7 -19 15 -16 19 12 11 43 8 74 -8 17 -9 30 -11 30 -6 0
14 41 21 60 9 9 -6 25 -8 34 -5 15 6 14 9 -4 27 -11 11 -26 17 -35 14 -27 -11
-16 5 15 21 37 19 38 19 42 -7 4 -28 28 -36 28 -9 0 12 5 21 10 21 6 0 10 -9
10 -20 0 -11 5 -20 10 -20 6 0 10 8 10 19 0 12 -14 23 -43 35 -24 9 -44 23
-44 31 0 18 9 19 26 3 10 -11 12 -8 9 12 -4 31 -29 35 -81 12z"/>
<path d="M530 151 c0 -12 28 -22 35 -12 3 5 -2 12 -11 15 -21 8 -24 8 -24 -3z"/>
<path d="M652 147 c-6 -7 -15 -24 -21 -38 l-9 -24 -11 28 c-12 30 -18 32 -44
12 -18 -13 -16 -15 22 -35 41 -20 58 -60 26 -60 -8 0 -15 -6 -15 -13 0 -9 13
-13 40 -13 39 0 39 1 25 23 -19 28 -19 39 0 47 13 4 13 2 5 -14 -8 -15 -7 -19
7 -18 10 1 30 -1 45 -5 20 -5 29 -3 36 9 7 13 13 14 28 6 18 -10 18 -11 -6
-20 l-25 -10 29 -11 c34 -14 88 -11 93 4 2 9 -24 21 -169 75 -64 24 -82 61
-25 51 5 -1 6 3 2 9 -8 14 -20 13 -33 -3z m193 -127 c3 -5 2 -10 -4 -10 -5 0
-13 5 -16 10 -3 6 -2 10 4 10 5 0 13 -4 16 -10z"/>
<path d="M1710 140 c0 -13 18 -22 24 -11 3 5 -1 11 -9 15 -8 3 -15 1 -15 -4z"/>
<path d="M1778 114 c-4 -3 -14 -7 -25 -9 -10 -1 -17 -7 -16 -13 1 -5 -9 -13
-22 -16 -26 -7 -35 -26 -12 -26 8 0 7 -4 -3 -10 -22 -14 -33 -12 -26 5 3 8 4
15 2 15 -9 0 -70 -29 -62 -30 5 0 3 -7 -4 -15 -10 -12 -10 -15 4 -15 9 0 15 5
14 12 -2 7 12 12 37 13 22 1 47 4 56 9 12 5 18 1 22 -13 6 -24 32 -28 40 -7 3
8 -5 19 -21 26 l-27 13 30 7 c17 3 35 3 41 -2 8 -5 14 0 17 14 7 27 23 15 30
-22 4 -22 4 -21 6 6 1 36 -19 50 -51 33 -11 -6 -27 -8 -36 -4 -16 6 -16 7 1
16 9 6 22 7 29 3 7 -4 8 -3 4 4 -8 13 -19 15 -28 6z"/>
<path d="M1880 55 c0 -14 5 -25 10 -25 6 0 10 11 10 25 0 14 -4 25 -10 25 -5
0 -10 -11 -10 -25z"/>
<path d="M930 66 c0 -2 7 -6 15 -10 8 -3 15 -1 15 4 0 6 -7 10 -15 10 -8 0
-15 -2 -15 -4z"/>
<path d="M929 27 c-32 -16 -39 -23 -26 -25 10 -2 24 4 31 13 13 18 47 17 84
-4 13 -7 28 -11 33 -9 6 2 -10 13 -34 25 l-45 22 -43 -22z"/>
<path d="M1225 24 l-50 -23 46 2 c37 2 48 7 56 25 13 27 11 27 -52 -4z"/>
<path d="M2277 31 c-41 -27 -41 -29 4 -29 36 -1 39 1 23 12 -16 13 -16 14 2
24 10 6 15 11 9 11 -5 0 -22 -8 -38 -18z"/>
<path d="M2598 29 c-21 -11 -38 -22 -38 -24 0 -3 13 1 30 10 36 19 40 19 40 0
0 -8 5 -15 10 -15 12 0 14 37 3 43 -5 3 -25 -4 -45 -14z"/>
<path d="M1900 20 c-53 -17 -53 -18 -20 -19 19 0 42 3 50 9 9 5 19 5 27 -2 17
-13 27 -4 20 17 -8 18 -8 18 -77 -5z"/>
<path d="M1550 15 l-35 -13 31 -1 c17 -1 37 6 44 14 15 18 7 18 -40 0z"/>
<path d="M2040 20 c0 -5 -8 -10 -17 -12 -10 -3 8 -4 39 -4 32 -1 56 1 54 4 -9
9 -76 19 -76 12z"/>
</g>
</svg>
