<?xml version="1.0" standalone="no"?>
<!DOCTYPE svg PUBLIC "-//W3C//DTD SVG 20010904//EN"
 "http://www.w3.org/TR/2001/REC-SVG-20010904/DTD/svg10.dtd">
<svg version="1.0" xmlns="http://www.w3.org/2000/svg"
 width="320.000000pt" height="150.000000pt" viewBox="0 0 320.000000 150.000000"
 preserveAspectRatio="xMidYMid meet">

<g transform="translate(0.000000,150.000000) scale(0.100000,-0.100000)"
fill="#000000" stroke="none">
<path d="M173 1493 c4 -6 17 -9 30 -7 20 4 20 3 -3 -7 -36 -16 -10 -23 57 -14
33 4 52 10 46 16 -13 13 -138 25 -130 12z"/>
<path d="M330 1490 c-11 -7 -6 -10 20 -10 19 0 42 5 50 10 11 7 6 10 -20 10
-19 0 -42 -5 -50 -10z"/>
<path d="M520 1492 c-92 -11 -345 -54 -353 -59 -6 -4 -8 2 -5 13 4 17 0 20
-32 19 -21 0 -48 -9 -61 -18 l-24 -17 35 6 c19 3 43 8 53 10 9 3 17 1 17 -4 0
-5 -25 -13 -55 -17 -36 -4 -55 -11 -55 -20 0 -7 -6 -16 -12 -18 -10 -4 -9 -8
2 -16 13 -9 13 -11 -1 -11 -25 0 -29 -21 -29 -146 0 -128 -5 -121 80 -103 28
6 54 9 57 6 3 -3 -22 -11 -55 -17 -73 -15 -93 -26 -72 -40 13 -9 13 -10 0 -10
-13 0 -13 -1 0 -10 11 -7 12 -10 2 -10 -8 0 -12 -9 -10 -22 2 -16 9 -22 23
-21 140 14 136 14 56 -5 -41 -10 -76 -23 -79 -30 -2 -7 2 -12 10 -12 10 0 9
-3 -2 -10 -18 -11 -13 -16 25 -25 25 -6 28 -5 18 6 -20 21 -16 25 24 22 28 -2
33 -1 18 5 -16 7 -13 10 19 15 21 3 52 4 70 1 26 -4 28 -3 11 6 -17 9 -15 10
11 6 17 -3 53 2 79 9 26 8 51 12 56 9 5 -3 9 -1 9 4 0 5 20 9 44 10 48 0 66 7
66 23 0 6 -9 7 -21 4 -13 -5 -19 -3 -15 3 9 14 -30 22 -62 11 -15 -5 -54 -14
-87 -20 -45 -9 -55 -14 -40 -19 11 -4 23 -6 28 -3 4 2 7 0 7 -5 0 -5 -9 -12
-20 -15 -11 -3 -20 -1 -20 3 0 5 -14 12 -32 15 -18 4 -39 11 -48 15 -8 4 -37
14 -65 22 l-50 14 95 18 c131 24 133 25 70 46 -30 10 -50 18 -45 19 27 3 180
31 198 37 11 3 17 2 14 -3 -3 -5 -38 -16 -77 -23 -38 -7 -70 -16 -70 -20 0 -4
12 -5 26 -2 15 3 24 1 21 -4 -8 -14 41 -13 126 3 43 8 83 13 89 11 6 -2 -22
-10 -63 -17 -87 -16 -119 -29 -68 -29 18 0 45 -4 58 -9 16 -6 53 -4 112 7 48
9 86 14 84 10 -3 -4 -38 -13 -80 -21 -41 -7 -75 -16 -75 -21 0 -4 13 -5 30 -2
18 4 36 1 45 -6 18 -15 32 -13 264 35 96 19 176 33 179 30 8 -7 -17 -15 -99
-28 l-74 -13 38 -13 c20 -7 37 -17 37 -22 0 -6 9 -7 20 -4 11 4 20 2 20 -4 0
-6 -7 -12 -15 -12 -8 -1 -20 -2 -26 -3 -12 -1 -16 -203 -4 -214 3 -3 5 40 5
96 0 56 4 102 9 102 5 0 17 3 26 6 9 4 15 3 14 -2 -1 -5 0 -11 1 -14 1 -3 3
-12 5 -20 1 -8 6 -27 10 -42 5 -18 3 -28 -4 -28 -6 0 -11 -7 -11 -15 0 -8 9
-15 20 -15 24 0 24 6 6 85 -11 45 -12 62 -3 67 9 6 8 8 -1 8 -29 0 1 19 50 31
44 12 48 14 27 21 -13 4 3 5 36 3 l60 -4 -50 15 c-91 27 -91 28 2 47 48 10 97
23 108 28 18 8 18 9 -2 3 -13 -3 -23 -1 -23 4 0 17 -63 20 -120 7 -30 -7 -68
-16 -85 -20 l-30 -7 30 -14 30 -14 -35 6 c-19 4 -44 10 -55 14 -20 7 -20 7 0
13 20 6 167 36 182 38 4 0 -1 5 -12 10 -16 7 -12 8 15 5 40 -5 203 29 180 37
-8 3 -56 15 -107 26 -70 16 -98 19 -119 11 -15 -6 -29 -9 -31 -6 -3 2 5 7 16
11 12 3 19 10 17 13 -2 4 10 7 27 6 57 -3 170 18 156 27 -10 6 -1 9 26 9 66 0
79 2 97 17 10 9 32 14 55 12 21 -2 44 0 50 4 6 4 19 4 28 1 13 -6 14 -9 3 -16
-9 -6 -6 -8 12 -7 14 1 45 1 70 0 33 -1 41 -4 30 -11 -12 -8 -12 -10 -1 -10 8
0 19 6 25 14 6 7 25 17 41 20 22 5 26 4 15 -4 -8 -5 -24 -10 -35 -10 -12 0
-15 -3 -10 -9 14 -14 65 -25 65 -15 0 5 19 10 42 12 64 4 67 18 6 27 l-53 7
60 14 c76 16 127 16 60 0 l-50 -13 35 -7 c22 -4 64 -2 104 6 l69 14 -89 18
c-49 10 -105 21 -124 26 -30 8 -27 9 20 5 30 -2 47 -1 38 3 -10 4 9 7 45 8
l62 0 -45 -13 c-44 -12 -43 -13 45 -9 85 4 88 3 50 -9 -36 -11 -37 -13 -12
-14 15 -1 27 -7 27 -14 0 -19 -35 -36 -60 -30 -16 4 -21 3 -16 -5 10 -16 69
-15 131 2 l50 13 -47 8 c-27 4 -48 11 -48 15 0 4 28 10 63 14 34 3 64 11 65
16 4 12 22 3 22 -11 0 -5 -8 -9 -17 -9 -10 0 -25 -5 -33 -11 -11 -8 7 -9 64
-5 43 3 84 10 90 14 6 5 32 12 57 15 37 5 46 3 46 -9 0 -9 -12 -18 -29 -21
-33 -6 -28 -23 8 -23 15 0 24 -6 24 -15 0 -16 -19 -19 -68 -9 -41 8 -39 40 3
49 23 6 26 9 11 12 -10 3 -28 0 -40 -5 -11 -5 -37 -15 -56 -20 l-35 -11 38 6
c24 3 37 1 37 -6 0 -6 -17 -11 -37 -12 -51 -1 -86 -12 -91 -28 -3 -10 4 -11
29 -6 19 4 39 10 44 14 10 6 18 6 80 2 26 -2 27 -4 10 -11 -15 -6 -9 -8 22 -7
45 2 59 -14 21 -25 -22 -6 -21 -6 5 -7 15 -1 27 -5 27 -9 0 -5 -24 -5 -52 -1
-71 10 -93 10 -84 2 4 -4 -14 -13 -41 -20 -52 -13 -53 -13 79 4 25 3 57 3 71
-1 23 -5 24 -9 16 -48 -4 -25 -4 -44 2 -46 12 -5 12 -52 0 -52 -5 0 -7 -8 -4
-18 3 -14 -4 -22 -29 -30 -29 -10 -30 -11 -5 -8 25 3 27 1 27 -34 0 -28 6 -42
23 -53 22 -16 22 -16 -8 -11 -19 3 -37 -1 -50 -11 -19 -16 -18 -16 18 -11 49
6 47 -7 -5 -36 -23 -13 -43 -28 -45 -34 -5 -15 54 -26 76 -14 10 5 31 6 47 1
25 -7 21 -9 -34 -15 -34 -4 -66 -4 -72 -1 -5 3 -36 -2 -69 -11 -57 -16 -92
-13 -63 5 7 4 10 15 6 24 -7 18 -29 23 -38 8 -3 -4 -25 -12 -48 -16 -35 -6
-39 -8 -23 -15 11 -5 34 -9 51 -9 17 -1 38 -8 45 -18 16 -18 20 -19 -126 11
-38 8 -72 11 -75 7 -3 -4 -21 -13 -40 -19 l-35 -12 40 5 c27 3 35 1 25 -5 -12
-8 -12 -10 2 -15 10 -4 22 -3 29 1 7 4 22 8 33 10 12 1 34 5 50 9 19 5 27 4
22 -3 -3 -5 -25 -14 -49 -18 l-42 -7 33 -14 c23 -9 38 -10 51 -4 10 6 21 8 23
5 6 -6 60 17 69 29 4 5 28 11 55 14 75 7 83 9 90 16 11 10 46 9 40 -2 -3 -5
-16 -11 -28 -14 -64 -14 -717 -182 -803 -207 -55 -15 -154 -42 -220 -59 -451
-117 -577 -150 -810 -216 -88 -24 -229 -63 -313 -86 -97 -27 -152 -47 -152
-55 0 -10 7 -10 35 2 19 7 48 14 64 14 16 0 37 7 46 16 9 9 19 14 22 10 3 -3
11 -2 17 3 6 5 33 11 60 15 27 3 54 10 60 16 5 5 20 10 32 10 13 0 25 4 28 9
10 15 55 19 60 5 3 -8 12 -11 20 -8 8 3 12 12 9 21 -4 9 0 14 8 12 8 -1 22 1
32 6 9 4 26 5 37 2 11 -3 20 -1 20 4 0 5 5 9 11 9 6 0 26 7 45 16 19 9 46 14
61 11 16 -3 32 0 38 8 5 7 37 20 70 28 33 8 69 18 80 22 17 6 17 4 -4 -14 -18
-16 -20 -21 -7 -21 9 0 26 11 38 25 12 14 32 25 45 25 14 0 34 5 45 11 12 7
62 22 112 35 50 12 108 28 129 34 21 6 44 9 50 7 7 -2 -8 -10 -32 -16 -24 -7
-55 -17 -70 -23 -25 -10 -25 -10 -5 -18 36 -14 164 18 164 41 0 6 7 8 16 5 8
-3 13 -2 9 3 -6 11 50 25 65 16 14 -9 152 34 145 46 -4 5 -1 9 4 9 6 0 11 8
12 18 0 10 3 12 6 5 6 -17 78 -17 92 0 6 8 7 18 3 23 -4 4 1 2 10 -5 13 -9 25
-10 45 -3 15 6 22 11 16 11 -7 1 -13 5 -13 10 0 6 12 6 28 2 31 -9 50 -5 74
16 9 8 22 12 28 8 6 -4 17 -1 25 5 8 7 24 10 34 7 12 -3 22 1 25 10 4 10 16
14 36 11 17 -3 30 0 30 5 0 5 6 7 14 4 8 -3 37 2 64 12 27 10 66 21 87 25 21
4 45 11 54 16 47 25 338 71 314 50 -5 -4 -73 -26 -153 -50 -556 -163 -1118
-349 -1700 -560 -63 -23 -146 -53 -185 -67 -81 -29 -117 -48 -70 -37 17 3 37
7 45 8 8 0 17 4 20 7 8 10 125 49 148 49 12 0 39 9 61 21 22 11 49 21 60 22
12 1 21 4 21 7 0 3 10 7 22 7 13 1 24 7 26 13 2 5 19 10 38 10 24 0 34 5 34
15 0 8 5 15 10 15 6 0 10 -6 10 -12 0 -9 3 -8 10 2 5 8 19 15 32 15 14 0 22 5
20 14 -2 9 4 12 18 8 23 -6 110 20 110 32 0 4 11 13 25 19 18 8 25 8 25 1 0
-6 7 -9 15 -5 8 3 15 2 15 -2 0 -4 -19 -13 -42 -20 -69 -19 -119 -108 -72
-126 9 -3 14 1 14 14 0 10 5 22 10 25 6 3 10 -3 10 -14 0 -12 5 -21 10 -21 6
0 10 7 10 15 0 17 17 20 22 5 2 -7 15 -6 37 3 26 11 29 15 16 20 -9 4 -13 12
-10 17 5 8 15 6 30 -4 13 -9 26 -12 30 -7 3 5 -17 17 -45 26 -45 15 -68 31
-59 40 5 4 133 -28 139 -36 3 -3 13 -6 23 -6 12 0 17 8 17 28 0 22 6 30 25 35
14 4 29 4 32 0 4 -3 -3 -6 -15 -6 -11 0 -24 -5 -28 -12 -5 -8 0 -9 14 -6 13 4
25 1 30 -7 12 -22 77 -4 77 20 0 11 8 21 18 23 10 2 17 -3 17 -12 0 -9 4 -16
9 -16 12 0 20 49 9 56 -10 6 -1 24 13 24 5 0 9 -6 8 -12 -1 -7 1 -21 5 -30 12
-26 -16 -48 -95 -73 -39 -12 -71 -26 -72 -31 -1 -5 16 -13 38 -19 22 -5 43
-13 46 -18 3 -5 9 1 12 12 7 28 25 26 33 -3 10 -40 30 -39 26 0 -3 25 0 34 11
34 9 0 16 -12 19 -34 3 -30 0 -35 -27 -46 -16 -6 -48 -33 -70 -58 -22 -26 -30
-38 -17 -28 19 16 22 17 22 3 0 -8 -6 -17 -12 -20 -16 -5 -9 -13 21 -22 16 -5
21 -4 17 4 -4 6 -2 11 5 11 10 0 10 3 1 12 -7 7 -12 18 -12 25 0 22 20 14 30
-11 5 -13 14 -27 20 -31 5 -3 8 -10 5 -15 -3 -4 4 -6 15 -3 19 5 24 19 21 53
-1 12 1 11 12 -2 17 -21 43 -22 76 -4 27 15 25 17 -49 41 -64 20 -80 32 -57
41 11 4 17 18 17 41 0 30 3 34 23 31 30 -4 37 -47 8 -55 -12 -3 -21 -10 -21
-15 0 -5 9 -7 19 -3 13 4 23 0 30 -12 9 -16 10 -16 11 5 0 12 5 22 10 22 6 0
10 -9 10 -20 0 -27 42 -43 95 -36 37 5 38 5 14 -7 -14 -6 -24 -18 -22 -24 3
-7 0 -13 -6 -13 -6 0 -11 4 -11 10 0 5 -37 -7 -82 -26 -46 -20 -96 -41 -113
-48 -26 -11 -17 -13 82 -12 62 1 105 4 96 7 -14 5 -13 7 5 11 13 4 20 2 19 -6
-1 -7 19 -12 58 -13 45 -2 54 0 38 7 -35 14 -27 19 15 9 20 -6 55 -12 77 -15
39 -5 39 -5 15 9 -14 8 -60 25 -102 38 -48 14 -78 29 -78 37 0 10 6 12 18 7 9
-4 35 -12 57 -17 22 -5 67 -18 99 -29 36 -11 63 -16 69 -10 5 5 22 5 39 0 23
-6 40 -3 70 12 22 11 45 18 51 16 18 -6 -84 -48 -102 -43 -9 3 -27 -1 -40 -8
-20 -11 10 -13 194 -14 119 0 215 1 214 3 -2 1 -85 26 -184 54 -99 28 -193 56
-208 63 -52 21 -21 17 63 -8 85 -25 109 -25 165 -4 23 9 26 13 15 20 -13 9
-13 10 0 9 8 0 24 -4 34 -8 16 -6 10 -11 -32 -26 -29 -11 -49 -22 -45 -25 5
-4 44 -16 88 -28 79 -21 82 -21 128 -4 26 10 44 21 41 25 -4 4 5 7 19 7 39 0
34 -7 -25 -34 -33 -15 -45 -25 -32 -25 11 -1 26 -7 32 -13 10 -10 17 -10 34 1
15 9 23 10 27 2 6 -9 171 -14 171 -5 0 8 -145 44 -163 40 -12 -3 -9 0 8 8 17
8 32 11 35 7 3 -4 36 -16 73 -26 59 -16 70 -16 78 -4 6 10 9 11 9 1 0 -10 7
-9 30 3 48 25 80 35 80 26 0 -5 -14 -14 -32 -20 -17 -6 -29 -13 -26 -16 3 -3
27 4 54 16 47 20 48 21 25 30 -14 6 -31 7 -40 4 -8 -3 -17 -2 -20 3 -3 5 -67
26 -141 46 -258 71 -249 68 -215 76 17 4 61 19 100 34 38 15 65 23 60 18 -6
-5 -36 -19 -68 -32 -32 -12 -55 -25 -52 -29 4 -3 43 -16 87 -28 80 -22 118
-19 118 8 0 6 5 7 11 4 13 -9 121 34 114 45 -3 5 4 6 15 3 20 -5 18 -23 -2
-23 -6 0 -43 -15 -81 -32 -68 -31 -69 -33 -41 -40 16 -3 61 -15 99 -26 53 -14
77 -16 95 -9 l25 10 -23 4 c-12 3 -20 9 -16 14 3 5 20 7 39 3 23 -4 48 1 80
15 51 23 69 26 61 12 -4 -5 0 -12 6 -15 7 -3 3 -3 -9 0 -24 6 -56 -7 -53 -22
1 -5 -4 -10 -12 -12 -9 -2 -8 0 2 8 12 9 10 10 -9 4 -38 -10 -91 -34 -91 -40
0 -3 9 -2 20 1 11 4 20 2 20 -4 0 -6 20 -11 44 -11 25 0 48 -5 51 -10 4 -6 23
-7 47 -3 30 4 39 3 34 -5 -8 -14 3 -15 23 -3 16 10 2 21 -40 30 -38 8 -23 33
20 35 25 1 31 5 31 22 0 17 -11 24 -59 38 -32 9 -67 13 -76 9 -12 -4 -16 -3
-12 4 8 13 -47 28 -63 18 -5 -3 -10 -2 -10 3 0 5 -19 15 -42 22 l-43 13 30 7
c17 4 59 19 94 34 35 15 65 25 67 23 2 -2 -26 -17 -62 -32 -74 -32 -74 -32 41
-64 107 -30 135 -21 135 42 l0 44 -47 11 c-27 7 -55 14 -63 16 -8 2 -53 13
-99 24 -88 22 -110 32 -70 32 13 1 35 7 49 15 14 8 32 14 40 14 8 0 -3 -9 -25
-19 -29 -14 -35 -19 -20 -20 11 -2 24 -2 29 -1 4 1 13 -2 20 -7 6 -5 33 -15
60 -21 44 -11 55 -10 88 6 l38 18 0 72 0 73 -40 6 c-22 4 -40 10 -40 15 0 4
15 3 32 -2 47 -13 48 -13 48 26 0 35 0 35 -46 35 -27 0 -43 4 -39 10 3 6 24
10 46 10 l39 0 0 54 0 54 -37 8 c-28 5 -32 9 -18 12 11 2 23 9 28 16 5 8 10 7
17 -4 8 -12 10 -11 10 7 0 19 -4 21 -37 17 -41 -4 -36 0 10 10 l27 6 0 275 c0
157 -4 285 -10 300 -9 23 -14 25 -45 19 l-35 -6 0 51 c0 44 -3 53 -22 60 -19
7 -24 5 -26 -12 -4 -19 -4 -18 -16 4 l-12 24 -422 3 c-279 1 -422 -1 -422 -8
0 -13 -37 -13 -45 0 -3 6 -193 9 -498 10 l-492 0 -180 -180 c-131 -131 -176
-183 -167 -189 9 -5 -7 -11 -45 -15 -61 -7 -108 -26 -66 -26 12 0 24 -4 27 -8
3 -5 -10 -8 -29 -8 -18 1 -31 4 -29 8 2 3 -8 11 -23 16 -27 10 -27 10 -4 11
13 1 52 6 86 12 61 10 62 11 51 35 -9 20 -16 24 -36 19 -14 -3 -60 -13 -104
-22 -55 -11 -74 -18 -65 -25 20 -13 -41 -1 -125 25 l-68 22 78 12 c44 7 97 15
119 18 36 4 37 4 10 -4 -16 -5 -57 -15 -90 -22 l-60 -12 44 -13 c39 -11 57
-10 145 7 56 11 102 21 103 23 1 1 -45 15 -103 30 -58 16 -103 30 -100 33 2 2
30 -3 63 -11 54 -15 64 -15 153 2 52 11 86 21 75 24 -11 3 -3 3 17 1 34 -4 41
0 90 53 29 31 71 75 93 98 22 23 48 51 59 64 l19 21 -274 -1 c-151 -2 -285 -4
-299 -6z m88 -9 c-10 -2 -28 -2 -40 0 -13 2 -5 4 17 4 22 1 32 -1 23 -4z m147
2 c-25 -10 -116 -22 -108 -15 4 5 19 10 33 13 31 5 89 7 75 2z m1002 -1 c-3
-3 -12 -4 -19 -1 -8 3 -5 6 6 6 11 1 17 -2 13 -5z m528 -4 c-11 -5 -33 -8 -50
-8 -29 0 -29 0 -5 8 14 4 36 8 50 8 23 1 23 0 5 -8z m-1758 -6 c-3 -3 -12 -4
-19 -1 -8 3 -5 6 6 6 11 1 17 -2 13 -5z m1300 0 c-3 -3 -12 -4 -19 -1 -8 3 -5
6 6 6 11 1 17 -2 13 -5z m186 -11 c-48 -11 -73 -12 -105 -4 l-43 10 45 -4 c25
-3 61 -1 80 4 19 5 46 9 60 9 14 0 -3 -6 -37 -15z m-1560 0 c-7 -2 -19 -2 -25
0 -7 3 -2 5 12 5 14 0 19 -2 13 -5z m157 -2 c-45 -14 -104 -21 -94 -11 9 9 50
17 94 18 l25 0 -25 -7z m1528 -4 c-27 -6 -48 -14 -48 -19 0 -10 -38 -9 -65 1
-16 7 -13 9 15 10 19 0 51 5 70 10 19 5 44 9 55 9 11 -1 -1 -5 -27 -11z m172
-1 c0 -8 -16 -17 -37 -21 -21 -4 -41 -11 -44 -17 -4 -6 -23 -7 -50 -2 l-44 8
40 7 c22 4 59 11 83 15 29 4 39 10 30 15 -10 7 -9 9 5 9 9 0 17 -6 17 -14z
m373 7 c-7 -2 -19 -2 -25 0 -7 3 -2 5 12 5 14 0 19 -2 13 -5z m-2298 -12 c-26
-10 -132 -24 -124 -16 8 7 86 23 119 23 22 1 23 0 5 -7z m84 -15 c-2 -3 -33
-7 -69 -10 l-65 -5 65 13 c61 11 79 12 69 2z m2241 -15 c8 -16 6 -21 -8 -24
-14 -4 -14 -6 5 -12 13 -4 20 -11 17 -16 -3 -5 1 -9 9 -9 8 0 27 -16 41 -35
l26 -34 -32 -11 -33 -10 38 4 c34 4 39 2 48 -22 6 -15 8 -42 5 -59 -2 -18 -1
-33 5 -33 5 0 9 -13 9 -28 0 -20 -7 -33 -22 -41 l-23 -12 23 5 c13 2 22 -1 22
-8 0 -14 -51 -46 -73 -46 -9 0 -18 -4 -21 -9 -4 -5 14 -9 39 -9 25 1 51 -4 57
-10 7 -7 21 -12 32 -12 10 0 17 -3 13 -6 -5 -5 -145 16 -216 33 -17 4 -22 2
-17 -6 4 -6 1 -11 -6 -11 -7 -1 2 -7 21 -15 41 -18 41 -19 41 1 0 13 3 14 13
5 8 -6 16 -8 20 -5 3 3 14 1 24 -5 16 -9 15 -10 -7 -11 -22 -1 -23 -2 -7 -11
13 -8 22 -7 32 1 9 7 26 9 45 5 21 -5 39 -2 55 9 13 9 31 13 39 10 9 -3 16 -2
16 2 0 5 14 10 31 10 44 2 21 -9 -88 -40 -88 -25 -94 -25 -154 -12 -55 13 -63
13 -77 -1 -14 -13 -13 -15 9 -12 13 2 30 0 38 -5 7 -5 16 -4 20 1 3 5 17 7 31
3 21 -5 17 -8 -30 -19 -30 -8 -62 -17 -70 -22 -29 -16 39 -9 98 10 31 10 98
31 147 45 50 15 97 29 105 32 27 9 -1 -11 -33 -24 l-32 -12 30 6 c46 10 50 10
55 0 4 -7 -266 -95 -342 -110 -26 -5 -29 -4 -18 9 18 22 3 32 -23 16 -21 -13
-21 -13 -7 4 14 17 13 18 -9 12 -29 -7 -17 6 24 27 26 14 27 16 8 16 -12 0
-27 9 -32 19 -9 16 -8 18 12 15 16 -3 14 0 -8 10 -16 9 -23 15 -15 16 11 0 11
3 2 12 -17 17 -15 28 6 29 15 1 15 2 1 6 -10 2 -19 12 -22 21 -3 9 -8 24 -12
34 -4 11 -1 18 12 21 14 4 14 5 -4 6 -23 1 -29 11 -17 24 6 6 12 56 14 115 0
19 5 22 43 22 31 0 38 -3 27 -10 -8 -5 -23 -10 -32 -10 -10 0 -18 -4 -18 -9 0
-6 12 -6 32 0 18 5 58 10 88 10 l55 2 -80 14 c-105 19 -129 29 -120 51 12 33
50 82 64 82 10 0 11 3 2 13 -6 8 -8 17 -4 20 13 14 53 6 63 -12z m-2487 2 c-7
-2 -19 -2 -25 0 -7 3 -2 5 12 5 14 0 19 -2 13 -5z m82 -12 c-26 -10 -122 -25
-114 -17 7 8 79 24 109 24 22 1 23 0 5 -7z m1410 -1 c-11 -5 -33 -9 -48 -9
-16 -1 -26 -5 -23 -9 3 -5 -16 -9 -42 -9 -26 0 -62 -4 -79 -8 -21 -5 -33 -3
-33 3 0 6 12 10 28 10 15 0 40 5 55 11 16 6 33 9 38 6 5 -4 15 -2 23 2 8 4 34
9 58 10 32 1 38 -1 23 -7z m-1622 -7 c-7 -2 -19 -2 -25 0 -7 3 -2 5 12 5 14 0
19 -2 13 -5z m47 -23 c-14 -4 -38 -8 -55 -8 -29 0 -29 0 -5 8 14 4 39 8 55 8
29 0 29 0 5 -8z m3026 -30 c8 0 14 -4 14 -10 0 -5 -9 -10 -21 -10 -11 0 -17
-4 -14 -10 3 -5 2 -10 -3 -10 -10 0 -22 23 -22 42 0 6 7 7 16 4 9 -3 22 -6 30
-6z m14 -50 c-10 -6 -11 -10 -2 -10 6 0 12 -7 12 -15 0 -20 -26 -19 -34 1 -8
21 1 34 22 34 15 0 15 -2 2 -10z m-2403 -26 c-3 -3 -12 -4 -19 -1 -8 3 -5 6 6
6 11 1 17 -2 13 -5z m328 -29 c-36 -9 -45 -13 -30 -17 11 -4 0 -4 -25 -1 -34
3 -41 2 -30 -6 17 -12 6 -14 -39 -5 -17 4 -31 10 -31 14 0 5 8 6 18 4 9 -3 46
2 82 10 79 17 125 19 55 1z m-742 -62 c-7 -2 -19 -2 -25 0 -7 3 -2 5 12 5 14
0 19 -2 13 -5z m2522 -17 c17 -25 30 -76 20 -76 -4 0 -15 5 -26 10 -14 8 -19
21 -19 50 0 46 4 49 25 16z m-1968 -52 c-3 -3 -12 -4 -19 -1 -8 3 -5 6 6 6 11
1 17 -2 13 -5z m1993 -40 c0 -2 -9 -4 -20 -4 -11 0 -20 4 -20 9 0 5 9 7 20 4
11 -3 20 -7 20 -9z m-1940 -8 c0 -2 -9 -6 -20 -9 -11 -3 -18 -1 -14 4 5 9 34
13 34 5z m-70 -10 c0 -3 -4 -8 -10 -11 -5 -3 -10 -1 -10 4 0 6 5 11 10 11 6 0
10 -2 10 -4z m2154 -157 c-32 -13 -50 -9 -24 5 14 7 29 10 34 8 5 -3 1 -9 -10
-13z m56 -10 c0 -5 -12 -9 -27 -9 -26 0 -26 1 -8 14 20 14 35 12 35 -5z m-130
-39 c6 0 10 7 10 15 0 8 5 15 10 15 6 0 10 -4 10 -9 0 -5 10 -7 23 -5 16 3 14
1 -8 -10 -35 -18 -11 -21 32 -5 l28 10 -22 -20 c-18 -17 -36 -21 -95 -22 -40
0 -82 -5 -93 -10 -17 -8 -17 -9 5 -5 14 3 32 0 40 -5 13 -9 12 -10 -2 -5 -10
3 -19 2 -22 -2 -3 -5 10 -9 29 -10 25 -2 35 2 38 15 3 13 5 11 7 -7 1 -23 2
-23 9 -5 7 17 17 20 69 20 34 0 62 -3 62 -7 0 -5 -11 -8 -25 -8 -33 0 -23 -27
13 -33 15 -3 -17 -3 -71 -1 -53 1 -102 6 -107 9 -5 3 -24 8 -42 10 -18 2 -60
13 -93 24 l-60 19 58 -3 c61 -3 70 0 35 15 -21 8 -20 9 10 9 18 1 31 -3 28 -7
-3 -5 9 -6 27 -4 26 4 28 6 13 12 -19 6 -19 7 -1 14 10 3 23 2 29 -4 18 -18
34 -11 29 13 -4 19 -3 20 7 5 6 -10 15 -18 20 -18z m-395 10 c-3 -5 -21 -10
-38 -9 -27 0 -29 2 -12 9 28 12 57 12 50 0z m118 -67 c-7 -2 -21 -2 -30 0 -10
3 -4 5 12 5 17 0 24 -2 18 -5z m32 -22 c-11 -5 -36 -11 -55 -15 l-35 -6 35 14
c19 8 44 15 55 15 l20 0 -20 -8z m-195 -16 c0 -8 -4 -15 -10 -15 -5 0 -7 7 -4
15 4 8 8 15 10 15 2 0 4 -7 4 -15z m40 5 c0 -5 -4 -10 -10 -10 -5 0 -10 5 -10
10 0 6 5 10 10 10 6 0 10 -4 10 -10z m190 -36 c0 -14 -6 -24 -14 -24 -15 0
-25 27 -19 47 7 20 33 2 33 -23z m-263 20 c-3 -3 -12 -4 -19 -1 -8 3 -5 6 6 6
11 1 17 -2 13 -5z m98 -9 c-70 -22 -116 -26 -55 -5 30 10 64 19 75 18 11 0 2
-6 -20 -13z m-167 -37 c13 -2 -191 -66 -298 -93 -52 -13 -181 -51 -278 -82
-85 -27 -116 -33 -125 -24 -6 6 -9 11 -6 12 2 0 18 2 34 3 17 2 65 14 108 26
58 17 75 25 67 35 -5 6 -7 15 -3 18 3 4 12 -1 19 -11 12 -16 13 -15 14 6 0 15
6 22 20 22 11 0 19 -3 19 -7 -3 -20 2 -24 15 -14 8 6 18 11 22 9 18 -4 74 14
68 23 -3 5 15 9 40 9 44 0 82 22 71 41 -4 5 5 5 20 -1 36 -14 56 -13 53 3 -2
7 7 11 22 10 42 -3 104 8 90 17 -8 5 -9 13 -4 21 7 11 9 11 12 -3 2 -9 11 -18
20 -20z m52 17 c0 -8 -5 -15 -11 -15 -6 0 -17 7 -25 15 -14 13 -13 15 10 15
16 0 26 -6 26 -15z m230 5 c0 -5 -7 -10 -16 -10 -8 0 -12 5 -9 10 3 6 10 10
16 10 5 0 9 -4 9 -10z m247 -32 c-3 -7 -5 -2 -5 12 0 14 2 19 5 13 2 -7 2 -19
0 -25z m50 -15 c-3 -10 -5 -2 -5 17 0 19 2 27 5 18 2 -10 2 -26 0 -35z m-435
17 c0 -11 1 -25 2 -32 1 -6 -5 -13 -11 -15 -8 -3 -12 7 -11 31 1 38 17 50 20
16z m358 -4 c0 -19 -4 -23 -20 -19 -25 7 -26 30 -2 36 9 3 18 5 20 6 1 0 2
-10 2 -23z m-395 4 c-3 -5 -10 -10 -16 -10 -5 0 -9 5 -9 10 0 6 7 10 16 10 8
0 12 -4 9 -10z m62 -27 c-3 -10 -5 -4 -5 12 0 17 2 24 5 18 2 -7 2 -21 0 -30z
m98 27 c3 -5 -3 -10 -14 -10 -12 0 -21 5 -21 10 0 6 6 10 14 10 8 0 18 -4 21
-10z m355 -10 c0 -5 -2 -10 -4 -10 -3 0 -8 5 -11 10 -3 6 -1 10 4 10 6 0 11
-4 11 -10z m127 -27 c-3 -10 -5 -4 -5 12 0 17 2 24 5 18 2 -7 2 -21 0 -30z
m-649 -14 c-9 -6 -14 -3 -16 8 -2 8 2 19 10 24 9 6 14 3 16 -8 2 -8 -2 -19
-10 -24z m232 21 c-11 -7 -11 -10 -2 -10 8 0 12 -12 10 -34 -2 -28 -5 -32 -22
-27 -20 5 -20 5 -2 9 10 2 14 7 9 11 -5 3 -13 18 -16 33 -6 20 -3 27 10 30 24
6 31 -1 13 -12z m47 -42 c-2 -13 -4 -5 -4 17 -1 22 1 32 4 23 2 -10 2 -28 0
-40z m123 11 c0 -23 -25 -25 -34 -3 -10 26 -7 32 14 27 11 -3 20 -14 20 -24z
m160 21 c0 -5 -4 -10 -10 -10 -5 0 -10 5 -10 10 0 6 5 10 10 10 6 0 10 -4 10
-10z m-720 -10 c0 -5 -4 -10 -10 -10 -5 0 -10 5 -10 10 0 6 5 10 10 10 6 0 10
-4 10 -10z m340 0 c0 -5 -9 -10 -20 -10 -11 0 -20 5 -20 10 0 6 9 10 20 10 11
0 20 -4 20 -10z m-280 -26 c0 -8 -7 -14 -15 -14 -15 0 -21 21 -9 33 10 9 24
-2 24 -19z m-353 10 c-3 -3 -12 -4 -19 -1 -8 3 -5 6 6 6 11 1 17 -2 13 -5z
m223 -4 c0 -5 -5 -10 -11 -10 -5 0 -7 5 -4 10 3 6 8 10 11 10 2 0 4 -4 4 -10z
m707 -22 c-3 -7 -5 -2 -5 12 0 14 2 19 5 13 2 -7 2 -19 0 -25z m-737 12 c0 -5
-8 -14 -17 -20 -17 -11 -17 -11 0 -6 12 4 17 0 17 -13 0 -18 -18 -31 -42 -31
-13 0 1 62 16 72 15 11 26 10 26 -2z m100 -12 c0 -18 -2 -20 -9 -8 -6 8 -7 18
-5 22 9 14 14 9 14 -14z m340 12 c0 -5 -9 -10 -21 -10 -11 0 -17 5 -14 10 3 6
13 10 21 10 8 0 14 -4 14 -10z m337 -12 c-3 -8 -6 -5 -6 6 -1 11 2 17 5 13 3
-3 4 -12 1 -19z m38 12 c3 -5 1 -10 -4 -10 -6 0 -11 5 -11 10 0 6 2 10 4 10 3
0 8 -4 11 -10z m-758 -22 c-3 -8 -6 -5 -6 6 -1 11 2 17 5 13 3 -3 4 -12 1 -19z
m251 10 c0 -7 4 -23 7 -35 6 -18 3 -23 -9 -23 -14 0 -16 7 -12 33 5 37 5 37 9
37 2 0 4 -6 5 -12z m-38 -8 c0 -5 -7 -10 -16 -10 -8 0 -12 5 -9 10 3 6 10 10
16 10 5 0 9 -4 9 -10z m394 -6 c8 -22 8 -24 -8 -24 -18 0 -29 16 -21 30 9 15
22 12 29 -6z m-327 -31 c-3 -10 -5 -4 -5 12 0 17 2 24 5 18 2 -7 2 -21 0 -30z
m99 -1 c1 -25 -3 -32 -17 -32 -15 0 -19 8 -19 36 0 28 3 35 18 32 12 -2 17
-13 18 -36z m-1179 22 c-3 -3 -12 -4 -19 -1 -8 3 -5 6 6 6 11 1 17 -2 13 -5z
m637 -26 c7 -5 4 -8 -6 -8 -12 0 -18 7 -17 23 0 15 2 17 6 7 3 -8 11 -18 17
-22z m926 22 c0 -5 -4 -10 -10 -10 -5 0 -10 5 -10 10 0 6 5 10 10 10 6 0 10
-4 10 -10z m-1650 -15 c-19 -7 -42 -13 -50 -13 -8 0 1 6 20 13 19 7 42 13 50
13 8 0 -1 -6 -20 -13z m417 9 c-3 -3 -12 -4 -19 -1 -8 3 -5 6 6 6 11 1 17 -2
13 -5z m579 -19 c7 -45 15 -65 29 -65 7 0 16 -4 19 -9 3 -4 -6 -6 -21 -3 -20
4 -24 2 -18 -8 6 -10 4 -12 -9 -7 -10 4 -15 3 -11 -3 3 -6 1 -10 -4 -10 -6 0
-11 7 -11 15 0 8 5 15 11 15 6 0 3 7 -5 16 -19 19 -21 44 -3 44 9 0 8 3 -2 9
-15 10 -5 34 12 28 5 -1 11 -12 13 -22z m112 8 c2 -8 -5 -13 -17 -13 -12 0
-21 6 -21 16 0 18 31 15 38 -3z m232 13 c0 -2 -7 -6 -15 -10 -8 -3 -15 -1 -15
4 0 6 7 10 15 10 8 0 15 -2 15 -4z m40 -31 c0 -33 -15 -33 -16 0 -1 14 2 25 7
25 5 0 9 -11 9 -25z m-730 5 c-13 -8 -13 -10 2 -10 27 0 3 -49 -24 -50 -4 0
-7 16 -6 35 1 28 5 35 22 35 17 0 18 -2 6 -10z m690 -4 c0 -8 -4 -17 -9 -21
-12 -7 -24 12 -16 25 9 15 25 12 25 -4z m305 4 c-3 -5 -1 -10 6 -10 7 0 10 -3
6 -6 -9 -9 -28 6 -22 17 4 5 8 9 11 9 3 0 2 -4 -1 -10z m-1718 -6 c-3 -3 -12
-4 -19 -1 -8 3 -5 6 6 6 11 1 17 -2 13 -5z m668 -4 c3 -5 1 -10 -4 -10 -6 0
-11 5 -11 10 0 6 2 10 4 10 3 0 8 -4 11 -10z m-37 -17 c0 -10 3 -26 7 -37 7
-16 5 -17 -12 -7 -20 10 -36 45 -25 55 12 12 31 5 30 -11z m552 -7 c0 -15 -7
-26 -20 -29 -17 -4 -20 0 -20 24 0 22 5 29 20 29 14 0 20 -7 20 -24z m387 18
c-3 -3 -12 -4 -19 -1 -8 3 -5 6 6 6 11 1 17 -2 13 -5z m-1630 -10 c-3 -3 -12
-4 -19 -1 -8 3 -5 6 6 6 11 1 17 -2 13 -5z m1069 -21 c-3 -3 -16 -1 -28 5
l-23 12 23 -6 c14 -3 22 -1 23 8 0 11 2 11 6 0 3 -7 2 -16 -1 -19z m212 16
c-2 -6 -8 -10 -13 -10 -5 0 -11 4 -13 10 -2 6 4 11 13 11 9 0 15 -5 13 -11z
m462 1 c0 -5 -5 -10 -11 -10 -5 0 -7 5 -4 10 3 6 8 10 11 10 2 0 4 -4 4 -10z
m-1120 -10 c0 -5 -9 -10 -21 -10 -11 0 -17 5 -14 10 3 6 13 10 21 10 8 0 14
-4 14 -10z m110 -10 c0 -11 -4 -20 -9 -20 -5 0 -7 9 -4 20 3 11 7 20 9 20 2 0
4 -9 4 -20z m225 3 c-16 -13 -17 -15 -2 -10 13 5 17 1 18 -21 0 -15 2 -35 4
-45 3 -15 -1 -18 -18 -13 -12 3 -26 6 -30 6 -8 0 -8 78 0 93 2 4 14 7 26 7 22
-1 22 -1 2 -17z m835 7 c0 -5 -7 -10 -15 -10 -8 0 -15 5 -15 10 0 6 7 10 15
10 8 0 15 -4 15 -10z m-463 -22 c-3 -8 -6 -5 -6 6 -1 11 2 17 5 13 3 -3 4 -12
1 -19z m71 10 c-7 -19 -38 -22 -38 -4 0 10 9 16 21 16 12 0 19 -5 17 -12z
m-991 -4 c-3 -3 -12 -4 -19 -1 -8 3 -5 6 6 6 11 1 17 -2 13 -5z m153 -4 c0 -5
-4 -10 -10 -10 -5 0 -10 5 -10 10 0 6 5 10 10 10 6 0 10 -4 10 -10z m-256 -15
c3 -8 2 -15 -2 -15 -4 0 -18 -3 -31 -7 -17 -4 -22 -3 -17 5 4 7 1 12 -6 12 -9
0 -9 3 2 10 22 14 47 12 54 -5z m56 5 c-8 -5 -19 -10 -25 -10 -5 0 -3 5 5 10
8 5 20 10 25 10 6 0 3 -5 -5 -10z m644 -16 c4 -15 3 -31 -2 -36 -6 -6 -11 4
-14 26 -5 42 7 48 16 10z m276 17 c0 -6 -4 -13 -10 -16 -5 -3 -10 1 -10 9 0 9
5 16 10 16 6 0 10 -4 10 -9z m187 -6 c0 -8 -4 -15 -9 -15 -4 0 -8 7 -8 15 0 8
4 15 8 15 5 0 9 -7 9 -15z m53 0 c0 -2 -7 -5 -15 -9 -9 -3 -15 0 -15 9 0 9 6
12 15 9 8 -4 15 -7 15 -9z m-898 -7 c7 -21 -15 -35 -87 -57 -69 -20 -86 -17
-84 14 0 6 3 4 6 -2 8 -21 33 -15 33 7 0 11 5 20 10 20 6 0 10 -7 10 -15 0
-22 21 -18 27 5 4 15 9 18 18 10 9 -8 14 -6 19 5 3 9 10 13 16 10 5 -3 10 -1
10 4 0 15 17 14 22 -1z m178 -3 c0 -9 -6 -12 -16 -8 -13 5 -13 7 -2 14 17 11
18 11 18 -6z m-340 -5 c0 -5 -5 -10 -11 -10 -5 0 -7 5 -4 10 3 6 8 10 11 10 2
0 4 -4 4 -10z m1380 0 c-19 -13 -30 -13 -30 0 0 6 10 10 23 10 18 0 19 -2 7
-10z m-1420 -10 c0 -6 -7 -13 -16 -17 -13 -5 -13 -7 -2 -14 9 -6 7 -9 -9 -9
-28 0 -32 36 -5 43 29 8 32 7 32 -3z m468 -10 c8 0 13 -2 10 -5 -3 -4 -18 -3
-33 1 -20 5 -23 9 -13 15 7 5 14 4 16 -1 2 -6 11 -10 20 -10z m262 0 c0 -5
-12 -10 -27 -10 -22 0 -25 2 -13 10 20 13 40 13 40 0z m640 0 c-8 -5 -19 -10
-25 -10 -5 0 -3 5 5 10 8 5 20 10 25 10 6 0 3 -5 -5 -10z m-1670 -4 c0 -3 -4
-8 -10 -11 -5 -3 -10 -1 -10 4 0 6 5 11 10 11 6 0 10 -2 10 -4z m580 -5 c0 -5
-7 -11 -15 -15 -9 -3 -15 0 -15 9 0 8 7 15 15 15 8 0 15 -4 15 -9z m110 -35
c0 -35 -4 -45 -19 -49 -14 -3 -21 2 -25 17 -10 36 -7 56 10 56 8 0 12 5 9 10
-3 6 1 10 9 10 12 0 16 -11 16 -44z m815 24 c-10 -11 -23 -20 -29 -20 -6 0 0
9 14 20 32 25 38 25 15 0z m125 6 c0 -2 -9 -6 -20 -9 -11 -3 -18 -1 -14 4 5 9
34 13 34 5z m-1693 -13 c-9 -2 -15 -9 -12 -14 4 -5 -1 -9 -9 -9 -8 0 -17 4
-21 9 -5 10 17 19 45 19 10 0 9 -2 -3 -5z m241 -5 c-5 -16 -48 -24 -48 -9 0 8
17 16 43 20 5 0 7 -5 5 -11z m330 0 c-5 -16 -48 -24 -48 -9 0 8 17 16 43 20 5
0 7 -5 5 -11z m78 -23 c4 -15 1 -30 -9 -39 -18 -19 -27 -11 -27 24 0 45 26 56
36 15z m238 10 c3 -8 1 -15 -4 -15 -6 0 -10 7 -10 15 0 8 2 15 4 15 2 0 6 -7
10 -15z m126 5 c0 -5 -4 -10 -10 -10 -5 0 -10 5 -10 10 0 6 5 10 10 10 6 0 10
-4 10 -10z m67 4 c-3 -3 -12 -4 -19 -1 -8 3 -5 6 6 6 11 1 17 -2 13 -5z m388
-8 c28 -8 41 -14 30 -14 -21 0 -107 25 -90 27 6 0 33 -6 60 -13z m-1170 -26
c8 0 18 7 22 15 5 8 13 11 21 6 18 -11 -1 -24 -65 -45 -57 -19 -73 -16 -73 14
0 24 31 31 47 10 11 -13 12 -11 13 10 1 22 2 23 11 8 5 -10 16 -18 24 -18z
m372 -2 c-3 -7 -5 -2 -5 12 0 14 2 19 5 13 2 -7 2 -19 0 -25z m-767 18 c0 -3
-4 -8 -10 -11 -5 -3 -10 -1 -10 4 0 6 5 11 10 11 6 0 10 -2 10 -4z m680 -25
c12 -23 11 -23 -16 -17 -42 11 -51 24 -23 35 13 5 25 8 25 7 1 0 7 -12 14 -25z
m-450 14 c0 -2 -9 -9 -20 -15 -16 -9 -20 -8 -20 5 0 8 9 15 20 15 11 0 20 -2
20 -5z m365 -13 c-3 -3 -11 0 -18 7 -9 10 -8 11 6 5 10 -3 15 -9 12 -12z m-90
-2 c3 -5 1 -10 -4 -10 -6 0 -11 5 -11 10 0 6 2 10 4 10 3 0 8 -4 11 -10z m435
-15 c0 -14 -5 -25 -12 -25 -6 0 -3 -7 8 -16 18 -14 18 -15 -3 -4 -31 14 -31
70 -1 70 4 0 8 -11 8 -25z m-775 5 c-3 -5 -10 -10 -16 -10 -5 0 -9 5 -9 10 0
6 7 10 16 10 8 0 12 -4 9 -10z m850 0 c-3 -5 -15 -10 -26 -10 -10 0 -19 5 -19
10 0 6 12 10 26 10 14 0 23 -4 19 -10z m209 -21 c5 -4 -10 -3 -33 3 -22 6 -41
14 -41 19 0 9 59 -9 74 -22z m-748 12 c-7 -11 -56 -21 -56 -11 0 13 13 20 37
20 13 0 22 -4 19 -9z m84 -5 c0 -8 3 -21 6 -30 4 -11 1 -16 -10 -16 -11 0 -16
9 -16 30 0 17 5 30 10 30 6 0 10 -6 10 -14z m50 -8 c0 -16 -3 -19 -11 -11 -6
6 -8 16 -5 22 11 17 16 13 16 -11z m170 12 c0 -5 -4 -10 -10 -10 -5 0 -10 5
-10 10 0 6 5 10 10 10 6 0 10 -4 10 -10z m558 -9 c71 -19 100 -31 72 -31 -18
0 -150 40 -150 45 0 6 -6 7 78 -14z m237 9 c-11 -5 -38 -17 -60 -26 l-40 -16
68 -21 c99 -30 82 -39 -20 -10 -93 26 -109 33 -77 33 10 0 37 11 59 24 22 13
51 24 65 24 23 1 23 0 5 -8z m-1066 -37 c-1 -37 -1 -37 -8 -8 -7 28 -5 45 5
45 2 0 3 -17 3 -37z m161 21 c0 -2 -9 -4 -20 -4 -11 0 -20 4 -20 9 0 5 9 7 20
4 11 -3 20 -7 20 -9z m184 0 c3 -9 6 -18 6 -20 0 -8 -25 -4 -40 6 -13 9 -13
11 0 20 21 13 27 12 34 -6z m-689 -4 c3 -5 1 -10 -4 -10 -6 0 -11 5 -11 10 0
6 2 10 4 10 3 0 8 -4 11 -10z m220 0 c3 -5 1 -10 -4 -10 -6 0 -11 5 -11 10 0
6 2 10 4 10 3 0 8 -4 11 -10z m92 -44 c-3 -7 -15 -16 -26 -19 -18 -4 -21 -1
-21 24 0 22 6 32 23 38 18 7 23 5 25 -11 2 -11 1 -25 -1 -32z m813 38 c0 -2
-9 -4 -20 -4 -11 0 -20 4 -20 9 0 5 9 7 20 4 11 -3 20 -7 20 -9z m-1270 -4 c0
-5 -10 -10 -22 -10 -19 0 -20 2 -8 10 19 13 30 13 30 0z m323 -11 c-6 -6 -19
-9 -29 -6 -17 3 -16 5 6 14 28 12 39 8 23 -8z m674 1 c-2 -25 -30 -23 -35 3
-2 11 3 17 17 17 14 0 19 -6 18 -20z m-347 0 c-8 -5 -22 -10 -30 -10 -13 0
-13 1 0 10 8 5 22 10 30 10 13 0 13 -1 0 -10z m80 -15 c0 -21 17 -19 24 3 4
14 5 14 3 -2 -1 -12 -13 -22 -29 -27 -25 -6 -28 -5 -28 17 0 15 6 24 15 24 8
0 15 -7 15 -15z m-360 -5 c0 -5 -4 -10 -10 -10 -5 0 -10 5 -10 10 0 6 5 10 10
10 6 0 10 -4 10 -10z m-511 -23 c-7 -8 -22 -12 -32 -9 -17 4 -15 7 9 17 34 14
41 12 23 -8z m351 14 c0 -5 -7 -11 -15 -15 -15 -5 -20 5 -8 17 9 10 23 9 23
-2z m115 -1 c18 -8 17 -9 -7 -9 -16 -1 -28 4 -28 9 0 12 8 12 35 0z m225 0 c0
-5 -5 -10 -11 -10 -5 0 -7 5 -4 10 3 6 8 10 11 10 2 0 4 -4 4 -10z m113 -9 c6
-25 0 -31 -30 -31 -16 0 -23 6 -23 19 0 32 45 42 53 12z m24 -13 c-3 -8 -6 -5
-6 6 -1 11 2 17 5 13 3 -3 4 -12 1 -19z m153 8 c0 -15 -29 -30 -39 -20 -3 4 0
9 7 11 6 3 10 9 6 14 -3 5 2 9 10 9 9 0 16 -6 16 -14z m257 8 c-3 -3 -12 -4
-19 -1 -8 3 -5 6 6 6 11 1 17 -2 13 -5z m-937 -14 c0 -5 -7 -10 -15 -10 -8 0
-15 5 -15 10 0 6 7 10 15 10 8 0 15 -4 15 -10z m440 -21 c0 -28 -15 -23 -18 7
-1 14 2 23 8 19 6 -3 10 -15 10 -26z m-135 11 c-3 -5 -21 -9 -38 -9 l-32 2 35
7 c19 4 36 8 38 9 2 0 0 -3 -3 -9z m85 0 c0 -5 -4 -10 -10 -10 -5 0 -10 5 -10
10 0 6 5 10 10 10 6 0 10 -4 10 -10z m540 -5 c30 -8 56 -15 58 -15 1 0 2 7 2
15 0 8 8 15 18 14 10 0 12 -3 5 -6 -7 -2 -13 -13 -13 -23 0 -18 -2 -18 -61 0
-34 10 -64 21 -67 24 -8 8 -4 8 58 -9z m-250 -9 c0 -2 -7 -7 -16 -10 -8 -3
-12 -2 -9 4 6 10 25 14 25 6z m-373 -31 c7 -19 5 -20 -28 -28 -24 -6 -26 -4
-21 18 5 28 39 35 49 10z m187 9 c9 -3 16 -10 16 -14 0 -10 -38 -1 -46 11 -6
10 7 12 30 3z m86 -5 c13 -9 13 -10 -2 -6 -9 3 -19 1 -22 -6 -2 -7 -5 -4 -5 6
-1 20 7 21 29 6z m195 -29 c3 -5 2 -10 -4 -10 -5 0 -13 5 -16 10 -3 6 -2 10 4
10 5 0 13 -4 16 -10z m185 -5 c-14 -8 -32 -14 -40 -14 -8 0 -1 7 15 14 39 18
57 18 25 0z m98 -7 c-3 -7 -15 -15 -27 -16 -20 -3 -22 -2 -10 12 17 18 42 21
37 4z m307 2 c3 -5 2 -10 -4 -10 -5 0 -13 5 -16 10 -3 6 -2 10 4 10 5 0 13 -4
16 -10z m-968 -15 c0 -8 -4 -12 -9 -9 -4 3 -8 9 -8 15 0 5 4 9 8 9 5 0 9 -7 9
-15z m420 9 c-3 -3 -12 -4 -19 -1 -8 3 -5 6 6 6 11 1 17 -2 13 -5z m288 -23
c-3 -6 -11 -11 -17 -11 -6 0 -6 6 2 15 14 17 26 13 15 -4z m342 13 c-3 -3 -12
-4 -19 -1 -8 3 -5 6 6 6 11 1 17 -2 13 -5z m-237 -12 c0 -4 -17 -14 -37 -22
-21 -8 -42 -17 -48 -19 -5 -2 -4 3 4 12 7 10 28 21 45 26 17 5 32 10 34 10 1
1 2 -3 2 -7z m-1093 -8 c-3 -3 -12 -4 -19 -1 -8 3 -5 6 6 6 11 1 17 -2 13 -5z
m643 -4 c8 -5 11 -10 5 -10 -5 0 -17 5 -25 10 -8 5 -10 10 -5 10 6 0 17 -5 25
-10z m255 -17 c33 -15 34 -15 -52 3 -23 4 -25 3 -13 -6 10 -8 11 -10 2 -8 -8
2 -13 7 -12 12 1 5 -4 13 -12 17 -20 13 52 -2 87 -18z m550 -3 c-3 -5 -14 -10
-23 -10 -15 0 -15 2 -2 10 20 13 33 13 25 0z m-985 -10 c0 -5 -5 -10 -11 -10
-5 0 -7 5 -4 10 3 6 8 10 11 10 2 0 4 -4 4 -10z m-460 -10 c0 -5 -2 -10 -4
-10 -3 0 -8 5 -11 10 -3 6 -1 10 4 10 6 0 11 -4 11 -10z"/>
<path d="M2605 1339 c-10 -15 3 -25 16 -12 7 7 7 13 1 17 -6 3 -14 1 -17 -5z"/>
<path d="M2662 1326 c7 -7 19 -11 26 -8 11 4 11 6 0 13 -7 5 -19 9 -26 9 -10
0 -10 -3 0 -14z"/>
<path d="M2720 1321 c0 -10 30 -24 37 -17 3 3 2 9 -2 15 -8 13 -35 15 -35 2z"/>
<path d="M2638 1293 c7 -3 16 -2 19 1 4 3 -2 6 -13 5 -11 0 -14 -3 -6 -6z"/>
<path d="M2655 1202 l20 -9 -20 -5 c-11 -2 1 -4 27 -4 27 1 48 4 48 9 0 4 -6
7 -14 7 -7 0 -29 2 -47 5 -25 4 -29 3 -14 -3z"/>
<path d="M2748 1183 c6 -2 18 -2 25 0 6 3 1 5 -13 5 -14 0 -19 -2 -12 -5z"/>
<path d="M2755 1140 c3 -5 8 -10 11 -10 2 0 4 5 4 10 0 6 -5 10 -11 10 -5 0
-7 -4 -4 -10z"/>
<path d="M2660 1130 c0 -4 13 -10 29 -12 17 -2 28 -1 26 3 -7 10 -55 18 -55 9z"/>
<path d="M2683 1057 c-54 -12 -55 -24 -3 -24 21 0 37 3 35 7 -3 5 3 11 12 15
10 3 19 1 21 -4 4 -12 22 -5 22 7 0 11 -39 11 -87 -1z"/>
<path d="M2870 925 c-19 -7 -28 -13 -20 -13 8 0 31 6 50 13 19 7 28 13 20 13
-8 0 -31 -6 -50 -13z"/>
<path d="M138 1483 c7 -3 16 -2 19 1 4 3 -2 6 -13 5 -11 0 -14 -3 -6 -6z"/>
<path d="M2085 1360 c3 -5 14 -10 23 -10 15 0 15 2 2 10 -20 13 -33 13 -25 0z"/>
<path d="M1360 1351 c23 -7 22 -8 -15 -16 l-40 -8 35 -9 c24 -7 53 -6 93 3 31
6 60 9 64 6 3 -4 -14 -10 -38 -13 l-44 -8 35 -9 c38 -10 136 -1 145 14 4 5 3
9 -2 9 -4 0 -57 9 -118 20 -109 20 -163 25 -115 11z"/>
<path d="M1803 1337 c4 -10 -1 -13 -17 -10 -12 3 -38 0 -57 -5 -32 -10 -30
-10 28 -11 39 -1 63 -6 67 -13 3 -9 8 -8 17 6 10 16 19 17 78 11 86 -9 72 4
-21 21 -94 17 -101 17 -95 1z"/>
<path d="M1230 1322 c0 -6 -25 -14 -55 -17 -30 -4 -55 -11 -55 -15 0 -16 81
-19 142 -5 35 8 70 14 78 14 8 -1 -16 -9 -55 -19 l-70 -17 37 -8 c21 -4 55 -4
75 -1 21 3 63 8 93 11 l55 4 -52 -11 c-56 -11 -66 -22 -33 -33 25 -8 128 4
136 16 3 5 22 9 42 8 l37 -1 -40 -13 c-32 -10 -36 -13 -20 -18 11 -3 0 -3 -25
-1 -25 2 -37 1 -27 -2 9 -3 17 -9 17 -13 0 -5 10 -6 23 -4 14 3 29 -2 37 -12
12 -15 12 -19 -1 -29 -9 -6 -15 -18 -14 -26 1 -8 5 -44 9 -80 10 -97 19 -88
12 13 -3 50 -2 87 3 87 9 0 51 -74 51 -90 0 -6 -10 -10 -22 -11 l-23 0 23 -10
c17 -6 30 -5 45 6 17 12 18 15 5 15 -8 0 -18 9 -21 20 -3 11 -1 20 5 20 5 0 7
4 3 9 -3 5 3 12 12 14 10 2 6 3 -9 1 -20 -2 -31 2 -38 16 -8 15 -8 20 2 20 6
0 3 6 -7 14 -16 12 -11 15 56 31 68 17 72 19 44 27 -39 10 -103 0 -83 -14 10
-7 8 -8 -5 -4 -10 3 -26 6 -35 7 -9 1 1 7 23 14 28 9 33 14 18 14 -13 1 -23 6
-23 11 0 13 -2 13 67 -5 32 -9 71 -12 88 -9 26 6 28 5 17 -9 -12 -14 -11 -15
12 -4 20 10 22 14 10 20 -8 5 -29 5 -46 2 -23 -5 -29 -4 -23 5 6 10 -1 11 -31
6 -29 -6 -36 -5 -28 4 6 6 25 12 43 12 40 1 34 7 -19 19 -28 6 -55 6 -83 -2
-52 -15 -69 -29 -37 -30 14 0 20 -3 14 -5 -10 -4 -241 40 -331 62 -13 4 -23 2
-23 -4z"/>
<path d="M2067 1319 c-9 -6 -15 -14 -12 -19 3 -5 -4 -12 -15 -15 -30 -10 -19
-29 19 -33 21 -2 37 2 44 12 7 8 28 17 47 18 33 4 31 5 -17 12 -38 6 -50 12
-46 22 6 16 4 17 -20 3z"/>
<path d="M1900 1290 l-25 -8 25 0 c14 0 34 3 45 8 l20 9 -20 -1 c-11 0 -31 -4
-45 -8z"/>
<path d="M1750 1280 c0 -5 7 -10 16 -10 8 0 12 5 9 10 -3 6 -10 10 -16 10 -5
0 -9 -4 -9 -10z"/>
<path d="M1790 1269 c0 -4 14 -9 30 -11 19 -3 29 -1 27 6 -4 12 -57 16 -57 5z"/>
<path d="M1884 1257 c12 -9 20 -31 24 -65 6 -66 17 -67 17 -2 0 27 -4 50 -8
50 -5 0 -6 4 -3 9 3 5 -1 12 -10 15 -27 11 -38 6 -20 -7z"/>
<path d="M755 1230 l-80 -16 34 -12 c55 -19 87 -15 123 18 36 34 35 34 -77 10z"/>
<path d="M1975 1240 c11 -5 31 -9 45 -10 22 -2 20 -3 -10 -12 -57 -17 -13 -22
64 -7 l71 13 -70 13 c-38 6 -81 12 -95 12 -23 0 -23 -1 -5 -9z"/>
<path d="M1279 1231 c-1 -3 -1 -9 0 -14 1 -4 -11 -4 -25 -1 -19 5 -25 4 -20
-5 4 -6 17 -12 29 -12 16 -1 17 -3 5 -6 -9 -2 -26 1 -38 7 -26 14 -102 2 -76
-12 27 -15 79 -18 133 -7 38 7 57 7 70 -1 15 -9 13 -10 -14 -7 -18 2 -30 0
-27 -4 2 -4 -4 -10 -13 -13 -10 -3 2 -4 27 -2 25 1 37 1 28 -1 -10 -3 -18 -9
-18 -15 0 -7 12 -8 33 -3 17 4 42 8 55 7 31 0 28 6 -10 17 -29 9 -26 9 17 5
28 -3 61 -1 74 4 22 8 19 10 -26 16 -28 3 -53 12 -55 18 -3 7 -11 9 -24 4 -19
-8 -19 -8 1 -16 32 -14 4 -11 -45 4 l-45 14 35 3 c34 4 33 4 -17 15 -29 6 -54
8 -54 5z m188 -57 c-3 -3 -12 -4 -19 -1 -8 3 -5 6 6 6 11 1 17 -2 13 -5z"/>
<path d="M1840 1220 c-20 -6 -21 -8 -5 -8 11 0 29 3 40 8 25 11 -1 11 -35 0z"/>
<path d="M2280 1220 c0 -5 10 -10 23 -10 18 0 19 2 7 10 -19 13 -30 13 -30 0z"/>
<path d="M2190 1212 c0 -6 -26 -18 -57 -27 -41 -12 -53 -19 -42 -26 8 -5 21
-9 29 -9 12 0 12 2 2 9 -10 6 -8 10 10 14 39 11 48 8 48 -18 0 -14 -3 -25 -7
-25 -5 0 -8 -24 -7 -53 1 -80 1 -80 32 -72 38 9 49 23 14 17 -20 -3 -31 1 -35
12 -7 17 27 41 43 31 6 -3 10 -1 10 5 0 8 -9 10 -25 6 -20 -5 -25 -3 -25 13 0
11 7 27 16 35 8 9 11 16 5 16 -6 0 -11 9 -11 20 0 14 11 26 33 35 17 8 24 14
15 15 -9 0 -23 3 -32 6 -9 3 -16 1 -16 -4z"/>
<path d="M1764 1199 c-2 -5 -12 -6 -22 -3 -13 5 -14 4 -4 -4 8 -5 13 -18 12
-28 -1 -11 -1 -41 0 -69 1 -38 4 -45 10 -30 8 18 9 18 9 2 1 -15 5 -16 21 -7
17 9 22 6 34 -22 12 -25 14 -27 10 -8 -3 14 -6 36 -7 48 -1 21 -5 23 -34 19
-30 -5 -33 -3 -33 19 0 28 24 32 40 7 9 -15 10 -14 7 7 -2 14 -7 33 -11 42 -4
9 -5 21 -2 26 3 5 -2 9 -10 9 -8 0 -17 -4 -20 -8z m16 -26 c0 -20 -3 -24 -11
-16 -7 7 -9 19 -6 27 10 24 17 19 17 -11z"/>
<path d="M1946 1184 c-3 -9 -6 -24 -6 -34 0 -19 -43 -36 -62 -24 -8 5 -9 -2
-4 -22 11 -42 26 -56 52 -50 20 5 25 1 32 -26 l9 -33 4 43 c3 23 1 42 -3 42
-13 0 -9 48 5 53 7 3 5 6 -5 6 -19 1 -26 41 -8 41 6 0 10 5 10 10 0 16 -17 12
-24 -6z m4 -100 c0 -10 -8 -14 -26 -11 -33 4 -50 30 -26 38 22 8 52 -7 52 -27z"/>
<path d="M1698 1183 c7 -3 16 -2 19 1 4 3 -2 6 -13 5 -11 0 -14 -3 -6 -6z"/>
<path d="M1645 1170 c3 -5 13 -10 21 -10 8 0 12 5 9 10 -3 6 -13 10 -21 10 -8
0 -12 -4 -9 -10z"/>
<path d="M1828 1163 c7 -3 16 -2 19 1 4 3 -2 6 -13 5 -11 0 -14 -3 -6 -6z"/>
<path d="M2261 1161 c-14 -4 -26 -12 -29 -19 -4 -14 14 -16 23 -2 3 6 17 10
31 10 13 0 24 5 24 10 0 11 -13 11 -49 1z"/>
<path d="M1190 1151 c0 -6 -11 -13 -25 -17 -24 -6 -30 -21 -26 -66 2 -12 -3
-16 -13 -12 -9 3 -16 1 -16 -5 0 -6 5 -11 10 -11 6 0 11 -28 11 -62 1 -35 5
-76 9 -93 l8 -30 1 28 c1 16 7 27 15 27 23 0 24 19 5 87 l-18 63 52 0 c37 0
48 3 37 10 -8 5 -32 7 -52 3 -25 -4 -38 -2 -38 6 0 6 6 11 13 11 6 0 30 5 52
12 38 11 39 12 15 19 -15 5 -2 6 33 2 91 -9 73 4 -45 33 -18 4 -28 2 -28 -5z
m-28 -186 c3 -14 1 -28 -3 -31 -5 -3 -9 9 -9 25 0 38 6 40 12 6z"/>
<path d="M1465 1135 l-50 -13 55 5 c30 3 59 9 65 14 12 12 -9 10 -70 -6z"/>
<path d="M2071 1128 c0 -16 -8 -28 -18 -31 -17 -4 -17 -5 0 -6 10 -1 17 -9 17
-20 0 -26 -17 -36 -36 -20 -12 10 -13 9 -8 -5 6 -14 17 -20 36 -17 4 0 11 -18
16 -42 l10 -42 1 47 c1 27 6 48 14 51 7 3 5 6 -5 6 -11 1 -18 9 -18 21 0 10 8
24 18 29 15 9 16 10 0 11 -9 0 -19 10 -21 23 -4 19 -4 19 -6 -5z"/>
<path d="M1065 1120 l-30 -7 30 -7 c17 -4 38 -10 48 -13 9 -2 17 0 17 6 0 17
-33 28 -65 21z"/>
<path d="M1388 1113 c7 -3 16 -2 19 1 4 3 -2 6 -13 5 -11 0 -14 -3 -6 -6z"/>
<path d="M2128 1113 c7 -3 16 -2 19 1 4 3 -2 6 -13 5 -11 0 -14 -3 -6 -6z"/>
<path d="M1340 1101 c0 -5 -8 -8 -17 -6 -10 1 -12 0 -4 -2 9 -3 11 -14 7 -35
-3 -17 -6 -43 -6 -59 0 -23 -5 -29 -22 -30 -17 -1 -19 -2 -5 -6 9 -2 17 -12
18 -21 0 -12 3 -11 9 6 5 12 15 22 22 22 10 0 10 2 0 9 -15 9 -6 111 9 111 5
0 9 5 9 10 0 6 -4 10 -10 10 -5 0 -10 -4 -10 -9z"/>
<path d="M245 1081 c-3 -5 -40 -15 -82 -22 -52 -8 -71 -15 -58 -19 71 -25 83
-27 131 -14 27 7 60 13 74 14 52 1 53 17 1 34 -58 19 -58 19 -66 7z"/>
<path d="M1440 1076 c0 -2 11 -6 25 -8 13 -3 22 -1 19 3 -5 9 -44 13 -44 5z"/>
<path d="M745 1049 c-4 -6 -13 -8 -21 -5 -7 3 -16 1 -19 -4 -4 -6 -17 -10 -30
-10 -13 0 -31 -3 -40 -6 -13 -5 -10 -10 16 -26 17 -10 41 -18 53 -17 35 2 43
-3 16 -11 -25 -8 -25 -8 -2 -9 14 -1 21 -5 16 -12 -3 -6 -6 -34 -5 -62 1 -48
-9 -67 -34 -67 -5 0 -3 5 5 10 12 8 12 10 1 10 -9 0 -12 9 -9 30 3 17 0 30 -5
30 -5 0 -7 13 -3 30 4 22 2 30 -9 30 -8 0 -15 -5 -15 -11 0 -5 -5 -7 -12 -3
-7 4 -8 3 -4 -4 4 -6 9 -24 11 -39 5 -31 32 -117 46 -148 7 -16 8 -13 4 13 -3
23 -1 32 10 32 7 0 20 6 27 13 7 8 20 16 28 20 12 4 11 6 -3 6 -16 1 -18 10
-15 78 l3 77 44 13 c24 7 46 15 49 17 5 6 -65 36 -84 36 -7 0 -16 -5 -19 -11z
m82 -25 c-3 -3 -12 -4 -19 -1 -8 3 -5 6 6 6 11 1 17 -2 13 -5z"/>
<path d="M2128 1053 c7 -3 16 -2 19 1 4 3 -2 6 -13 5 -11 0 -14 -3 -6 -6z"/>
<path d="M1028 1033 c7 -3 16 -2 19 1 4 3 -2 6 -13 5 -11 0 -14 -3 -6 -6z"/>
<path d="M1230 1020 c0 -5 9 -10 21 -10 11 0 17 5 14 10 -3 6 -13 10 -21 10
-8 0 -14 -4 -14 -10z"/>
<path d="M570 1010 c20 -13 33 -13 25 0 -3 6 -14 10 -23 10 -15 0 -15 -2 -2
-10z"/>
<path d="M1488 1013 c7 -3 16 -2 19 1 4 3 -2 6 -13 5 -11 0 -14 -3 -6 -6z"/>
<path d="M492 995 c-7 -8 -34 -17 -62 -21 l-49 -6 17 -24 c14 -19 23 -22 56
-17 28 4 37 3 32 -5 -4 -7 -3 -12 2 -12 5 0 17 -22 26 -49 16 -48 13 -81 -6
-81 -5 0 -6 -4 -3 -10 8 -12 45 -13 45 -1 0 4 19 13 43 19 l42 11 -41 -5 -42
-5 -20 61 -21 61 22 10 22 10 -22 -5 c-13 -2 -25 0 -28 4 -6 9 55 29 90 31 17
0 16 2 -5 10 -13 6 -27 14 -30 19 -10 17 -55 20 -68 5z"/>
<path d="M1448 1003 c7 -3 16 -2 19 1 4 3 -2 6 -13 5 -11 0 -14 -3 -6 -6z"/>
<path d="M798 983 c7 -3 16 -2 19 1 4 3 -2 6 -13 5 -11 0 -14 -3 -6 -6z"/>
<path d="M1378 983 c6 -2 18 -2 25 0 6 3 1 5 -13 5 -14 0 -19 -2 -12 -5z"/>
<path d="M2263 976 c0 -8 6 -12 14 -9 7 3 10 9 7 14 -8 14 -21 11 -21 -5z"/>
<path d="M1007 973 c-23 -6 -11 -23 16 -22 12 0 16 3 9 6 -6 2 -10 9 -6 14 3
5 4 8 2 8 -2 -1 -11 -3 -21 -6z"/>
<path d="M280 960 c0 -5 6 -10 13 -11 15 0 -73 -24 -127 -34 l-39 -7 29 -19
c16 -10 38 -19 48 -19 11 0 16 -3 13 -7 -4 -3 -1 -13 7 -22 8 -9 24 -38 35
-64 l21 -48 -26 -9 c-14 -6 -31 -10 -39 -10 -16 0 -47 122 -32 131 5 4 -11 15
-36 25 -25 10 -43 22 -41 26 2 4 -20 6 -50 5 -30 -1 -49 -5 -42 -9 8 -6 8 -8
-1 -8 -7 0 -13 -6 -13 -14 0 -9 8 -13 23 -10 20 4 20 4 -3 -7 -40 -19 -2 -22
69 -6 34 8 64 11 66 6 3 -4 -5 -10 -17 -12 l-23 -4 22 -2 c16 -1 24 -9 28 -28
4 -16 10 -45 14 -65 l9 -37 -42 -10 c-22 -5 -33 -9 -24 -10 9 -1 43 6 74 14
31 8 67 12 80 9 14 -4 24 -2 24 4 0 5 17 15 38 21 l37 10 -40 -5 -40 -4 -23
52 c-27 64 -28 78 -4 79 11 1 8 4 -8 8 -21 6 -15 10 39 23 36 9 69 15 73 12 4
-3 8 0 8 5 0 6 -10 11 -22 12 -22 1 -22 1 2 9 l25 7 -25 10 c-45 18 -80 24
-80 13z m20 -50 c-14 -4 -36 -8 -50 -8 -23 -1 -23 0 -5 8 11 5 34 8 50 8 29 0
29 0 5 -8z m-190 -46 c0 -2 -12 -4 -27 -4 -21 0 -24 3 -14 9 13 8 41 5 41 -5z"/>
<path d="M1248 953 c7 -3 16 -2 19 1 4 3 -2 6 -13 5 -11 0 -14 -3 -6 -6z"/>
<path d="M138 943 c7 -3 16 -2 19 1 4 3 -2 6 -13 5 -11 0 -14 -3 -6 -6z"/>
<path d="M1845 940 c3 -5 10 -10 16 -10 5 0 9 5 9 10 0 6 -7 10 -16 10 -8 0
-12 -4 -9 -10z"/>
<path d="M782 921 c-11 -7 -11 -9 0 -13 7 -3 19 1 26 8 10 11 10 14 0 14 -7 0
-19 -4 -26 -9z"/>
<path d="M2166 923 c-4 -5 -26 -13 -49 -19 l-42 -12 55 2 c48 1 80 13 80 30 0
9 -35 7 -44 -1z"/>
<path d="M400 869 c0 -32 -4 -37 -32 -46 l-33 -11 33 -7 c22 -5 37 -16 43 -31
5 -14 16 -24 26 -23 17 1 17 2 1 6 -21 5 -25 68 -5 76 7 3 5 6 -5 6 -13 1 -18
9 -18 27 0 21 4 25 19 21 11 -3 22 1 25 9 4 9 -3 13 -24 11 -27 -2 -30 -5 -30
-38z"/>
<path d="M2017 884 c2 -6 -2 -11 -9 -11 -26 3 -98 -15 -98 -24 0 -11 -2 -11
37 0 22 7 33 6 37 -2 3 -8 8 -7 15 3 6 8 11 11 11 5 0 -6 3 -6 8 1 4 6 15 15
26 21 17 9 16 11 -7 15 -17 3 -24 1 -20 -8z"/>
<path d="M348 883 c6 -2 18 -2 25 0 6 3 1 5 -13 5 -14 0 -19 -2 -12 -5z"/>
<path d="M978 883 c7 -3 16 -2 19 1 4 3 -2 6 -13 5 -11 0 -14 -3 -6 -6z"/>
<path d="M308 873 c7 -3 16 -2 19 1 4 3 -2 6 -13 5 -11 0 -14 -3 -6 -6z"/>
<path d="M1720 870 c0 -5 6 -10 14 -10 8 0 18 5 21 10 3 6 -3 10 -14 10 -12 0
-21 -4 -21 -10z"/>
<path d="M545 860 c-3 -5 1 -10 9 -10 9 0 16 5 16 10 0 6 -4 10 -9 10 -6 0
-13 -4 -16 -10z"/>
<path d="M888 863 c7 -3 16 -2 19 1 4 3 -2 6 -13 5 -11 0 -14 -3 -6 -6z"/>
<path d="M2161 848 c11 -20 40 -21 46 -2 2 7 -10 14 -26 16 -27 4 -29 2 -20
-14z"/>
<path d="M1820 841 c0 -5 -15 -13 -32 -17 l-33 -8 35 -6 c23 -3 38 -1 43 7 4
7 18 13 30 14 21 0 21 1 2 9 -27 12 -45 12 -45 1z"/>
<path d="M78 823 c6 -2 18 -2 25 0 6 3 1 5 -13 5 -14 0 -19 -2 -12 -5z"/>
<path d="M28 813 c6 -2 18 -2 25 0 6 3 1 5 -13 5 -14 0 -19 -2 -12 -5z"/>
<path d="M648 803 c7 -3 16 -2 19 1 4 3 -2 6 -13 5 -11 0 -14 -3 -6 -6z"/>
<path d="M1645 800 c3 -5 -13 -14 -35 -20 -22 -6 -40 -12 -40 -14 0 -2 21 -3
48 -2 50 1 67 12 50 33 -12 15 -32 18 -23 3z"/>
<path d="M1696 801 c-3 -5 6 -11 19 -14 25 -4 40 4 28 17 -9 9 -41 7 -47 -3z"/>
<path d="M1400 789 c0 -5 5 -7 10 -4 6 3 10 8 10 11 0 2 -4 4 -10 4 -5 0 -10
-5 -10 -11z"/>
<path d="M1762 790 c2 -8 -14 -19 -37 -27 -36 -12 -37 -13 -9 -10 23 2 31 0
27 -10 -4 -9 4 -13 25 -13 30 0 48 22 35 42 -3 7 -1 8 5 4 7 -4 12 -2 12 3 0
6 -6 11 -14 11 -8 0 -22 3 -31 6 -10 4 -15 2 -13 -6z"/>
<path d="M1821 761 c-12 -22 -11 -22 53 -5 21 5 27 4 22 -5 -4 -6 -15 -11 -24
-12 -11 -1 -8 -4 8 -10 22 -7 20 -8 -8 -4 -19 3 -46 2 -60 -2 -27 -7 -27 -7 8
-14 45 -10 190 20 165 34 -9 5 -23 6 -31 3 -8 -3 -14 -2 -14 3 0 5 -13 11 -29
14 -16 3 -40 9 -54 12 -19 5 -28 2 -36 -14z"/>
<path d="M110 760 c0 -13 11 -13 30 0 12 8 11 10 -7 10 -13 0 -23 -4 -23 -10z"/>
<path d="M468 763 c7 -3 16 -2 19 1 4 3 -2 6 -13 5 -11 0 -14 -3 -6 -6z"/>
<path d="M1485 761 c5 -9 -53 -31 -82 -31 -6 0 -15 -4 -18 -10 -4 -6 8 -10 30
-10 25 0 34 4 29 11 -5 9 1 10 20 5 14 -3 26 -2 26 3 0 5 15 13 33 17 28 6 29
8 12 15 -28 11 -57 11 -50 0z"/>
<path d="M388 743 c7 -3 16 -2 19 1 4 3 -2 6 -13 5 -11 0 -14 -3 -6 -6z"/>
<path d="M1255 740 c-3 -5 -2 -10 4 -10 5 0 13 5 16 10 3 6 2 10 -4 10 -5 0
-13 -4 -16 -10z"/>
<path d="M1590 742 c0 -5 -24 -16 -52 -22 -29 -7 -59 -17 -66 -23 -6 -5 -26
-7 -43 -3 -18 3 -28 2 -24 -4 9 -15 50 -12 92 5 19 8 50 15 67 14 l31 -1 -27
-11 c-34 -13 -37 -32 -5 -23 12 3 46 10 75 16 61 14 69 35 16 44 -19 4 -42 10
-50 13 -8 3 -14 1 -14 -5z m60 -16 c0 -2 -9 -6 -20 -9 -11 -3 -18 -1 -14 4 5
9 34 13 34 5z"/>
<path d="M1185 720 c-3 -5 -2 -10 4 -10 5 0 13 5 16 10 3 6 2 10 -4 10 -5 0
-13 -4 -16 -10z"/>
<path d="M1706 721 c-4 -5 2 -11 11 -13 10 -2 -16 -12 -57 -23 -73 -18 -74
-19 -40 -27 25 -5 61 -1 125 14 l90 21 -50 12 c-28 6 -56 14 -62 18 -6 4 -14
3 -17 -2z"/>
<path d="M1095 710 c-8 -13 15 -13 35 0 12 8 11 10 -7 10 -12 0 -25 -4 -28
-10z"/>
<path d="M1275 710 c3 -5 -16 -15 -42 -22 -42 -10 -45 -13 -23 -18 14 -4 28
-2 31 3 4 5 12 6 19 2 6 -4 32 -2 56 5 43 12 77 7 38 -6 -10 -3 -28 -10 -39
-15 -15 -7 -12 -8 13 -3 22 4 32 2 30 -6 -2 -7 11 -14 30 -16 17 -2 32 1 32 6
0 6 -7 10 -15 10 -8 0 -15 9 -15 20 0 10 -10 24 -21 31 -28 15 -102 22 -94 9z"/>
<path d="M78 673 c7 -3 16 -2 19 1 4 3 -2 6 -13 5 -11 0 -14 -3 -6 -6z"/>
<path d="M1093 668 c1 -6 -27 -20 -63 -31 -75 -23 -70 -34 7 -14 37 10 54 11
58 3 3 -8 7 -7 11 1 3 7 12 9 21 6 10 -4 14 -2 10 4 -4 6 3 14 16 17 21 7 21
7 2 16 -29 13 -65 12 -62 -2z"/>
<path d="M1452 665 c-13 -7 -20 -15 -15 -18 14 -9 66 7 71 21 5 15 -26 14 -56
-3z"/>
<path d="M28 663 c6 -2 18 -2 25 0 6 3 1 5 -13 5 -14 0 -19 -2 -12 -5z"/>
<path d="M885 660 l-20 -9 20 0 c11 0 27 4 35 9 13 9 13 10 0 9 -8 0 -24 -4
-35 -9z"/>
<path d="M1470 634 c-36 -13 -53 -22 -38 -20 15 2 29 -1 30 -6 4 -10 127 20
143 35 6 6 2 8 -12 4 -13 -3 -23 -1 -23 4 0 14 -29 9 -100 -17z"/>
<path d="M1206 641 c-3 -5 -28 -14 -56 -21 -27 -7 -50 -17 -50 -22 0 -10 27
-6 64 8 9 3 16 2 16 -4 0 -5 -7 -13 -16 -16 -8 -3 -13 -10 -10 -14 3 -5 45 2
93 14 48 13 93 22 98 21 6 -2 -17 -11 -50 -21 -71 -20 -117 -40 -72 -31 19 4
26 2 22 -5 -3 -5 -4 -10 -1 -10 11 0 161 42 174 49 7 4 -23 16 -67 27 -44 11
-78 17 -76 13 3 -4 -4 -9 -16 -12 -16 -4 -19 -2 -14 14 5 14 2 19 -14 19 -11
0 -22 -4 -25 -9z m14 -26 c0 -8 -7 -15 -15 -15 -26 0 -18 20 13 29 1 1 2 -6 2
-14z m85 -45 c-3 -5 -16 -10 -28 -9 -20 1 -20 2 3 9 14 4 26 8 28 9 2 1 0 -3
-3 -9z"/>
<path d="M900 611 c0 -4 -30 -16 -67 -26 -71 -18 -115 -43 -56 -30 18 3 52 8
77 9 44 2 83 27 71 46 -8 12 -25 13 -25 1z"/>
<path d="M50 592 c0 -5 14 -7 30 -4 17 2 30 6 30 8 0 2 -13 4 -30 4 -16 0 -30
-4 -30 -8z"/>
<path d="M975 591 c19 -8 19 -9 -6 -19 -15 -6 -43 -14 -63 -17 -37 -7 -50 -24
-18 -26 9 0 26 -3 37 -6 30 -8 87 -4 100 7 7 5 15 6 20 2 9 -8 -4 40 -14 49
-3 4 -22 10 -41 13 -25 4 -29 3 -15 -3z m0 -45 c-11 -8 -24 -12 -28 -9 -11 7
12 23 32 23 11 0 9 -4 -4 -14z"/>
<path d="M1063 559 c8 -13 19 -16 41 -13 26 4 28 3 11 -5 -11 -6 -49 -19 -85
-30 -60 -18 -61 -20 -20 -15 25 3 55 5 67 6 13 0 20 4 17 9 -3 6 6 7 22 3 20
-5 25 -4 19 6 -5 9 -2 10 12 6 11 -4 31 -2 44 4 23 10 23 10 2 6 -13 -2 -23
-1 -23 4 0 4 -27 14 -59 22 -57 15 -59 15 -48 -3z"/>
<path d="M665 558 c4 -10 -6 -18 -36 -27 -22 -7 -38 -15 -35 -18 3 -3 19 -1
35 5 25 9 31 8 31 -4 0 -7 4 -14 10 -14 5 0 7 8 4 18 -5 14 -4 15 5 2 9 -13
12 -13 23 3 10 13 21 16 46 11 40 -8 35 -13 -31 -36 -50 -17 -38 -18 31 -3 39
9 43 -7 5 -22 l-28 -11 31 -1 c32 -1 124 26 124 37 0 4 -42 19 -94 34 -52 16
-101 31 -110 34 -11 4 -15 2 -11 -8z m175 -52 c0 -2 -9 -6 -20 -9 -11 -3 -20
-1 -20 4 0 5 9 9 20 9 11 0 20 -2 20 -4z"/>
<path d="M427 483 c8 -20 46 -33 73 -26 16 4 21 3 16 -5 -4 -7 -13 -12 -19
-12 -7 -1 -25 -7 -42 -16 l-30 -14 45 4 c30 4 38 2 25 -3 -18 -8 -19 -9 -2
-16 9 -4 33 -4 52 -1 31 6 34 9 25 26 -12 23 -3 27 14 6 7 -8 20 -11 34 -7 18
5 -2 15 -87 42 -80 27 -108 33 -104 22z"/>
<path d="M505 487 c11 -6 25 -5 39 1 18 9 16 10 -17 10 -30 -1 -35 -3 -22 -11z"/>
<path d="M903 489 c1 -6 -23 -19 -53 -29 -48 -16 -50 -18 -16 -13 22 3 49 7
60 8 12 1 23 4 26 5 8 4 23 7 45 9 15 2 11 6 -15 16 -44 17 -51 18 -47 4z"/>
<path d="M398 475 c-3 -3 -38 -15 -78 -26 -94 -26 -119 -40 -65 -35 57 5 111
-4 94 -16 -10 -6 -4 -8 19 -5 18 2 35 0 38 -5 3 -4 -3 -8 -13 -9 -10 0 -3 -5
16 -11 25 -7 36 -6 42 3 5 9 -11 19 -58 36 -36 12 -71 20 -77 16 -7 -4 -7 -2
1 7 7 7 27 11 52 8 23 -2 41 0 41 4 0 4 8 5 18 1 15 -6 15 -4 -2 15 -21 24
-21 24 -28 17z"/>
<path d="M558 468 c5 -5 16 -8 23 -6 8 3 3 7 -10 11 -17 4 -21 3 -13 -5z"/>
<path d="M1200 405 c-107 -35 -256 -82 -330 -105 -74 -22 -182 -56 -240 -75
-321 -102 -464 -147 -543 -171 -48 -14 -87 -30 -87 -35 0 -14 28 -22 48 -13 9
4 21 6 25 5 4 0 18 4 30 11 12 7 29 13 37 14 33 6 89 27 85 34 -5 8 92 40 121
40 18 1 109 29 129 41 6 4 24 9 40 13 17 4 44 13 60 20 17 7 211 72 433 145
352 116 426 143 395 140 -5 0 -96 -29 -203 -64z"/>
<path d="M1080 453 c-14 -3 -27 -8 -30 -13 -3 -4 -32 -15 -65 -25 l-60 -18 33
-10 c36 -11 129 11 125 30 -1 5 13 8 30 6 27 -3 29 -2 14 7 -9 6 -15 15 -12
21 4 5 3 8 -2 8 -4 -1 -19 -4 -33 -6z"/>
<path d="M686 430 c24 -16 37 -18 55 -11 19 8 20 10 7 12 -33 3 -36 4 -44 12
-4 4 -17 7 -28 7 -18 0 -16 -3 10 -20z"/>
<path d="M129 421 c10 -7 8 -12 -10 -25 -28 -19 -12 -21 46 -4 l40 11 -30 13
c-35 15 -68 19 -46 5z"/>
<path d="M650 412 c0 -5 -21 -15 -46 -21 -26 -7 -44 -14 -41 -18 3 -3 20 0 38
6 18 6 45 11 60 11 15 0 31 5 34 10 3 6 2 10 -4 10 -5 0 -16 3 -25 6 -9 3 -16
2 -16 -4z"/>
<path d="M43 377 c-24 -5 -43 -14 -43 -20 0 -9 28 -5 64 9 12 5 15 2 10 -11
-6 -15 -3 -16 27 -10 49 11 27 -7 -34 -27 -35 -12 -41 -16 -19 -13 17 2 32 0
32 -5 0 -6 -7 -10 -16 -10 -23 0 -8 -17 20 -22 16 -3 27 0 31 10 4 11 8 12 20
2 12 -10 16 -9 21 4 5 13 14 16 38 11 25 -5 28 -4 16 5 -13 10 -12 11 3 6 10
-3 26 -6 35 -7 9 0 -12 -11 -48 -24 -36 -13 -61 -24 -56 -24 15 -1 130 31 139
39 5 4 -12 15 -37 23 -33 11 -55 13 -78 6 -48 -13 -69 -10 -29 5 38 13 35 17
-22 35 -20 7 -35 17 -32 22 4 5 5 8 3 8 -2 -1 -22 -6 -45 -12z"/>
<path d="M250 381 c0 -5 -10 -13 -22 -19 l-23 -11 22 0 c12 -1 23 -5 25 -10 5
-14 58 -25 58 -12 0 6 6 8 14 5 8 -3 22 -1 32 4 14 8 12 10 -11 16 -15 4 -32
3 -38 -3 -14 -14 -40 -2 -27 14 8 9 5 14 -10 18 -11 3 -20 2 -20 -2z"/>
<path d="M476 366 c3 -9 -1 -16 -13 -19 -10 -2 -2 -2 17 0 51 7 55 14 13 27
-18 6 -22 4 -17 -8z"/>
<path d="M783 369 c1 -6 -18 -18 -43 -27 -41 -14 -42 -16 -21 -24 26 -9 79 -2
124 17 l29 12 -41 17 c-49 19 -52 19 -48 5z"/>
<path d="M362 326 c-37 -21 -36 -25 5 -15 21 5 43 9 48 9 6 0 3 5 -5 10 -18
12 -19 11 -48 -4z"/>
<path d="M645 333 c-19 -5 -34 -20 -35 -34 0 -3 20 -6 45 -7 25 0 43 4 40 8
-3 5 -12 7 -21 3 -16 -6 -16 17 1 29 11 9 2 9 -30 1z"/>
<path d="M3170 327 l-25 -10 25 -6 c24 -7 35 0 28 18 -2 5 -14 4 -28 -2z"/>
<path d="M520 288 c0 -4 -12 -14 -27 -22 -17 -9 -22 -16 -13 -17 54 -6 68 -6
90 3 23 9 24 10 7 23 -13 10 -15 14 -5 18 7 3 -2 4 -19 4 -18 -1 -33 -5 -33
-9z"/>
<path d="M1070 283 c-8 -3 -37 -16 -65 -28 -27 -13 -87 -35 -132 -48 -45 -14
-96 -35 -113 -47 -18 -13 -30 -17 -30 -9 0 8 -4 8 -12 1 -7 -6 -16 -10 -21
-10 -14 -1 -202 -65 -212 -73 -6 -4 -51 -21 -100 -38 l-90 -29 60 0 c33 1 63
6 67 12 5 8 8 7 8 -1 0 -8 14 -13 38 -12 l37 1 -35 16 -35 16 28 4 c16 2 35
-2 43 -9 11 -9 14 -8 14 7 1 18 1 18 12 -1 6 -11 13 -22 15 -24 2 -3 73 -6
157 -8 138 -3 154 -2 152 13 0 9 9 20 22 25 18 7 22 5 22 -11 0 -10 5 -22 10
-25 6 -4 10 6 10 24 0 23 4 29 15 25 8 -4 15 -17 15 -31 0 -23 1 -24 18 -7 16
16 17 16 20 1 4 -20 38 -23 45 -3 4 10 -8 18 -39 26 -46 13 -80 40 -50 40 9 0
16 5 16 10 0 6 5 10 11 10 6 0 9 -6 6 -14 -9 -23 16 -25 42 -5 13 11 18 19 12
19 -7 0 -9 5 -6 11 4 6 12 8 19 6 7 -3 23 4 37 15 27 22 33 22 -81 -8 -36 -9
-72 -23 -80 -29 -8 -7 -20 -10 -27 -8 -6 2 -14 -1 -18 -6 -3 -6 2 -11 12 -11
15 0 16 -2 3 -10 -9 -6 -17 -5 -21 2 -5 8 -36 2 -104 -21 -53 -19 -98 -31
-101 -29 -2 3 40 20 95 39 55 18 97 37 94 42 -3 5 -13 7 -22 4 -9 -2 -23 3
-31 11 -13 14 -15 13 -20 -8 -3 -13 -11 -25 -19 -28 -9 -3 -11 6 -8 34 3 28 8
38 18 35 8 -2 23 -5 34 -7 11 -1 22 -3 25 -4 3 -1 9 -2 14 -1 4 1 18 -5 30
-13 20 -13 31 -11 110 16 53 19 82 34 75 39 -7 4 -19 0 -28 -9 -15 -14 -16
-14 -19 7 -2 12 -14 26 -28 31 -37 14 -29 23 17 18 37 -3 43 0 71 34 29 37 29
42 -2 31z m-100 -123 c0 -11 -6 -23 -14 -26 -18 -7 -58 14 -51 27 10 15 33 10
38 -8 4 -14 5 -12 6 5 1 28 21 30 21 2z m-90 0 c0 -5 -2 -10 -4 -10 -3 0 -8 5
-11 10 -3 6 -1 10 4 10 6 0 11 -4 11 -10z m10 -27 c30 -11 31 -12 6 -8 -16 4
-43 13 -60 20 -23 11 -25 13 -6 8 14 -3 41 -12 60 -20z m-182 -69 c-9 -8 -68
9 -62 18 4 5 15 8 25 5 11 -3 19 0 19 6 0 7 5 4 11 -6 6 -10 9 -20 7 -23z
m-60 -13 c11 -7 11 -9 -1 -14 -16 -6 -27 0 -27 15 0 10 11 10 28 -1z m152 -21
c0 -5 -5 -10 -11 -10 -5 0 -7 5 -4 10 3 6 8 10 11 10 2 0 4 -4 4 -10z"/>
<path d="M0 255 c0 -8 9 -15 19 -15 26 0 35 16 15 24 -25 10 -34 7 -34 -9z"/>
<path d="M70 251 c0 -5 -10 -13 -22 -19 -20 -11 -19 -11 12 -6 44 8 58 20 31
27 -12 3 -21 2 -21 -2z"/>
<path d="M389 251 c11 -7 3 -12 -27 -22 -41 -12 -41 -13 -21 -27 17 -11 23
-12 29 -2 4 7 21 13 37 14 16 2 35 6 42 10 17 11 -17 35 -49 36 -19 0 -21 -3
-11 -9z"/>
<path d="M1248 218 c-43 -17 -75 -34 -73 -39 3 -4 -10 -11 -30 -15 -19 -3 -35
-10 -35 -15 0 -5 -22 -25 -50 -46 -27 -20 -47 -39 -45 -41 2 -3 11 0 19 7 11
9 15 7 21 -11 6 -19 8 -20 12 -5 6 23 23 22 23 -3 0 -11 7 -20 16 -20 9 0 12
5 8 11 -4 7 -1 10 7 7 8 -3 13 -11 12 -17 -2 -6 2 -11 7 -11 14 0 26 33 14 37
-12 4 -5 73 7 73 12 0 22 -46 16 -70 -5 -21 1 -24 27 -14 10 4 16 18 16 39 0
28 -5 35 -30 44 -43 14 -37 26 12 26 32 0 45 -5 50 -17 11 -28 29 -22 22 7 -5
20 -3 25 14 25 20 0 32 -18 32 -49 0 -10 8 -17 20 -17 14 0 20 7 20 23 0 13 5
23 10 23 6 0 10 -8 10 -17 0 -15 2 -15 9 -4 5 8 16 11 24 8 9 -3 17 1 20 12 5
21 -9 51 -24 51 -6 0 -7 -4 -4 -10 3 -5 1 -10 -4 -10 -6 0 -11 5 -11 10 0 6
-11 16 -25 22 -29 13 -32 25 -7 31 11 3 8 5 -8 5 -14 0 -60 -14 -102 -30z m62
-28 c0 -5 -2 -10 -4 -10 -3 0 -8 5 -11 10 -3 6 -1 10 4 10 6 0 11 -4 11 -10z
m-70 -20 c-19 -12 -30 -12 -30 -1 0 10 31 20 40 14 2 -2 -2 -8 -10 -13z m175
-10 c3 -5 2 -10 -4 -10 -5 0 -13 5 -16 10 -3 6 -2 10 4 10 5 0 13 -4 16 -10z
m-285 -66 c0 -14 -4 -23 -10 -19 -5 3 -10 15 -10 26 0 10 5 19 10 19 6 0 10
-12 10 -26z"/>
<path d="M250 221 c0 -6 9 -15 20 -21 13 -7 20 -7 20 -1 0 6 -9 15 -20 21 -13
7 -20 7 -20 1z"/>
<path d="M206 195 c4 -9 0 -15 -9 -15 -9 0 -19 -5 -23 -11 -5 -8 1 -10 20 -7
14 3 26 1 26 -3 0 -5 7 -9 16 -9 8 0 13 4 10 9 -3 4 6 7 19 5 37 -4 30 9 -15
29 -49 21 -51 21 -44 2z"/>
<path d="M49 163 c-23 -13 -23 -14 10 -7 23 4 31 3 27 -5 -4 -5 -22 -13 -41
-17 -51 -9 -55 -26 -4 -18 31 5 40 4 35 -4 -9 -15 -10 -15 53 4 l53 15 -36 18
c-52 27 -70 30 -97 14z"/>
<path d="M1465 160 c-3 -5 -2 -10 4 -10 5 0 13 5 16 10 3 6 2 10 -4 10 -5 0
-13 -4 -16 -10z"/>
<path d="M1429 117 c-19 -13 -78 -38 -132 -57 -53 -18 -97 -37 -97 -41 0 -4
-7 -9 -16 -11 -9 -2 30 -4 87 -6 74 -2 105 1 111 10 6 10 8 10 8 0 0 -9 15
-12 53 -11 60 2 75 8 56 20 -19 12 -42 11 -34 -1 3 -5 1 -10 -4 -10 -6 0 -11
6 -11 14 0 14 -38 28 -62 23 -7 -2 -10 -2 -6 0 4 2 4 11 1 20 -4 10 0 14 14
11 12 -2 32 10 52 30 38 37 28 42 -20 9z m-99 -83 c0 -16 -9 -18 -30 -4 -13 9
-13 11 0 19 17 12 30 5 30 -15z"/>
<path d="M20 90 c-18 -12 -2 -12 25 0 13 6 15 9 5 9 -8 0 -22 -4 -30 -9z"/>
<path d="M1260 85 c0 -8 5 -15 10 -15 6 0 10 5 10 11 0 5 5 7 12 3 7 -4 8 -3
4 4 -10 17 -36 15 -36 -3z"/>
<path d="M3175 80 c-3 -5 -2 -10 4 -10 5 0 13 5 16 10 3 6 2 10 -4 10 -5 0
-13 -4 -16 -10z"/>
<path d="M276 42 c-112 -40 -114 -55 -4 -22 40 12 84 25 97 29 26 8 42 32 19
30 -7 0 -58 -17 -112 -37z"/>
<path d="M2935 51 c-3 -6 11 -15 32 -20 57 -16 62 -13 18 9 -46 23 -42 23 -50
11z"/>
<path d="M2865 19 c-22 -10 -33 -18 -25 -18 8 0 31 8 50 19 45 25 27 24 -25
-1z"/>
<path d="M3175 20 c-19 -8 -19 -9 3 -9 12 -1 22 4 22 9 0 6 -1 10 -2 9 -2 0
-12 -4 -23 -9z"/>
<path d="M1055 10 c3 -5 14 -10 23 -10 15 0 15 2 2 10 -20 13 -33 13 -25 0z"/>
<path d="M2790 10 c-13 -8 -13 -10 2 -10 9 0 20 5 23 10 8 13 -5 13 -25 0z"/>
<path d="M3050 11 c30 -11 66 -14 57 -5 -3 3 -23 8 -44 10 -31 3 -34 2 -13 -5z"/>
</g>
</svg>
